<svg width="537" height="500" viewBox="0 0 537 500" fill="none" xmlns="http://www.w3.org/2000/svg">
  <defs>
    <linearGradient id="bg" x1="268.5" y1="0" x2="268.5" y2="500" gradientUnits="userSpaceOnUse">
      <stop stop-color="#111813"/>
      <stop offset="1" stop-color="#080B09"/>
    </linearGradient>

    <linearGradient id="panel" x1="24" y1="24" x2="513" y2="476" gradientUnits="userSpaceOnUse">
      <stop stop-color="#1D231F"/>
      <stop offset="1" stop-color="#111513"/>
    </linearGradient>

    <linearGradient id="statPanel" x1="0" y1="0" x2="1" y2="1">
      <stop stop-color="#202622"/>
      <stop offset="1" stop-color="#151917"/>
    </linearGradient>

    <linearGradient id="mixBar" x1="52" y1="0" x2="485" y2="0" gradientUnits="userSpaceOnUse">
      <stop offset="0" stop-color="#35C7E8"/>
      <stop offset="0.14" stop-color="#35C7E8"/>
      <stop offset="0.14" stop-color="#F58B25"/>
      <stop offset="0.78" stop-color="#F58B25"/>
      <stop offset="0.78" stop-color="#83C5F7"/>
      <stop offset="1" stop-color="#83C5F7"/>
    </linearGradient>

    <filter id="shadow" x="-20%" y="-20%" width="140%" height="150%">
      <feDropShadow dx="0" dy="18" stdDeviation="18" flood-color="#000000" flood-opacity="0.35"/>
    </filter>

    <filter id="greenGlow" x="-80%" y="-80%" width="260%" height="260%">
      <feGaussianBlur stdDeviation="5"/>
    </filter>
  </defs>

  <rect width="537" height="500" rx="36" fill="url(#bg)"/>
  <rect x="0.75" y="0.75" width="535.5" height="498.5" rx="35.25" stroke="#2B352E" stroke-width="1.5"/>

  <!-- Header -->
  <g filter="url(#shadow)">
    <rect x="24" y="24" width="489" height="116" rx="28" fill="url(#panel)"/>
    <rect x="24.75" y="24.75" width="487.5" height="114.5" rx="27.25" stroke="#303933" stroke-width="1.5"/>
  </g>

  <text x="48" y="67" fill="#31FF4F" font-family="Arial, sans-serif" font-size="20" font-weight="800" letter-spacing="5">ANIMALDEX</text>
  <text x="48" y="108" fill="#F4FFF5" font-family="Arial, sans-serif" font-size="34" font-weight="800">Collection profile</text>

  <circle cx="462" cy="82" r="30" fill="#252B27"/>
  <circle cx="462" cy="82" r="29.25" stroke="#404A43" stroke-width="1.5"/>
  <path d="M452 84L460 92L474 70" stroke="#31FF4F" stroke-width="5" stroke-linecap="round" stroke-linejoin="round"/>

  <!-- Top stats -->
  <rect x="24" y="164" width="234" height="104" rx="28" fill="url(#statPanel)"/>
  <rect x="24.75" y="164.75" width="232.5" height="102.5" rx="27.25" stroke="#303933" stroke-width="1.5"/>
  <text x="48" y="204" fill="#9BA39D" font-family="Arial, sans-serif" font-size="18" font-weight="700" letter-spacing="2">CAPTURES</text>
  <text x="48" y="248" fill="#F4FFF5" font-family="Arial, sans-serif" font-size="42" font-weight="800">70</text>
  <rect x="48" y="254" width="180" height="6" rx="3" fill="#2C332E"/>
  <rect x="48" y="254" width="180" height="6" rx="3" fill="#31FF4F"/>

  <rect x="279" y="164" width="234" height="104" rx="28" fill="url(#statPanel)"/>
  <rect x="279.75" y="164.75" width="232.5" height="102.5" rx="27.25" stroke="#303933" stroke-width="1.5"/>
  <text x="303" y="204" fill="#9BA39D" font-family="Arial, sans-serif" font-size="18" font-weight="700" letter-spacing="2">SPECIES</text>
  <text x="303" y="248" fill="#F4FFF5" font-family="Arial, sans-serif" font-size="42" font-weight="800">52</text>
  <text x="370" y="247" fill="#8E9690" font-family="Arial, sans-serif" font-size="20" font-weight="800">/1000</text>
  <rect x="303" y="254" width="180" height="6" rx="3" fill="#2C332E"/>
  <rect x="303" y="254" width="180" height="6" rx="3" fill="#24D6C8"/>

  <!-- Setting split -->
  <rect x="24" y="292" width="489" height="112" rx="28" fill="url(#statPanel)"/>
  <rect x="24.75" y="292.75" width="487.5" height="110.5" rx="27.25" stroke="#303933" stroke-width="1.5"/>
  <text x="48" y="329" fill="#9BA39D" font-family="Arial, sans-serif" font-size="18" font-weight="700" letter-spacing="2">DEX</text>
  <text x="356" y="328" fill="#C4CAC5" font-family="Arial, sans-serif" font-size="18" font-weight="700">6 wild / 48 zoo...</text>
  <rect x="48" y="352" width="437" height="34" rx="17" fill="url(#mixBar)"/>
  <text x="68" y="374" fill="#07100B" font-family="Arial, sans-serif" font-size="15" font-weight="800">W</text>
  <text x="96" y="377" fill="#07100B" font-family="Arial, sans-serif" font-size="22" font-weight="900">6</text>
  <text x="248" y="374" text-anchor="middle" fill="#07100B" font-family="Arial, sans-serif" font-size="15" font-weight="800">Zoo</text>
  <text x="248" y="377" dx="34" fill="#07100B" font-family="Arial, sans-serif" font-size="22" font-weight="900">48</text>
  <text x="415" y="374" fill="#07100B" font-family="Arial, sans-serif" font-size="15" font-weight="800">D</text>
  <text x="457" y="377" fill="#07100B" font-family="Arial, sans-serif" font-size="22" font-weight="900">13</text>

  <!-- Bottom stat cards -->
  <rect x="24" y="428" width="152" height="48" rx="20" fill="url(#statPanel)"/>
  <rect x="24.75" y="428.75" width="150.5" height="46.5" rx="19.25" stroke="#303933" stroke-width="1.5"/>
  <text x="45" y="456" fill="#9BA39D" font-family="Arial, sans-serif" font-size="13" font-weight="800" letter-spacing="1.5">CHA</text>
  <text x="136" y="461" text-anchor="end" fill="#F4FFF5" font-family="Arial, sans-serif" font-size="28" font-weight="900">13</text>
  <rect x="45" y="466" width="110" height="4" rx="2" fill="#31FF4F"/>

  <rect x="192" y="428" width="152" height="48" rx="20" fill="url(#statPanel)"/>
  <rect x="192.75" y="428.75" width="150.5" height="46.5" rx="19.25" stroke="#303933" stroke-width="1.5"/>
  <text x="213" y="456" fill="#9BA39D" font-family="Arial, sans-serif" font-size="13" font-weight="800" letter-spacing="1.5">SETS</text>
  <text x="304" y="461" text-anchor="end" fill="#F4FFF5" font-family="Arial, sans-serif" font-size="28" font-weight="900">22</text>
  <rect x="213" y="466" width="110" height="4" rx="2" fill="#8F4DFF"/>

  <rect x="360" y="428" width="153" height="48" rx="20" fill="url(#statPanel)"/>
  <rect x="360.75" y="428.75" width="151.5" height="46.5" rx="19.25" stroke="#303933" stroke-width="1.5"/>
  <text x="381" y="456" fill="#9BA39D" font-family="Arial, sans-serif" font-size="13" font-weight="800" letter-spacing="1.5">MIS</text>
  <text x="473" y="461" text-anchor="end" fill="#F4FFF5" font-family="Arial, sans-serif" font-size="28" font-weight="900">17</text>
  <rect x="381" y="466" width="110" height="4" rx="2" fill="#24D6C8"/>

  <!-- Subtle radar motif -->
  <g opacity="0.28">
    <path d="M87 72L108 88L100 114H74L66 88L87 72Z" stroke="#31FF4F" stroke-width="2"/>
    <path d="M87 84L98 92L94 106H80L76 92L87 84Z" fill="#31FF4F" opacity="0.25"/>
    <circle cx="87" cy="94" r="4" fill="#31FF4F" filter="url(#greenGlow)"/>
  </g>
</svg>