<svg width="160" height="160" viewBox="0 0 160 160" fill="none" xmlns="http://www.w3.org/2000/svg">
  <circle cx="80" cy="80" r="80" fill="#111714"/>
  <circle cx="80" cy="80" r="79" stroke="#314036" stroke-width="2"/>

  <!-- animal head -->
  <circle cx="80" cy="78" r="34" fill="#1BC451" fill-opacity="0.16"/>
  <path d="M52 58L42 42L65 50" fill="#1BC451" fill-opacity="0.16"/>
  <path d="M108 58L118 42L95 50" fill="#1BC451" fill-opacity="0.16"/>
  <path d="M52 58L42 42L65 50" stroke="#CFFFF0" stroke-width="6" stroke-linecap="round" stroke-linejoin="round"/>
  <path d="M108 58L118 42L95 50" stroke="#CFFFF0" stroke-width="6" stroke-linecap="round" stroke-linejoin="round"/>

  <!-- face -->
  <circle cx="68" cy="76" r="4" fill="#CFFFF0"/>
  <circle cx="92" cy="76" r="4" fill="#CFFFF0"/>
  <path d="M76 90C78 92 82 92 84 90" stroke="#CFFFF0" stroke-width="5" stroke-linecap="round"/>

  <!-- heart -->
  <path d="M80 119C80 119 56 105 56 90C56 81 67 77 74 84C77 87 80 91 80 91C80 91 83 87 86 84C93 77 104 81 104 90C104 105 80 119 80 119Z" fill="#FF5472"/>
</svg>