<svg width="190" height="70" viewBox="0 0 190 70" fill="none" xmlns="http://www.w3.org/2000/svg">
  <defs>
    <linearGradient id="cardBg" x1="0" y1="0" x2="190" y2="70" gradientUnits="userSpaceOnUse">
      <stop stop-color="#182019"/>
      <stop offset="0.55" stop-color="#111713"/>
      <stop offset="1" stop-color="#151223"/>
    </linearGradient>

    <linearGradient id="winnerBg" x1="96" y1="34" x2="172" y2="58" gradientUnits="userSpaceOnUse">
      <stop stop-color="#162C1D"/>
      <stop offset="1" stop-color="#1F3A27"/>
    </linearGradient>

    <radialGradient id="avatarGlow" cx="0" cy="0" r="1" gradientUnits="userSpaceOnUse" gradientTransform="translate(35 36) rotate(90) scale(24)">
      <stop stop-color="#35F24C" stop-opacity="0.75"/>
      <stop offset="1" stop-color="#35F24C" stop-opacity="0"/>
    </radialGradient>

    <filter id="softGlow" x="-80%" y="-80%" width="260%" height="260%">
      <feGaussianBlur stdDeviation="4"/>
    </filter>
  </defs>

  <rect width="190" height="70" rx="22" fill="url(#cardBg)"/>
  <rect x="0.75" y="0.75" width="188.5" height="68.5" rx="21.25" stroke="#314036" stroke-width="1.5"/>

  <!-- Header -->
  <path d="M20 12L16.5 24H21L18.7 34L27.5 19.5H22.5L25 12H20Z" fill="#2EFF4A"/>
  <text x="34" y="25" fill="#2EFF4A" font-family="Arial, sans-serif" font-size="12" font-weight="800">Scenario result</text>
  <text x="142" y="25" fill="#9FA7A0" font-family="Arial, sans-serif" font-size="11" font-weight="700">won 3 cr</text>

  <!-- Matchup row -->
  <rect x="14" y="36" width="72" height="22" rx="11" fill="#222622"/>
  <circle cx="27" cy="47" r="8" fill="#50493A"/>
  <circle cx="27" cy="47" r="10" fill="url(#avatarGlow)" opacity="0.35" filter="url(#softGlow)"/>
  <path d="M21 48C25 42 31 41 35 47C31 45 26 46 21 48Z" fill="#BFA57A"/>
  <text x="40" y="51" fill="#F4FFF5" font-family="Arial, sans-serif" font-size="11" font-weight="800">Fly</text>
  <rect x="62" y="41" width="17" height="12" rx="6" fill="#331919"/>
  <text x="70.5" y="50" text-anchor="middle" fill="#E85A5A" font-family="Arial, sans-serif" font-size="8" font-weight="800">E</text>

  <circle cx="95" cy="47" r="10" fill="#242824"/>
  <text x="95" y="51" text-anchor="middle" fill="#AEB6AE" font-family="Arial, sans-serif" font-size="9" font-weight="800">VS</text>

  <rect x="104" y="36" width="72" height="22" rx="11" fill="url(#winnerBg)"/>
  <circle cx="117" cy="47" r="8" fill="#BDA07A"/>
  <path d="M111 49C116 42 123 43 127 48C123 47 117 47 111 49Z" fill="#654735"/>
  <text x="130" y="51" fill="#F4FFF5" font-family="Arial, sans-serif" font-size="11" font-weight="800">Dog</text>
  <rect x="152" y="41" width="18" height="12" rx="6" fill="#33260F"/>
  <text x="161" y="50" text-anchor="middle" fill="#FF9B38" font-family="Arial, sans-serif" font-size="8" font-weight="800">D</text>

  <!-- Small outcome chips -->
  <rect x="20" y="60" width="31" height="6" rx="3" fill="#243028"/>
  <rect x="20" y="60" width="21" height="6" rx="3" fill="#2EFF4A"/>
  <rect x="58" y="60" width="31" height="6" rx="3" fill="#2B2613"/>
  <rect x="96" y="60" width="31" height="6" rx="3" fill="#2A1820"/>
  <rect x="134" y="60" width="31" height="6" rx="3" fill="#2A1E12"/>
</svg>