<?xml version="1.0" encoding="UTF-8"?>
<svg xmlns="http://www.w3.org/2000/svg" xmlns:xlink="http://www.w3.org/1999/xlink" width="900pt" height="540pt" viewBox="0 0 900 540">
<path fill-rule="evenodd" fill="rgb(0%, 0%, 0%)" fill-opacity="1" d="M 782.347656 92.664062 L 117.652344 92.664062 L 135.316406 78.722656 L 154.679688 65.753906 L 165.726562 59.878906 L 178.597656 54.71875 L 194.542969 50.695312 L 215.53125 48.480469 L 684.46875 48.480469 L 705.457031 50.695312 L 721.402344 54.71875 L 734.273438 59.878906 L 745.320312 65.753906 L 764.683594 78.722656 Z M 101.144531 432.679688 L 798.855469 432.679688 L 778.039062 450.890625 L 755.3125 467.914062 L 742.679688 475.765625 L 728.128906 482.8125 L 709.824219 488.4375 L 698.3125 490.394531 L 684.46875 491.519531 L 215.53125 491.519531 L 201.6875 490.394531 L 190.175781 488.4375 L 171.871094 482.8125 L 157.320312 475.765625 L 144.6875 467.914062 L 121.960938 450.890625 Z M 101.144531 432.679688 "/>
</svg>
