<?xml version="1.0" encoding="UTF-8"?>
<svg xmlns="http://www.w3.org/2000/svg" xmlns:xlink="http://www.w3.org/1999/xlink" width="900pt" height="540pt" viewBox="0 0 900 540">
<path fill-rule="evenodd" fill="rgb(0%, 0%, 0%)" fill-opacity="1" d="M 494.578125 155.027344 L 494.371094 155.953125 L 494.765625 157.121094 L 495.71875 157.789062 L 495.730469 158.503906 L 495.050781 158.902344 L 494.984375 159.789062 L 494.0625 161.117188 L 493.679688 160.925781 L 493.59375 160.324219 L 492.320312 159.40625 L 492.039062 158.101562 L 492.09375 156.242188 L 492.328125 155.394531 L 491.933594 154.964844 L 491.726562 154.097656 L 492.5625 152.757812 L 492.738281 153.269531 L 493.300781 153.03125 L 493.816406 153.757812 L 494.355469 154.039062 Z M 485.59375 138.101562 L 485.515625 139.191406 L 484.332031 139.199219 L 484.78125 139.777344 L 484.203125 141.503906 L 483.832031 141.957031 L 481.988281 142.023438 L 480.960938 142.632812 L 479.203125 142.425781 L 476.140625 141.730469 L 475.621094 140.796875 L 473.558594 141.265625 L 473.335938 141.773438 L 472.039062 141.394531 L 470.960938 141.320312 L 469.984375 140.832031 L 470.28125 140.175781 L 470.179688 139.699219 L 470.808594 139.550781 L 471.90625 140.296875 L 472.171875 139.589844 L 474.035156 139.703125 L 475.511719 139.222656 L 476.523438 139.304688 L 477.210938 139.855469 L 477.378906 139.398438 L 476.984375 137.65625 L 477.714844 137.316406 L 478.378906 136.089844 L 479.984375 136.945312 L 481.089844 135.855469 L 481.808594 135.660156 L 483.488281 136.472656 L 484.457031 136.332031 L 485.457031 136.835938 L 485.316406 137.175781 Z M 497.519531 122.839844 L 499.480469 122.855469 L 501.546875 121.878906 L 501.820312 120.417969 L 503.351562 119.589844 L 503 118.4375 L 504.15625 118.003906 L 506.152344 117.015625 L 508.351562 117.660156 L 508.734375 118.296875 L 509.734375 117.988281 L 511.789062 118.601562 L 512.183594 119.8125 L 511.867188 120.507812 L 513.40625 122.203125 L 514.304688 122.675781 L 514.257812 123.144531 L 515.699219 123.605469 L 516.398438 124.296875 L 515.703125 124.867188 L 514.046875 124.777344 L 513.695312 125.019531 L 514.308594 125.886719 L 515.074219 127.566406 L 513.339844 127.71875 L 512.792969 128.296875 L 512.859375 129.621094 L 512.003906 129.367188 L 510.164062 129.492188 L 509.539062 128.878906 L 508.832031 129.335938 L 508.007812 128.957031 L 506.382812 128.902344 L 504.011719 128.273438 L 501.914062 128.066406 L 500.332031 128.125 L 499.292969 128.835938 L 498.324219 128.9375 L 498.148438 127.769531 L 497.378906 126.554688 L 498.542969 126.019531 L 498.429688 124.980469 L 497.746094 123.988281 Z M 456.816406 129.550781 L 458.328125 129.757812 L 460.222656 129.210938 L 461.554688 130.363281 L 462.707031 130.980469 L 462.523438 132.765625 L 461.984375 132.867188 L 461.800781 134.355469 L 459.953125 133.144531 L 458.894531 133.351562 L 457.425781 132.101562 L 456.445312 131.042969 L 455.484375 131 L 455.175781 130.070312 Z M 490.546875 146.871094 L 491.320312 146.863281 L 490.875 148.054688 L 491.988281 149.09375 L 491.773438 150.367188 L 491.277344 150.488281 L 490.894531 150.738281 L 490.238281 151.367188 L 490.03125 152.863281 L 488.054688 151.832031 L 487.164062 150.699219 L 486.304688 150.097656 L 485.253906 149.085938 L 484.734375 148.246094 L 483.609375 146.984375 L 483.980469 145.863281 L 484.789062 146.480469 L 485.210938 145.921875 L 486.203125 145.863281 L 488.066406 146.308594 L 489.535156 146.273438 Z M 498.488281 148.5625 L 499.207031 149.675781 L 500.019531 149.476562 L 501.707031 149.898438 L 504.871094 150.042969 L 505.863281 149.351562 L 508.320312 148.722656 L 509.988281 149.707031 L 511.28125 149.992188 L 510.289062 151.117188 L 509.707031 153.058594 L 510.566406 154.613281 L 508.667969 154.246094 L 506.550781 155.105469 L 506.65625 156.460938 L 504.707031 156.71875 L 503.089844 155.765625 L 501.421875 156.515625 L 499.808594 156.4375 L 499.503906 154.632812 L 498.347656 153.757812 L 498.667969 153.375 L 498.40625 153.050781 L 498.695312 152.1875 L 499.441406 151.339844 L 498.296875 150.167969 L 498.015625 149.175781 Z M 489.953125 144.042969 L 490.550781 145.085938 L 491.289062 145.855469 L 490.546875 146.871094 L 489.535156 146.273438 L 488.066406 146.308594 L 486.203125 145.863281 L 485.210938 145.921875 L 484.789062 146.480469 L 483.980469 145.863281 L 483.609375 146.984375 L 484.734375 148.246094 L 485.253906 149.085938 L 486.304688 150.097656 L 487.164062 150.699219 L 488.054688 151.832031 L 490.03125 152.863281 L 489.824219 153.324219 L 487.730469 152.320312 L 486.417969 151.339844 L 484.398438 150.535156 L 482.472656 148.539062 L 482.894531 148.335938 L 481.851562 147.199219 L 481.753906 146.289062 L 480.359375 145.863281 L 479.773438 147.027344 L 479.09375 146.125 L 479.089844 145.1875 L 479.164062 145.140625 L 480.648438 145.234375 L 481.011719 144.777344 L 481.761719 145.21875 L 482.601562 145.273438 L 482.542969 144.519531 L 483.265625 144.242188 L 483.398438 143.15625 L 485.035156 142.441406 L 485.730469 142.773438 L 487.398438 143.925781 L 489.191406 144.441406 Z M 485.457031 136.835938 L 484.457031 136.332031 L 483.488281 136.472656 L 481.808594 135.660156 L 481.089844 135.855469 L 479.984375 136.945312 L 478.378906 136.089844 L 477.132812 134.945312 L 476.035156 134.308594 L 475.75 133.1875 L 475.339844 132.402344 L 476.8125 131.824219 L 477.539062 131.167969 L 478.984375 130.65625 L 479.46875 130.152344 L 480.035156 130.457031 L 480.933594 130.179688 L 481.972656 131.03125 L 483.535156 131.261719 L 483.460938 131.988281 L 484.625 132.535156 L 484.882812 131.851562 L 486.324219 132.148438 L 486.589844 132.976562 L 488.144531 133.136719 L 489.210938 134.441406 L 488.59375 134.445312 L 488.308594 134.925781 L 487.839844 135.039062 L 487.753906 135.644531 L 487.367188 135.773438 L 487.328125 136.019531 L 486.640625 136.292969 L 485.710938 136.25 Z M 475.386719 118.453125 L 474.320312 120.539062 L 472.128906 119.082031 L 471.789062 118.015625 L 474.664062 117.164062 Z M 471.703125 116.273438 L 471.273438 117.242188 L 470.664062 116.960938 L 469.324219 118.8125 L 469.933594 120.066406 L 468.667969 120.460938 L 467.132812 120.121094 L 466.253906 118.6875 L 466.082031 116.066406 L 466.378906 115.378906 L 466.914062 114.613281 L 468.648438 114.453125 L 469.304688 113.753906 L 470.851562 113.035156 L 470.863281 114.34375 L 470.324219 115.171875 L 470.601562 115.886719 Z M 497.898438 112.875 L 497.917969 111.382812 L 497.242188 111.703125 L 495.875 110.804688 L 495.511719 109.359375 L 497.878906 108.660156 L 500.273438 108.292969 L 502.449219 108.707031 L 504.445312 108.632812 L 504.808594 109.074219 L 503.652344 110.523438 L 504.601562 112.878906 L 503.882812 113.683594 L 502.253906 113.679688 L 500.417969 112.738281 L 499.511719 112.429688 Z M 501.382812 85.445312 L 501.445312 87.078125 L 504.535156 88.640625 L 503.210938 90.421875 L 505.886719 93.128906 L 505.039062 95.183594 L 507.070312 96.980469 L 506.605469 98.5625 L 509.726562 100.234375 L 509.253906 101.484375 L 507.75 102.90625 L 504.195312 106.066406 L 500.71875 106.265625 L 497.457031 107.179688 L 494.375 107.707031 L 493.074219 106.34375 L 491.097656 105.527344 L 491.207031 103.089844 L 489.992188 100.871094 L 490.707031 99.445312 L 492.203125 97.917969 L 496.089844 95.296875 L 497.25 94.792969 L 496.886719 93.777344 L 494.132812 92.648438 L 493.363281 91.722656 L 492.734375 88.082031 L 489.65625 86.488281 L 487.085938 85.351562 L 488.070312 84.738281 L 490.257812 85.964844 L 492.589844 85.851562 L 494.621094 86.414062 L 496.152344 85.382812 L 496.71875 83.6875 L 499.335938 82.90625 L 501.808594 83.820312 Z M 470.667969 154.214844 L 470.027344 156.320312 L 469.023438 155.765625 L 468.460938 153.933594 L 468.867188 152.921875 L 470.21875 151.882812 Z M 457.425781 132.101562 L 458.894531 133.351562 L 459.953125 133.144531 L 461.800781 134.355469 L 462.269531 134.585938 L 462.871094 134.527344 L 463.871094 135.226562 L 466.890625 135.714844 L 465.898438 137.539062 L 465.695312 139.445312 L 465.132812 139.902344 L 464.167969 139.65625 L 464.253906 140.335938 L 462.753906 141.84375 L 462.753906 143.0625 L 463.753906 142.640625 L 464.515625 143.820312 L 464.449219 144.582031 L 465.101562 145.59375 L 464.386719 146.414062 L 464.996094 148.507812 L 466.167969 148.851562 L 465.957031 150.027344 L 464.050781 151.5625 L 459.792969 150.828125 L 456.671875 151.707031 L 456.445312 153.34375 L 453.945312 153.695312 L 451.511719 152.464844 L 450.730469 153.054688 L 446.765625 151.820312 L 445.914062 150.761719 L 447.035156 149.136719 L 447.46875 143.753906 L 445.304688 140.933594 L 443.769531 139.578125 L 440.574219 138.550781 L 440.402344 136.601562 L 443.121094 136.023438 L 446.621094 136.710938 L 445.984375 133.699219 L 447.941406 134.839844 L 452.773438 132.769531 L 453.378906 130.601562 L 455.175781 130.070312 L 455.484375 131 L 456.445312 131.042969 Z M 469.933594 120.066406 L 470.023438 121.066406 L 472.09375 121.667969 L 472.121094 122.589844 L 474.148438 122.101562 L 475.238281 121.390625 L 477.585938 122.414062 L 478.601562 123.242188 L 479.171875 124.566406 L 478.652344 125.261719 L 479.460938 126.195312 L 480.066406 127.597656 L 479.972656 128.5 L 480.933594 130.179688 L 480.035156 130.457031 L 479.46875 130.152344 L 478.984375 130.65625 L 477.539062 131.167969 L 476.8125 131.824219 L 475.339844 132.402344 L 475.75 133.1875 L 476.035156 134.308594 L 477.132812 134.945312 L 478.378906 136.089844 L 477.714844 137.316406 L 476.984375 137.65625 L 477.378906 139.398438 L 477.210938 139.855469 L 476.523438 139.304688 L 475.511719 139.222656 L 474.035156 139.703125 L 472.171875 139.589844 L 471.90625 140.296875 L 470.808594 139.550781 L 470.179688 139.699219 L 467.894531 138.882812 L 467.484375 139.464844 L 465.695312 139.445312 L 465.898438 137.539062 L 466.890625 135.714844 L 463.871094 135.226562 L 462.871094 134.527344 L 462.953125 133.367188 L 462.523438 132.765625 L 462.707031 130.980469 L 462.28125 128.222656 L 463.511719 128.21875 L 463.996094 127.230469 L 464.421875 124.839844 L 464.011719 123.957031 L 464.390625 123.40625 L 466.078125 123.265625 L 466.476562 123.839844 L 467.796875 122.558594 L 467.289062 121.585938 L 467.132812 120.121094 L 468.667969 120.460938 Z M 502.65625 171.875 L 503.9375 172.800781 L 505.660156 172.644531 L 507.328125 172.839844 L 507.3125 173.316406 L 508.5 172.988281 L 508.285156 173.800781 L 505.09375 174.035156 L 505.082031 173.578125 L 502.328125 173.042969 Z M 507.675781 155.824219 L 507.167969 157.53125 L 506.679688 157.839844 L 505.347656 157.761719 L 504.1875 157.503906 L 501.617188 158.210938 L 503.257812 159.75 L 502.1875 160.195312 L 500.96875 160.195312 L 499.703125 158.789062 L 499.339844 159.390625 L 499.960938 161.023438 L 501.15625 162.308594 L 500.375 162.90625 L 501.699219 164.171875 L 502.847656 164.964844 L 503.003906 166.515625 L 500.910156 165.789062 L 501.667969 167.1875 L 500.285156 167.476562 L 501.300781 169.902344 L 499.832031 169.9375 L 497.933594 168.742188 L 496.953125 166.542969 L 496.441406 164.71875 L 495.496094 163.457031 L 494.265625 161.894531 L 494.0625 161.117188 L 494.984375 159.789062 L 495.050781 158.902344 L 495.730469 158.503906 L 495.71875 157.789062 L 497.121094 157.546875 L 497.902344 156.949219 L 499.085938 157.003906 L 499.402344 156.527344 L 499.808594 156.4375 L 501.421875 156.515625 L 503.089844 155.765625 L 504.707031 156.71875 L 506.65625 156.460938 L 506.550781 155.105469 Z M 484.203125 141.503906 L 484.78125 139.777344 L 484.332031 139.199219 L 485.515625 139.191406 L 485.59375 138.101562 L 486.714844 138.785156 L 487.511719 139.074219 L 489.246094 138.746094 L 489.371094 138.210938 L 490.199219 138.132812 L 491.183594 137.71875 L 491.425781 137.886719 L 492.378906 137.554688 L 492.8125 136.925781 L 493.484375 136.765625 L 495.800781 137.574219 L 496.21875 137.300781 L 497.453125 138.027344 L 497.671875 138.746094 L 496.445312 139.304688 L 495.621094 141.121094 L 494.507812 142.945312 L 492.851562 143.453125 L 491.519531 143.332031 L 489.953125 144.042969 L 489.191406 144.441406 L 487.398438 143.925781 L 485.730469 142.773438 L 485.035156 142.441406 L 484.5625 141.535156 Z M 423.316406 91.578125 L 422.742188 93.121094 L 424.683594 94.757812 L 422.089844 96.59375 L 416.5 98.257812 L 414.824219 98.699219 L 412.386719 98.339844 L 407.246094 97.574219 L 409.242188 96.503906 L 405.351562 95.324219 L 408.71875 94.855469 L 408.742188 94.152344 L 404.933594 93.59375 L 406.429688 92.039062 L 409.273438 91.6875 L 411.921875 93.304688 L 414.898438 92.007812 L 417.136719 92.679688 L 420.285156 91.410156 Z M 437.453125 122.953125 L 437.730469 124.816406 L 436.117188 127.148438 L 432.425781 128.699219 L 429.539062 128.304688 L 431.324219 125.566406 L 430.390625 122.917969 L 433.230469 120.890625 L 434.800781 119.683594 L 435.160156 121.066406 L 434.691406 122.457031 L 435.945312 122.417969 Z M 484.140625 164.933594 L 483.453125 167.09375 L 483.828125 167.945312 L 483.429688 169.359375 L 481.691406 168.324219 L 480.554688 168.027344 L 477.414062 166.632812 L 477.664062 165.222656 L 480.25 165.472656 L 482.480469 165.175781 Z M 470 156.785156 L 471.371094 158.722656 L 471.183594 162.34375 L 470.183594 162.167969 L 469.316406 163.082031 L 468.464844 162.355469 L 468.28125 159.054688 L 467.738281 157.496094 L 468.9375 157.632812 Z M 476.140625 141.730469 L 479.203125 142.425781 L 479.046875 143.75 L 479.621094 144.898438 L 477.910156 144.503906 L 476.230469 145.460938 L 476.414062 146.804688 L 476.191406 147.574219 L 476.960938 148.949219 L 479.042969 150.316406 L 480.242188 152.5625 L 482.765625 154.753906 L 484.460938 154.738281 L 485.023438 155.339844 L 484.449219 155.882812 L 486.453125 156.867188 L 488.097656 157.695312 L 490.054688 159.117188 L 490.316406 159.628906 L 489.96875 160.609375 L 488.679688 159.332031 L 486.757812 158.882812 L 485.941406 160.648438 L 487.582031 161.664062 L 487.40625 163.09375 L 486.496094 163.257812 L 485.453125 165.609375 L 484.546875 165.820312 L 484.511719 164.980469 L 484.882812 163.507812 L 485.328125 162.925781 L 484.382812 161.335938 L 483.644531 159.957031 L 482.71875 159.617188 L 482.015625 158.4375 L 480.589844 157.941406 L 479.59375 156.84375 L 477.980469 156.667969 L 476.226562 155.4375 L 474.171875 153.664062 L 472.640625 152.097656 L 471.863281 149.414062 L 470.785156 149.101562 L 469.011719 148.207031 L 468.039062 148.570312 L 466.839844 149.828125 L 465.957031 150.027344 L 466.167969 148.851562 L 464.996094 148.507812 L 464.386719 146.414062 L 465.101562 145.59375 L 464.449219 144.582031 L 464.515625 143.820312 L 465.445312 144.398438 L 466.464844 144.269531 L 467.621094 143.355469 L 468.003906 143.78125 L 469.011719 143.695312 L 469.429688 142.609375 L 471.007812 142.949219 L 471.921875 142.496094 L 472.039062 141.394531 L 473.335938 141.773438 L 473.558594 141.265625 L 475.621094 140.796875 Z M 494.90625 154.492188 L 494.851562 155.046875 L 494.578125 155.027344 L 494.355469 154.039062 L 493.816406 153.757812 L 493.300781 153.03125 L 493.660156 152.421875 L 494.160156 152.226562 L 494.386719 151.324219 L 494.757812 151.171875 L 495.09375 151.554688 L 495.511719 151.726562 L 495.828125 152.15625 L 496.191406 152.285156 L 496.652344 152.789062 L 496.957031 152.773438 L 496.769531 153.4375 L 496.539062 153.757812 L 496.625 153.964844 L 496.152344 154.070312 Z M 492 117.371094 L 491.847656 115.445312 L 492.632812 113.84375 L 494.386719 112.976562 L 496.199219 114.875 L 497.78125 114.828125 L 497.898438 112.875 L 499.511719 112.429688 L 500.417969 112.738281 L 502.253906 113.679688 L 503.882812 113.683594 L 504.925781 114.269531 L 505.28125 115.507812 L 506.152344 117.015625 L 504.15625 118.003906 L 503 118.4375 L 500.90625 117.191406 L 499.824219 117.027344 L 499.472656 116.496094 L 497.550781 116.75 L 494.191406 116.585938 Z M 495.871094 121.761719 L 495.632812 121.101562 L 495.761719 120.394531 L 494.824219 119.984375 L 492.671875 119.53125 L 492 117.371094 L 494.191406 116.585938 L 497.550781 116.75 L 499.472656 116.496094 L 499.824219 117.027344 L 500.90625 117.191406 L 503 118.4375 L 503.351562 119.589844 L 501.820312 120.417969 L 501.546875 121.878906 L 499.480469 122.855469 L 497.519531 122.839844 L 496.941406 122.039062 Z M 462.523438 132.765625 L 462.953125 133.367188 L 462.871094 134.527344 L 462.269531 134.585938 L 461.800781 134.355469 L 461.984375 132.867188 Z M 494.578125 155.027344 L 494.851562 155.046875 L 494.90625 154.492188 L 496.152344 154.070312 L 496.625 153.964844 L 497.347656 153.804688 L 498.347656 153.757812 L 499.503906 154.632812 L 499.808594 156.4375 L 499.402344 156.527344 L 499.085938 157.003906 L 497.902344 156.949219 L 497.121094 157.546875 L 495.71875 157.789062 L 494.765625 157.121094 L 494.371094 155.953125 Z M 482.34375 171.46875 L 482.273438 171.558594 L 482.058594 171.554688 L 481.867188 171.414062 L 481.851562 171.121094 L 482.070312 171.179688 L 482.277344 171.375 Z M 481.761719 170.988281 L 481.632812 171.027344 L 481.496094 170.945312 L 481.464844 170.898438 L 481.644531 170.855469 L 481.734375 170.890625 L 481.777344 170.964844 Z M 505.773438 137.839844 L 506.222656 137.445312 L 507.582031 137.183594 L 509.230469 138.015625 L 510.105469 138.113281 L 511.144531 138.832031 L 511.109375 139.738281 L 511.929688 140.179688 L 512.378906 141.300781 L 513.203125 141.980469 L 513.101562 142.382812 L 513.53125 142.65625 L 512.996094 142.855469 L 511.738281 142.773438 L 511.484375 142.402344 L 511.070312 142.617188 L 511.277344 143.097656 L 510.800781 143.957031 L 510.539062 144.882812 L 510.039062 145.175781 L 509.515625 143.945312 L 509.601562 142.796875 L 509.394531 141.617188 L 507.988281 140.019531 L 507.1875 138.890625 L 506.441406 138.101562 Z M 492.738281 153.269531 L 492.5625 152.757812 L 491.726562 154.097656 L 491.933594 154.964844 L 491.464844 154.753906 L 490.796875 153.867188 L 489.824219 153.324219 L 490.03125 152.863281 L 490.238281 151.367188 L 490.894531 150.738281 L 491.277344 150.488281 L 491.878906 150.953125 L 492.222656 151.332031 L 492.953125 151.625 L 493.816406 152.1875 L 493.660156 152.421875 L 493.300781 153.03125 Z M 462.324219 123.882812 L 464.011719 123.957031 L 464.421875 124.839844 L 463.996094 127.230469 L 463.511719 128.21875 L 462.28125 128.222656 L 462.707031 130.980469 L 461.554688 130.363281 L 460.222656 129.210938 L 458.328125 129.757812 L 456.816406 129.550781 L 457.867188 128.828125 L 459.574219 124.976562 Z M 499.625 80.570312 L 505.519531 82.242188 L 503.367188 82.855469 L 505.640625 84.304688 L 502.789062 85.234375 L 501.382812 85.445312 L 501.808594 83.820312 L 499.335938 82.90625 L 496.71875 83.6875 L 496.152344 85.382812 L 494.621094 86.414062 L 492.589844 85.851562 L 490.257812 85.964844 L 488.070312 84.738281 L 487.085938 85.351562 L 485.988281 85.445312 L 485.9375 86.980469 L 482.484375 86.605469 L 482.164062 87.910156 L 480.421875 87.898438 L 479.410156 89.574219 L 477.847656 92.203125 L 475.285156 95.574219 L 476.039062 96.398438 L 475.472656 97.355469 L 473.609375 97.316406 L 472.5625 99.597656 L 472.921875 102.855469 L 474.238281 104.105469 L 473.816406 107.027344 L 472.320312 108.742188 L 471.554688 110.191406 L 470.152344 108.648438 L 466.449219 111.558594 L 463.859375 112.152344 L 461.097656 110.867188 L 460.3125 108.164062 L 459.527344 102.433594 L 461.226562 100.851562 L 466.132812 98.804688 L 469.6875 96.300781 L 472.839844 92.953125 L 476.828125 88.378906 L 479.671875 86.617188 L 484.238281 83.703125 L 488 82.695312 L 490.945312 82.820312 L 493.3125 80.921875 L 496.550781 81.023438 Z M 490.632812 66.054688 L 487.136719 66.894531 L 484.132812 66.417969 L 485.164062 65.886719 L 484.042969 65.234375 L 487.34375 64.828125 L 488.160156 65.59375 Z M 479.328125 62.351562 L 484.941406 63.824219 L 481.007812 64.613281 L 480.367188 66.109375 L 478.988281 66.496094 L 478.472656 68.222656 L 476.480469 68.304688 L 472.742188 67.03125 L 474.140625 66.296875 L 471.601562 65.703125 L 468.222656 63.996094 L 466.792969 62.449219 L 471.078125 61.753906 L 472.054688 62.433594 L 474.339844 62.40625 L 474.839844 61.742188 L 477.179688 61.675781 Z M 490.515625 60.992188 L 493.835938 61.664062 L 491.753906 62.710938 L 487.136719 62.945312 L 482.3125 62.617188 L 481.914062 62.078125 L 479.605469 62.046875 L 477.683594 61.164062 L 482.484375 60.632812 L 484.902344 61.089844 L 486.367188 60.519531 Z M 480.933594 130.179688 L 479.972656 128.5 L 480.066406 127.597656 L 479.460938 126.195312 L 478.652344 125.261719 L 479.171875 124.566406 L 478.601562 123.242188 L 479.925781 122.480469 L 482.980469 121.28125 L 485.4375 120.40625 L 487.488281 120.84375 L 487.699219 121.472656 L 489.648438 121.507812 L 492.164062 121.800781 L 495.871094 121.761719 L 496.941406 122.039062 L 497.519531 122.839844 L 497.746094 123.988281 L 498.429688 124.980469 L 498.542969 126.019531 L 497.378906 126.554688 L 498.148438 127.769531 L 498.324219 128.9375 L 499.621094 131.242188 L 499.484375 131.980469 L 498.488281 132.289062 L 496.839844 134.496094 L 497.5 135.6875 L 497.03125 135.535156 L 494.949219 134.511719 L 493.488281 134.886719 L 492.476562 134.617188 L 491.300781 135.183594 L 490.167969 134.242188 L 489.34375 134.601562 L 489.210938 134.441406 L 488.144531 133.136719 L 486.589844 132.976562 L 486.324219 132.148438 L 484.882812 131.851562 L 484.625 132.535156 L 483.460938 131.988281 L 483.535156 131.261719 L 481.972656 131.03125 Z M 430.441406 154.957031 L 431.25 154.265625 L 432.144531 153.867188 L 432.648438 155.203125 L 433.925781 155.199219 L 434.304688 154.855469 L 435.566406 154.949219 L 436.136719 156.316406 L 435.117188 157.054688 L 435.035156 159.1875 L 434.671875 159.585938 L 434.554688 160.878906 L 433.601562 161.105469 L 434.4375 162.746094 L 433.789062 164.546875 L 434.527344 165.363281 L 434.207031 166.105469 L 433.367188 167.136719 L 433.527344 168.046875 L 432.621094 168.757812 L 431.464844 168.371094 L 430.316406 168.675781 L 430.714844 166.527344 L 430.558594 164.839844 L 429.582031 164.585938 L 429.089844 163.546875 L 429.320312 161.753906 L 430.226562 160.761719 L 430.414062 159.65625 L 430.921875 158.011719 L 430.910156 156.855469 L 430.507812 155.875 Z M 497.671875 138.746094 L 498.519531 138.171875 L 499.847656 138.46875 L 501.195312 138.476562 L 502.242188 139.132812 L 502.914062 138.722656 L 504.433594 138.464844 L 504.886719 137.839844 L 505.773438 137.839844 L 506.441406 138.101562 L 507.1875 138.890625 L 507.988281 140.019531 L 509.394531 141.617188 L 509.601562 142.796875 L 509.515625 143.945312 L 510.039062 145.175781 L 511.046875 145.671875 L 511.992188 145.238281 L 513.015625 145.699219 L 513.148438 146.398438 L 512.183594 146.976562 L 511.503906 146.726562 L 511.28125 149.992188 L 509.988281 149.707031 L 508.320312 148.722656 L 505.863281 149.351562 L 504.871094 150.042969 L 501.707031 149.898438 L 500.019531 149.476562 L 499.207031 149.675781 L 498.488281 148.5625 L 498.054688 148.089844 L 498.507812 147.632812 L 497.953125 147.296875 L 497.335938 147.902344 L 496.023438 147.117188 L 495.757812 146.003906 L 494.40625 145.367188 L 494.09375 144.511719 L 492.851562 143.453125 L 494.507812 142.945312 L 495.621094 141.121094 L 496.445312 139.304688 Z M 489.210938 134.441406 L 489.34375 134.601562 L 490.167969 134.242188 L 491.300781 135.183594 L 492.476562 134.617188 L 493.488281 134.886719 L 494.949219 134.511719 L 497.03125 135.535156 L 496.523438 136.226562 L 496.21875 137.300781 L 495.800781 137.574219 L 493.484375 136.765625 L 492.8125 136.925781 L 492.378906 137.554688 L 491.425781 137.886719 L 491.183594 137.71875 L 490.199219 138.132812 L 489.371094 138.210938 L 489.246094 138.746094 L 487.511719 139.074219 L 486.714844 138.785156 L 485.59375 138.101562 L 485.316406 137.175781 L 485.457031 136.835938 L 485.710938 136.25 L 486.640625 136.292969 L 487.328125 136.019531 L 487.367188 135.773438 L 487.753906 135.644531 L 487.839844 135.039062 L 488.308594 134.925781 L 488.59375 134.445312 Z M 479.203125 142.425781 L 480.960938 142.632812 L 481.988281 142.023438 L 483.832031 141.957031 L 484.203125 141.503906 L 484.5625 141.535156 L 485.035156 142.441406 L 483.398438 143.15625 L 483.265625 144.242188 L 482.542969 144.519531 L 482.601562 145.273438 L 481.761719 145.21875 L 481.011719 144.777344 L 480.648438 145.234375 L 479.164062 145.140625 L 479.621094 144.898438 L 479.046875 143.75 Z M 430.441406 154.957031 L 430.617188 153.019531 L 429.777344 151.839844 L 432.882812 149.878906 L 435.496094 150.371094 L 438.378906 150.351562 L 440.65625 150.816406 L 442.441406 150.671875 L 445.914062 150.761719 L 446.765625 151.820312 L 450.730469 153.054688 L 451.511719 152.464844 L 453.945312 153.695312 L 456.445312 153.34375 L 456.578125 154.925781 L 454.542969 156.742188 L 451.761719 157.320312 L 451.570312 158.238281 L 450.234375 159.75 L 449.390625 161.980469 L 450.246094 163.542969 L 448.972656 164.765625 L 448.492188 166.550781 L 446.824219 167.097656 L 445.25 169.210938 L 442.4375 169.25 L 440.328125 169.199219 L 438.929688 170.167969 L 438.0625 171.207031 L 436.980469 170.980469 L 436.179688 170.050781 L 435.582031 168.472656 L 433.527344 168.046875 L 433.367188 167.136719 L 434.207031 166.105469 L 434.527344 165.363281 L 433.789062 164.546875 L 434.4375 162.746094 L 433.601562 161.105469 L 434.554688 160.878906 L 434.671875 159.585938 L 435.035156 159.1875 L 435.117188 157.054688 L 436.136719 156.316406 L 435.566406 154.949219 L 434.304688 154.855469 L 433.925781 155.199219 L 432.648438 155.203125 L 432.144531 153.867188 L 431.25 154.265625 Z M 491.054688 93.324219 L 489.492188 95 L 489.988281 96.476562 L 487.257812 98.425781 L 483.855469 100.523438 L 482.839844 103.988281 L 484.390625 105.734375 L 486.390625 107.117188 L 484.90625 109.945312 L 482.929688 110.535156 L 482.578125 114.789062 L 481.660156 117.183594 L 479.222656 116.933594 L 478.25 118.972656 L 475.9375 119.089844 L 475.136719 116.664062 L 473.28125 113.769531 L 471.554688 110.191406 L 472.320312 108.742188 L 473.816406 107.027344 L 474.238281 104.105469 L 472.921875 102.855469 L 472.5625 99.597656 L 473.609375 97.316406 L 475.472656 97.355469 L 476.039062 96.398438 L 475.285156 95.574219 L 477.847656 92.203125 L 479.410156 89.574219 L 480.421875 87.898438 L 482.164062 87.910156 L 482.484375 86.605469 L 485.9375 86.980469 L 485.988281 85.445312 L 487.085938 85.351562 L 489.65625 86.488281 L 492.734375 88.082031 L 493.363281 91.722656 L 494.132812 92.648438 Z M 483.710938 113.910156 L 484.019531 114.0625 L 482.742188 116.992188 L 482.523438 116.023438 Z M 488.089844 112.457031 L 487.082031 113.238281 L 487.179688 113.761719 L 487.515625 113.765625 L 487.449219 113.949219 L 486.957031 114.113281 L 487.015625 114.371094 L 486.546875 114.570312 L 486.316406 115.078125 L 485.898438 115.171875 L 486.007812 114.613281 L 485.738281 114.210938 L 485.867188 113.886719 L 485.710938 113.503906 L 486.726562 112.53125 L 487.46875 112.5 L 487.582031 112.367188 L 488.113281 112.359375 Z M 489.199219 97.902344 L 489.609375 97.890625 L 489.472656 98.164062 L 489.238281 98.5 L 488.992188 98.46875 L 489.183594 98.167969 L 489.125 98.011719 Z M 470.179688 139.699219 L 470.28125 140.175781 L 469.984375 140.832031 L 470.960938 141.320312 L 472.039062 141.394531 L 471.921875 142.496094 L 471.007812 142.949219 L 469.429688 142.609375 L 469.011719 143.695312 L 468.003906 143.78125 L 467.621094 143.355469 L 466.464844 144.269531 L 465.445312 144.398438 L 464.515625 143.820312 L 463.753906 142.640625 L 462.753906 143.0625 L 462.753906 141.84375 L 464.253906 140.335938 L 464.167969 139.65625 L 465.132812 139.902344 L 465.695312 139.445312 L 467.484375 139.464844 L 467.894531 138.882812 Z M 515.074219 127.566406 L 515.855469 127.671875 L 516.277344 127.074219 L 516.917969 127.207031 L 519 126.953125 L 520.554688 128.4375 L 520.128906 128.972656 L 520.433594 129.789062 L 522.097656 129.914062 L 523.023438 131.058594 L 523.066406 131.578125 L 525.847656 132.507812 L 527.363281 132.089844 L 528.863281 133.328125 L 530.070312 133.300781 L 533.285156 134.164062 L 533.453125 134.945312 L 532.859375 136.339844 L 533.582031 137.808594 L 533.410156 138.699219 L 531.410156 138.894531 L 530.453125 139.644531 L 530.582031 140.832031 L 528.933594 141.046875 L 527.667969 141.917969 L 525.710938 142.058594 L 524.039062 143.058594 L 524.40625 144.734375 L 525.542969 145.386719 L 527.6875 145.222656 L 527.414062 146.1875 L 525.148438 146.65625 L 522.46875 148.21875 L 521.203125 147.667969 L 521.503906 146.398438 L 519.070312 145.609375 L 519.378906 145.089844 L 521.289062 144.195312 L 520.589844 143.578125 L 517.203125 142.898438 L 516.921875 141.894531 L 515.007812 142.226562 L 514.414062 143.707031 L 513.015625 145.699219 L 511.992188 145.238281 L 511.046875 145.671875 L 510.039062 145.175781 L 510.539062 144.882812 L 510.800781 143.957031 L 511.277344 143.097656 L 511.070312 142.617188 L 511.484375 142.402344 L 511.738281 142.773438 L 512.996094 142.855469 L 513.53125 142.65625 L 513.101562 142.382812 L 513.203125 141.980469 L 512.378906 141.300781 L 511.929688 140.179688 L 511.109375 139.738281 L 511.144531 138.832031 L 510.105469 138.113281 L 509.230469 138.015625 L 507.582031 137.183594 L 506.222656 137.445312 L 505.773438 137.839844 L 504.886719 137.839844 L 504.433594 138.464844 L 502.914062 138.722656 L 502.242188 139.132812 L 501.195312 138.476562 L 499.847656 138.46875 L 498.519531 138.171875 L 497.671875 138.746094 L 497.453125 138.027344 L 496.21875 137.300781 L 496.523438 136.226562 L 497.03125 135.535156 L 497.5 135.6875 L 496.839844 134.496094 L 498.488281 132.289062 L 499.484375 131.980469 L 499.621094 131.242188 L 498.324219 128.9375 L 499.292969 128.835938 L 500.332031 128.125 L 501.914062 128.066406 L 504.011719 128.273438 L 506.382812 128.902344 L 508.007812 128.957031 L 508.832031 129.335938 L 509.539062 128.878906 L 510.164062 129.492188 L 512.003906 129.367188 L 512.859375 129.621094 L 512.792969 128.296875 L 513.339844 127.71875 Z M 438.589844 121.171875 L 437.453125 122.953125 L 435.945312 122.417969 L 434.691406 122.457031 L 435.160156 121.066406 L 434.800781 119.683594 L 436.488281 119.578125 Z M 444.117188 110.746094 L 441.960938 113.484375 L 443.976562 113.136719 L 446.136719 113.152344 L 445.597656 115.222656 L 443.777344 117.515625 L 445.835938 117.679688 L 445.992188 117.949219 L 447.753906 120.992188 L 449.132812 121.40625 L 450.375 124.367188 L 450.957031 125.398438 L 453.429688 125.894531 L 453.195312 127.570312 L 452.15625 128.339844 L 452.984375 129.699219 L 451.136719 131.082031 L 448.375 131.054688 L 444.851562 131.78125 L 443.894531 131.261719 L 442.507812 132.5 L 440.597656 132.199219 L 439.121094 133.210938 L 438.03125 132.683594 L 441.128906 129.910156 L 442.980469 129.339844 L 442.964844 129.339844 L 439.761719 128.898438 L 439.210938 127.855469 L 441.367188 127.042969 L 440.28125 125.632812 L 440.707031 123.925781 L 443.71875 124.160156 L 443.722656 124.160156 L 444.042969 122.648438 L 442.71875 121.054688 L 442.6875 121.019531 L 440.253906 120.5625 L 439.792969 119.863281 L 440.550781 118.710938 L 439.914062 118.003906 L 438.800781 119.222656 L 438.757812 116.746094 L 437.796875 115.441406 L 438.601562 112.8125 L 440.191406 110.761719 L 441.75 110.960938 Z M 444.117188 110.746094 "/>
</svg>
