<?xml version="1.0" encoding="UTF-8"?>
<svg xmlns="http://www.w3.org/2000/svg" xmlns:xlink="http://www.w3.org/1999/xlink" width="900pt" height="540pt" viewBox="0 0 900 540">
<path fill-rule="evenodd" fill="rgb(0%, 0%, 0%)" fill-opacity="1" d="M 664.328125 209.53125 L 664.605469 211.503906 L 663.730469 211.089844 L 664.234375 213.304688 L 663.347656 211.867188 L 662.984375 210.464844 L 662.328125 209.140625 L 661.089844 207.535156 L 658.945312 207.425781 L 659.347656 208.5625 L 658.871094 210.09375 L 657.796875 209.535156 L 657.539062 210.039062 L 656.835938 209.738281 L 655.902344 209.492188 L 655.171875 207.222656 L 654.023438 205.152344 L 654.125 203.492188 L 652.578125 202.753906 L 652.90625 201.75 L 654.15625 200.722656 L 652.226562 199.261719 L 652.679688 197.390625 L 654.722656 198.582031 L 655.84375 198.71875 L 656.410156 200.636719 L 658.664062 201.011719 L 660.789062 200.972656 L 662.203125 201.441406 L 661.574219 203.777344 L 660.574219 203.933594 L 660.144531 205.503906 L 661.65625 206.929688 L 661.722656 205.171875 L 662.359375 205.160156 Z M 659.097656 193.738281 L 660.210938 194.617188 L 660.402344 196.3125 L 658.554688 196.394531 L 656.585938 196.207031 L 655.234375 196.640625 L 652.949219 195.59375 L 652.789062 195.039062 L 653.878906 192.988281 L 654.960938 192.289062 L 656.726562 192.929688 L 657.941406 192.996094 Z M 623.074219 172.453125 L 626.222656 175.679688 L 626.507812 177.925781 L 627.714844 179.335938 L 627.949219 180.742188 L 626.257812 180.375 L 627.535156 183.410156 L 630.113281 185.15625 L 633.65625 187.085938 L 632.472656 188.335938 L 632.09375 190.917969 L 634.5 191.960938 L 636.90625 193.3125 L 640.175781 194.859375 L 643.371094 195.21875 L 644.957031 196.621094 L 646.773438 196.882812 L 649.648438 197.523438 L 651.546875 197.480469 L 651.597656 196.386719 L 650.949219 194.636719 L 650.882812 193.449219 L 652.15625 192.867188 L 652.789062 195.039062 L 652.949219 195.59375 L 655.234375 196.640625 L 656.585938 196.207031 L 658.554688 196.394531 L 660.402344 196.3125 L 660.210938 194.617188 L 659.097656 193.738281 L 660.863281 193.390625 L 662.488281 191.339844 L 664.707031 189.585938 L 666.769531 190.261719 L 668.117188 189.101562 L 669.582031 190.816406 L 669.082031 191.972656 L 671.632812 192.386719 L 672.039062 193.433594 L 671.355469 193.9375 L 671.917969 195.632812 L 670.175781 195.136719 L 667.625 197.042969 L 668.019531 198.617188 L 667.21875 200.929688 L 667.363281 202.273438 L 666.761719 204.546875 L 664.847656 203.917969 L 665.273438 206.769531 L 664.914062 207.707031 L 665.359375 208.878906 L 664.328125 209.53125 L 662.359375 205.160156 L 661.722656 205.171875 L 661.65625 206.929688 L 660.144531 205.503906 L 660.574219 203.933594 L 661.574219 203.777344 L 662.203125 201.441406 L 660.789062 200.972656 L 658.664062 201.011719 L 656.410156 200.636719 L 655.84375 198.71875 L 654.722656 198.582031 L 652.679688 197.390625 L 652.226562 199.261719 L 654.15625 200.722656 L 652.90625 201.75 L 652.578125 202.753906 L 654.125 203.492188 L 654.023438 205.152344 L 655.171875 207.222656 L 655.902344 209.492188 L 655.730469 210.496094 L 654.152344 210.460938 L 651.386719 211.03125 L 651.832031 213.101562 L 650.828125 214.730469 L 647.738281 216.582031 L 645.554688 219.820312 L 644.015625 221.554688 L 641.898438 223.351562 L 642.035156 224.617188 L 640.945312 225.292969 L 638.941406 226.277344 L 637.867188 226.421875 L 637.375 228.515625 L 638.195312 232.089844 L 638.519531 234.363281 L 637.734375 236.972656 L 638.058594 241.628906 L 636.847656 241.761719 L 635.90625 243.855469 L 636.679688 244.757812 L 634.574219 245.535156 L 633.878906 247.398438 L 632.972656 248.1875 L 630.605469 245.628906 L 629.289062 241.789062 L 628.203125 239.023438 L 627.289062 237.726562 L 625.84375 235.089844 L 624.984375 231.65625 L 624.433594 229.941406 L 621.960938 226.171875 L 620.457031 220.847656 L 619.371094 217.328125 L 618.988281 213.996094 L 618.21875 211.417969 L 615.050781 213.066406 L 613.378906 212.734375 L 609.945312 209.398438 L 610.929688 208.402344 L 610.105469 207.320312 L 607.09375 204.984375 L 608.378906 203.144531 L 613.441406 203.152344 L 612.644531 200.785156 L 611.148438 199.386719 L 610.566406 197.265625 L 608.878906 196.027344 L 610.929688 193.136719 L 613.613281 193.347656 L 615.496094 190.457031 L 616.414062 187.65625 L 618.089844 184.890625 L 617.667969 182.925781 L 619.265625 181.332031 L 617.171875 179.96875 L 616.003906 178.105469 L 614.699219 175.691406 L 615.535156 174.503906 L 619.066406 175.175781 L 621.460938 174.765625 Z M 650.882812 193.449219 L 650.949219 194.636719 L 651.597656 196.386719 L 651.546875 197.480469 L 649.648438 197.523438 L 646.773438 196.882812 L 644.957031 196.621094 L 643.371094 195.21875 L 640.175781 194.859375 L 636.90625 193.3125 L 634.5 191.960938 L 632.09375 190.917969 L 632.472656 188.335938 L 633.65625 187.085938 L 634.457031 186.425781 L 636.449219 187.273438 L 639.109375 189.070312 L 640.464844 189.464844 L 641.496094 190.792969 L 643.375 191.335938 L 645.46875 192.546875 L 648.171875 193.179688 Z M 616.0625 167.949219 L 618.003906 169.230469 L 619.160156 171.34375 L 623.074219 172.453125 L 621.460938 174.765625 L 619.066406 175.175781 L 615.535156 174.503906 L 614.699219 175.691406 L 616.003906 178.105469 L 617.171875 179.96875 L 619.265625 181.332031 L 617.667969 182.925781 L 618.089844 184.890625 L 616.414062 187.65625 L 615.496094 190.457031 L 613.613281 193.347656 L 610.929688 193.136719 L 608.878906 196.027344 L 610.566406 197.265625 L 611.148438 199.386719 L 612.644531 200.785156 L 613.441406 203.152344 L 608.378906 203.144531 L 607.09375 204.984375 L 605.3125 204.289062 L 604.359375 202.304688 L 602.296875 200.207031 L 598.140625 200.726562 L 594.417969 200.777344 L 591.234375 201.164062 L 591.679688 197.960938 L 594.78125 196.535156 L 594.414062 195.265625 L 593.257812 194.820312 L 592.84375 192.390625 L 590.488281 191.179688 L 589.324219 189.515625 L 587.984375 188.0625 L 592 189.472656 L 594.207031 189.058594 L 595.617188 189.410156 L 595.980469 188.804688 L 597.601562 189.046875 L 600.359375 187.902344 L 600.042969 185.554688 L 601.03125 183.992188 L 602.710938 184 L 602.820312 183.226562 L 604.476562 182.867188 L 605.359375 183.125 L 606.09375 182.347656 L 605.660156 180.695312 L 606.292969 179.03125 L 607.582031 178.332031 L 606.335938 176.511719 L 608.480469 176.597656 L 608.890625 175.605469 L 608.574219 174.546875 L 609.4375 173.390625 L 608.886719 172.023438 L 608.105469 170.859375 L 609.132812 169.660156 L 611.378906 169.082031 L 613.84375 168.765625 L 614.847656 168.257812 Z M 643.058594 249.398438 L 642.832031 252.25 L 641.875 253.03125 L 639.84375 253.65625 L 638.632812 251.480469 L 638.023438 247.542969 L 638.835938 243.09375 L 640.558594 244.617188 L 641.765625 246.546875 Z M 643.058594 249.398438 "/>
</svg>
