<?xml version="1.0" encoding="UTF-8"?>
<svg xmlns="http://www.w3.org/2000/svg" xmlns:xlink="http://www.w3.org/1999/xlink" width="900pt" height="540pt" viewBox="0 0 900 540">
<path fill-rule="evenodd" fill="rgb(0%, 0%, 0%)" fill-opacity="1" d="M 706.882812 218.785156 L 705.085938 220.105469 L 703.039062 219.253906 L 702.574219 216.886719 L 703.503906 215.640625 L 705.90625 214.871094 L 707.253906 214.9375 L 707.960938 215.984375 L 707.152344 217.195312 Z M 715.097656 133.742188 L 719.214844 134.589844 L 722.800781 136.480469 L 725.105469 138.992188 L 728.296875 138.992188 L 729.5 137.9375 L 732.488281 137.152344 L 732.816406 139.558594 L 732.570312 140.539062 L 733.519531 143.480469 L 733.53125 146.105469 L 730.691406 145.625 L 729.371094 146.578125 L 731.152344 148.894531 L 732.476562 152.101562 L 731.414062 152.175781 L 732.109375 153.554688 L 729.921875 151.953125 L 729.816406 153.476562 L 727.042969 154.648438 L 728.0625 156.085938 L 726.140625 155.984375 L 724.710938 155.132812 L 724.117188 157.066406 L 722.382812 158.53125 L 721.378906 160.285156 L 718.664062 161.082031 L 717.589844 162.359375 L 715.539062 163.109375 L 716.179688 161.839844 L 715.273438 160.773438 L 716.214844 158.933594 L 714.441406 157.503906 L 712.964844 158.46875 L 711.308594 160.371094 L 710.691406 162.136719 L 708.59375 162.269531 L 707.988281 163.546875 L 709.875 165.402344 L 711.851562 165.851562 L 712.402344 167.082031 L 714.457031 167.882812 L 716.164062 165.925781 L 718.546875 166.992188 L 720 167.066406 L 720.925781 168.503906 L 718.089844 169.273438 L 717.613281 170.757812 L 715.964844 172.136719 L 715.515625 174.0625 L 718.453125 175.574219 L 720.269531 178.285156 L 722.484375 180.808594 L 724.710938 182.925781 L 725.332031 184.972656 L 724.152344 185.726562 L 725.148438 187.199219 L 726.742188 188.054688 L 727.066406 190.300781 L 727.125 192.484375 L 725.921875 192.734375 L 725.082031 195.71875 L 724.179688 199.335938 L 722.859375 202.625 L 720.285156 205.167969 L 717.59375 207.488281 L 715.058594 207.804688 L 713.902344 209.027344 L 712.917969 208.132812 L 711.894531 209.503906 L 708.9375 210.882812 L 706.570312 211.304688 L 706.324219 214.210938 L 705.066406 214.371094 L 704.089844 212.375 L 704.4375 211.308594 L 701.160156 210.429688 L 700.152344 210.875 L 697.6875 210.160156 L 696.371094 209.042969 L 696.421875 207.457031 L 694.210938 206.953125 L 692.894531 205.921875 L 691.21875 207.386719 L 689.035156 207.707031 L 687.191406 207.691406 L 686.078125 208.363281 L 684.957031 208.769531 L 685.875 211.917969 L 684.628906 211.84375 L 684.304688 211.195312 L 684.03125 210.058594 L 682.476562 210.859375 L 681.382812 210.351562 L 679.480469 209.316406 L 679.734375 207.03125 L 678.171875 206.496094 L 677.136719 203.960938 L 674.796875 204.417969 L 674.429688 201.148438 L 676.125 198.847656 L 675.726562 196.574219 L 675.191406 194.460938 L 674.046875 193.804688 L 672.914062 192.179688 L 671.632812 192.386719 L 669.082031 191.972656 L 669.582031 190.816406 L 668.117188 189.101562 L 666.769531 190.261719 L 664.707031 189.585938 L 662.488281 191.339844 L 660.863281 193.390625 L 659.097656 193.738281 L 657.941406 192.996094 L 656.726562 192.929688 L 654.960938 192.289062 L 653.878906 192.988281 L 652.789062 195.039062 L 652.15625 192.867188 L 650.882812 193.449219 L 648.171875 193.179688 L 645.46875 192.546875 L 643.375 191.335938 L 641.496094 190.792969 L 640.464844 189.464844 L 639.109375 189.070312 L 636.449219 187.273438 L 634.457031 186.425781 L 633.65625 187.085938 L 630.113281 185.15625 L 627.535156 183.410156 L 626.257812 180.375 L 627.949219 180.742188 L 627.714844 179.335938 L 626.507812 177.925781 L 626.222656 175.679688 L 623.074219 172.453125 L 619.160156 171.34375 L 618.003906 169.230469 L 616.0625 167.949219 L 615.476562 167.160156 L 614.765625 165.597656 L 614.578125 164.53125 L 613.085938 163.90625 L 612.433594 164.183594 L 611.242188 161.648438 L 611.707031 161.019531 L 611.242188 160.378906 L 612.984375 159.089844 L 614.347656 158.554688 L 616.753906 158.921875 L 617.097656 157.175781 L 619.792969 156.851562 L 620.257812 155.769531 L 623.234375 154.292969 L 623.351562 153.679688 L 622.710938 152.128906 L 623.96875 151.421875 L 620.546875 146.714844 L 624.414062 145.636719 L 625.300781 145.035156 L 625.144531 140.222656 L 629.644531 141.105469 L 630.371094 139.894531 L 629.460938 137.210938 L 631.101562 136.964844 L 631.996094 135.191406 L 632.722656 134.972656 L 634.007812 136.828125 L 636.324219 138.246094 L 639.710938 139.25 L 642.011719 141.40625 L 642.394531 144.550781 L 643.597656 145.71875 L 646.300781 146.183594 L 649.3125 146.558594 L 652.527344 148.246094 L 653.964844 148.546875 L 655.875 151.042969 L 657.734375 152.65625 L 660.085938 152.59375 L 664.765625 153.203125 L 667.492188 152.824219 L 669.777344 153.230469 L 673.609375 154.882812 L 676.226562 154.882812 L 677.511719 155.726562 L 679.460938 154.265625 L 682.574219 153.320312 L 685.765625 153.21875 L 687.886719 152.261719 L 688.8125 150.808594 L 689.917969 149.894531 L 689.179688 149 L 688.035156 147.960938 L 688.371094 146.21875 L 689.683594 146.460938 L 692.125 147.007812 L 693.585938 145.574219 L 696.332031 144.53125 L 697.019531 142.75 L 698.128906 141.984375 L 701.019531 141.628906 L 702.839844 141.933594 L 702.582031 140.980469 L 699.707031 139.105469 L 697.578125 138.25 L 696.476562 139.238281 L 694.191406 138.820312 L 693.171875 139.160156 L 692.078125 138.066406 L 692.171875 135.402344 L 692.117188 133.402344 L 695.152344 134.402344 L 697.15625 132.726562 L 696.488281 131.5625 L 696.746094 128.769531 L 697.394531 127.925781 L 696.507812 126.476562 L 695.015625 125.859375 L 695.914062 124.558594 L 698.148438 124.089844 L 700.792969 124.019531 L 704.324219 124.792969 L 706.714844 125.753906 L 709.621094 128.398438 L 711.085938 129.53125 L 712.785156 131.148438 Z M 750.855469 176.15625 L 751.511719 177.101562 L 750.886719 178.765625 L 749.632812 177.882812 L 748.726562 178.523438 L 748.730469 180.136719 L 746.976562 179.351562 L 746.507812 178.042969 L 747.121094 176.402344 L 748.515625 176.71875 L 748.984375 175.5625 Z M 761.476562 167.925781 L 761.617188 170.117188 L 762.605469 171.496094 L 762.273438 173.433594 L 759.964844 174.726562 L 756.113281 174.898438 L 754.171875 178.039062 L 752.257812 176.980469 L 751.355469 174.925781 L 747.714844 175.53125 L 745.570312 176.828125 L 742.96875 176.882812 L 746 178.90625 L 746.183594 183.59375 L 745.121094 184.753906 L 743.664062 183.679688 L 743.34375 181.195312 L 741.636719 180.394531 L 740.042969 178.507812 L 741.847656 177.65625 L 742.367188 175.925781 L 744.0625 174.503906 L 744.949219 172.621094 L 749.039062 171.800781 L 751.648438 172.363281 L 751.882812 167.476562 L 753.929688 168.789062 L 755.949219 166.042969 L 756.710938 164.976562 L 756.507812 161.625 L 754.628906 158.550781 L 754.675781 156.828125 L 756.726562 156.324219 L 759.832031 160.113281 L 760.855469 162.332031 L 760.136719 165.089844 Z M 758.082031 148.726562 L 759.917969 149.304688 L 760.773438 148.15625 L 762.984375 151.199219 L 760.207031 151.941406 L 759.78125 154.644531 L 755.390625 152.785156 L 755.785156 155.765625 L 753.394531 155.804688 L 751.6875 153.097656 L 751.632812 151.007812 L 753.847656 150.855469 L 752.375 147.109375 L 751.789062 145.003906 L 755.921875 147.816406 Z M 732.109375 153.554688 L 732.644531 154.03125 L 731.746094 153.871094 L 731.253906 154.792969 L 731.050781 155.71875 L 732.058594 157.679688 L 731.210938 158.28125 L 731.046875 158.765625 L 730.59375 159.570312 L 729.34375 160.019531 L 728.722656 160.753906 L 729.175781 161.941406 L 729.050781 162.242188 L 730.117188 162.6875 L 731.878906 163.890625 L 731.847656 164.554688 L 730.988281 164.734375 L 729.492188 164.867188 L 729.152344 166.105469 L 728.125 166.007812 L 728.089844 166.257812 L 726.804688 165.734375 L 726.753906 166.25 L 726.199219 166.476562 L 725.910156 165.960938 L 725.238281 165.710938 L 724.464844 165.273438 L 724.566406 164.066406 L 724.949219 163.742188 L 724.542969 163.242188 L 724.46875 161.765625 L 724.132812 161.316406 L 722.726562 161.019531 L 721.378906 160.285156 L 722.382812 158.53125 L 724.117188 157.066406 L 724.710938 155.132812 L 726.140625 155.984375 L 728.0625 156.085938 L 727.042969 154.648438 L 729.816406 153.476562 L 729.921875 151.953125 Z M 731.878906 163.890625 L 735.152344 167.128906 L 736.4375 168.90625 L 737.730469 172.074219 L 737.484375 173.585938 L 735.667969 174.117188 L 734.316406 175.257812 L 732.394531 175.492188 L 731.585938 173.992188 L 731.207031 171.929688 L 729.105469 169.070312 L 730.5625 168.605469 L 728.089844 166.257812 L 728.125 166.007812 L 729.152344 166.105469 L 729.492188 164.867188 L 730.988281 164.734375 L 731.847656 164.554688 Z M 730.136719 203.046875 L 729.789062 207.464844 L 729.300781 209.726562 L 727.570312 207.398438 L 726.839844 205.359375 L 727.550781 202.652344 L 728.871094 200.566406 L 730.125 201.386719 Z M 730.136719 203.046875 "/>
</svg>
