<?xml version="1.0" encoding="UTF-8"?>
<svg xmlns="http://www.w3.org/2000/svg" xmlns:xlink="http://www.w3.org/1999/xlink" width="900pt" height="540pt" viewBox="0 0 900 540">
<path fill-rule="evenodd" fill="rgb(0%, 0%, 0%)" fill-opacity="1" d="M 318.59375 420.492188 L 316.734375 420.621094 L 315.390625 419.710938 L 314.15625 419.640625 L 312 419.640625 L 309.964844 413.835938 L 311.160156 415.046875 L 312.847656 417 L 316.015625 418.554688 L 319.058594 419.203125 Z M 299.761719 330.566406 L 301.359375 332.554688 L 302 330.339844 L 304.648438 330.453125 L 305.089844 331.042969 L 309.855469 335.535156 L 311.789062 335.953125 L 314.84375 337.992188 L 317.339844 339.066406 L 317.816406 340.285156 L 316.09375 344.476562 L 318.496094 345.226562 L 321.113281 345.648438 L 322.859375 345.203125 L 324.671875 343.09375 L 324.757812 340.660156 L 325.832031 340.128906 L 327.164062 341.722656 L 327.378906 343.921875 L 325.640625 345.445312 L 324.25 346.566406 L 322.035156 349.246094 L 319.535156 353.003906 L 319.300781 355.210938 L 319.132812 358.046875 L 319.59375 360.789062 L 319.207031 361.402344 L 319.328125 363.183594 L 319.421875 364.621094 L 322.65625 366.980469 L 322.683594 368.875 L 324.285156 370.074219 L 324.410156 371.414062 L 322.945312 374.933594 L 319.976562 376.40625 L 315.691406 376.976562 L 313.222656 376.699219 L 314.03125 378.332031 L 314.027344 380.382812 L 314.730469 381.757812 L 313.644531 382.71875 L 311.503906 383.097656 L 309.183594 382.101562 L 308.511719 382.816406 L 309.460938 385.527344 L 311.117188 386.34375 L 312.09375 385.488281 L 313.074219 386.902344 L 311.296875 387.746094 L 309.988281 389.433594 L 310.375 392.160156 L 310.25 393.605469 L 308.238281 393.613281 L 306.949219 394.996094 L 306.90625 397.015625 L 309.546875 398.984375 L 311.714844 399.527344 L 311.683594 401.925781 L 309.65625 403.433594 L 309.261719 406.546875 L 307.703125 407.59375 L 307.257812 408.832031 L 308.828125 411.566406 L 310.699219 413.085938 L 309.792969 412.953125 L 307.757812 412.542969 L 302.6875 412.191406 L 301.300781 410.660156 L 300.660156 408.683594 L 299.34375 408.855469 L 298.285156 407.898438 L 297.148438 405.085938 L 298.359375 403.914062 L 298.472656 402.222656 L 297.800781 400.871094 L 298.203125 398.582031 L 297.902344 395.019531 L 297.210938 393.4375 L 297.996094 392.925781 L 297.476562 391.90625 L 296.328125 391.363281 L 296.714844 390.226562 L 295.457031 389.199219 L 294.09375 386.0625 L 294.816406 385.507812 L 293.578125 382.183594 L 293.378906 379.382812 L 293.363281 376.941406 L 294.441406 375.945312 L 293.144531 373.269531 L 292.5625 370.746094 L 293.84375 368.953125 L 293.296875 366.652344 L 294.015625 363.964844 L 293.511719 361.433594 L 292.832031 360.929688 L 290.886719 356.171875 L 291.761719 353.335938 L 291.082031 350.664062 L 291.46875 348.160156 L 292.546875 345.570312 L 293.890625 343.855469 L 293.042969 342.773438 L 293.390625 341.886719 L 292.660156 337.292969 L 294.980469 335.933594 L 295.402344 333.074219 L 295.035156 332.382812 L 296.65625 329.894531 Z M 304.648438 330.453125 L 302 330.339844 L 301.359375 332.554688 L 299.761719 330.566406 L 296.65625 329.894531 L 295.035156 332.382812 L 293.414062 332.761719 L 292.039062 328.964844 L 290.433594 325.875 L 290.871094 323.214844 L 289.523438 322.050781 L 289.007812 320.066406 L 287.675781 318.195312 L 288.863281 315.230469 L 287.652344 312.921875 L 288.109375 311.996094 L 287.601562 310.980469 L 288.40625 309.609375 L 288.269531 307.273438 L 288.242188 305.34375 L 288.683594 304.414062 L 286.359375 300 L 288.125 300.230469 L 289.332031 300.171875 L 289.808594 299.34375 L 291.804688 298.230469 L 292.988281 297.203125 L 296.046875 296.738281 L 295.90625 298.792969 L 296.253906 299.847656 L 296.175781 301.683594 L 298.882812 304.140625 L 301.542969 304.59375 L 302.53125 305.621094 L 304.15625 306.164062 L 305.179688 306.960938 L 306.652344 306.933594 L 308.070312 307.746094 L 308.285156 309.335938 L 308.796875 310.136719 L 308.914062 311.320312 L 308.234375 311.367188 L 309.378906 314.5625 L 313.867188 314.675781 L 313.648438 316.265625 L 313.988281 317.347656 L 315.324219 318.121094 L 316.019531 319.828125 L 315.792969 321.996094 L 315.261719 323.199219 L 315.632812 324.769531 L 314.960938 325.335938 L 314.839844 324.488281 L 312.542969 323.082031 L 310.378906 323.042969 L 306.40625 323.84375 L 305.539062 326.265625 L 305.636719 327.746094 L 305.089844 331.042969 Z M 319.535156 353.003906 L 322.035156 349.246094 L 324.25 346.566406 L 325.640625 345.445312 L 327.378906 343.921875 L 327.164062 341.722656 L 325.832031 340.128906 L 324.757812 340.660156 L 325.027344 339.066406 L 325.15625 337.4375 L 324.992188 335.921875 L 324.109375 335.421875 L 323.296875 335.867188 L 322.421875 335.746094 L 322.039062 334.6875 L 321.558594 332.160156 L 321.042969 331.339844 L 319.402344 330.59375 L 318.515625 331.132812 L 316.019531 330.605469 L 315.796875 326.867188 L 314.960938 325.335938 L 315.632812 324.769531 L 315.261719 323.199219 L 315.792969 321.996094 L 316.019531 319.828125 L 315.324219 318.121094 L 313.988281 317.347656 L 313.648438 316.265625 L 313.867188 314.675781 L 309.378906 314.5625 L 308.234375 311.367188 L 308.914062 311.320312 L 308.796875 310.136719 L 308.285156 309.335938 L 308.070312 307.746094 L 306.652344 306.933594 L 305.179688 306.960938 L 304.15625 306.164062 L 302.53125 305.621094 L 301.542969 304.59375 L 298.882812 304.140625 L 296.175781 301.683594 L 296.253906 299.847656 L 295.90625 298.792969 L 296.046875 296.738281 L 292.988281 297.203125 L 291.804688 298.230469 L 289.808594 299.34375 L 289.332031 300.171875 L 288.125 300.230469 L 286.359375 300 L 285.0625 300.472656 L 283.972656 300.15625 L 283.886719 295.992188 L 282.046875 297.609375 L 279.960938 297.535156 L 278.988281 296.074219 L 277.414062 295.914062 L 277.847656 294.738281 L 276.453125 293.070312 L 275.355469 290.605469 L 275.957031 290.101562 L 275.90625 288.945312 L 277.300781 288.15625 L 277.011719 286.671875 L 277.582031 285.722656 L 277.710938 284.441406 L 280.359375 282.578125 L 282.285156 282.050781 L 282.59375 281.640625 L 284.726562 281.769531 L 285.667969 274.261719 L 285.714844 273.074219 L 285.335938 271.507812 L 284.285156 270.507812 L 284.296875 268.519531 L 285.632812 268.066406 L 286.105469 268.351562 L 286.191406 267.300781 L 284.804688 267.019531 L 284.789062 265.304688 L 289.398438 265.367188 L 290.191406 264.421875 L 290.839844 265.289062 L 291.289062 266.90625 L 291.738281 266.570312 L 293.03125 268.015625 L 294.875 267.839844 L 295.335938 267 L 297.101562 266.363281 L 298.078125 265.914062 L 298.363281 264.753906 L 300.0625 263.972656 L 299.9375 263.398438 L 297.9375 263.164062 L 297.632812 261.441406 L 297.761719 259.601562 L 296.71875 258.894531 L 297.167969 258.640625 L 298.910156 258.992188 L 300.777344 259.675781 L 301.472656 259.027344 L 303.183594 258.605469 L 305.847656 257.578125 L 306.738281 256.535156 L 306.441406 255.761719 L 307.675781 255.640625 L 308.210938 256.269531 L 307.875 257.472656 L 308.679688 257.886719 L 309.195312 259.160156 L 308.523438 260.125 L 308.109375 262.457031 L 308.699219 263.839844 L 308.859375 265.109375 L 310.304688 266.390625 L 311.464844 266.527344 L 311.730469 265.992188 L 312.480469 265.875 L 313.554688 265.394531 L 314.328125 264.664062 L 315.636719 264.898438 L 316.210938 264.800781 L 317.496094 265.023438 L 317.714844 264.464844 L 317.324219 263.917969 L 317.566406 263.128906 L 318.519531 263.371094 L 319.640625 263.089844 L 320.992188 263.671875 L 322.019531 264.234375 L 322.757812 263.492188 L 323.285156 263.609375 L 323.601562 264.378906 L 324.734375 264.183594 L 325.652344 263.144531 L 326.402344 261.125 L 327.839844 258.621094 L 328.648438 258.492188 L 329.210938 260.003906 L 330.480469 264.792969 L 331.746094 265.246094 L 331.796875 267.136719 L 330.011719 269.390625 L 330.746094 270.214844 L 334.929688 270.644531 L 335.023438 273.386719 L 336.816406 271.59375 L 339.796875 272.578125 L 343.734375 274.246094 L 344.898438 275.851562 L 344.523438 277.367188 L 347.269531 276.523438 L 351.886719 277.972656 L 355.417969 277.867188 L 358.941406 280.132812 L 362 283.199219 L 363.832031 283.988281 L 365.855469 284.101562 L 366.722656 284.964844 L 367.585938 288.453125 L 368.011719 290.109375 L 367.175781 294.640625 L 366.023438 296.429688 L 362.820312 300.242188 L 361.429688 303.34375 L 359.78125 305.722656 L 359.195312 305.777344 L 358.625 307.796875 L 359.03125 312.941406 L 358.597656 317.175781 L 358.453125 318.988281 L 357.777344 320.070312 L 357.589844 323.746094 L 355.472656 327.339844 L 355.285156 330.183594 L 353.5 331.378906 L 353.089844 333.027344 L 350.582031 333.019531 L 347.039062 334.078125 L 345.523438 335.304688 L 343.015625 336.109375 L 340.519531 338.304688 L 338.851562 341.039062 L 338.734375 343.097656 L 339.28125 344.621094 L 339.164062 347.40625 L 338.804688 348.75 L 337.398438 350.269531 L 335.496094 355.121094 L 333.808594 357.308594 L 332.460938 358.597656 L 331.816406 361.21875 L 330.570312 362.796875 L 329.714844 361.234375 L 330.507812 359.929688 L 328.933594 358.054688 L 326.945312 356.527344 L 324.367188 354.761719 L 323.539062 354.84375 L 320.964844 352.710938 Z M 309.964844 413.835938 L 312 419.640625 L 314.15625 419.640625 L 315.390625 419.710938 L 315.09375 420.753906 L 313.664062 421.554688 L 312.652344 421.472656 L 311.390625 421.261719 L 309.648438 420.488281 L 307.410156 420.117188 L 304.335938 418.671875 L 301.75 417.277344 L 297.859375 414.363281 L 299.742188 414.910156 L 303.238281 416.648438 L 306.265625 417.582031 L 306.875 416.390625 L 306.902344 414.605469 L 308.40625 413.527344 Z M 292.039062 328.964844 L 293.414062 332.761719 L 295.035156 332.382812 L 295.402344 333.074219 L 294.980469 335.933594 L 292.660156 337.292969 L 293.390625 341.886719 L 293.042969 342.773438 L 293.890625 343.855469 L 292.546875 345.570312 L 291.46875 348.160156 L 291.082031 350.664062 L 291.761719 353.335938 L 290.886719 356.171875 L 292.832031 360.929688 L 293.511719 361.433594 L 294.015625 363.964844 L 293.296875 366.652344 L 293.84375 368.953125 L 292.5625 370.746094 L 293.144531 373.269531 L 294.441406 375.945312 L 293.363281 376.941406 L 293.378906 379.382812 L 293.578125 382.183594 L 294.816406 385.507812 L 294.09375 386.0625 L 295.457031 389.199219 L 296.714844 390.226562 L 296.328125 391.363281 L 297.476562 391.90625 L 297.996094 392.925781 L 297.210938 393.4375 L 297.902344 395.019531 L 298.203125 398.582031 L 297.800781 400.871094 L 298.472656 402.222656 L 298.359375 403.914062 L 297.148438 405.085938 L 298.285156 407.898438 L 299.34375 408.855469 L 300.660156 408.683594 L 301.300781 410.660156 L 302.6875 412.191406 L 307.757812 412.542969 L 309.792969 412.953125 L 307.964844 412.933594 L 307.203125 413.578125 L 305.695312 414.523438 L 306.242188 416.957031 L 305.40625 417.015625 L 302.808594 416.171875 L 299.8125 414.355469 L 296.722656 412.859375 L 295.46875 411.195312 L 295.496094 409.652344 L 293.832031 407.894531 L 291.996094 403.367188 L 292.03125 400.800781 L 293.585938 398.730469 L 290.128906 397.945312 L 291.398438 395.570312 L 290.769531 391.082031 L 293.429688 392.035156 L 292.960938 386.410156 L 291.3125 385.6875 L 291.589844 389.082031 L 290.121094 388.699219 L 289.710938 384.808594 L 289.109375 379.75 L 289.640625 377.878906 L 288.347656 375.207031 L 287.421875 372.113281 L 288.332031 372.027344 L 288.683594 367.585938 L 289.285156 363.183594 L 289.40625 359.078125 L 288.097656 354.945312 L 288.359375 352.671875 L 287.484375 349.269531 L 288.253906 345.902344 L 287.832031 340.566406 L 287.75 334.84375 L 287.671875 328.6875 L 286.972656 324.179688 L 286.066406 320.308594 L 287.191406 319.605469 L 287.675781 318.195312 L 289.007812 320.066406 L 289.523438 322.050781 L 290.871094 323.214844 L 290.433594 325.875 Z M 271.617188 270.417969 L 270.601562 269.765625 L 269.441406 268.859375 L 268.769531 269.296875 L 266.761719 268.917969 L 266.191406 267.738281 L 265.75 267.78125 L 263.390625 266.21875 L 263.078125 265.371094 L 263.964844 265.164062 L 263.878906 263.792969 L 264.445312 262.800781 L 265.625 262.617188 L 266.652344 260.898438 L 267.589844 259.460938 L 266.734375 258.808594 L 267.222656 257.21875 L 266.769531 254.714844 L 267.300781 253.996094 L 267.019531 251.675781 L 266.125 250.21875 L 266.488281 248.886719 L 267.242188 249.082031 L 267.726562 248.269531 L 267.257812 246.65625 L 267.566406 246.253906 L 268.78125 246.339844 L 270.65625 244.429688 L 271.644531 244.136719 L 271.71875 243.230469 L 272.296875 240.914062 L 273.730469 239.640625 L 275.214844 239.589844 L 275.441406 239.015625 L 277.265625 239.246094 L 279.210938 237.859375 L 280.171875 237.246094 L 281.402344 235.925781 L 282.222656 236.09375 L 282.789062 236.816406 L 282.269531 237.738281 L 280.726562 238.199219 L 280.039062 239.570312 L 279.078125 240.355469 L 278.332031 241.375 L 277.925781 243.332031 L 277.183594 244.933594 L 278.390625 245.117188 L 278.628906 246.378906 L 279.121094 246.980469 L 279.253906 248.085938 L 278.925781 249.097656 L 278.984375 249.671875 L 279.554688 249.898438 L 280.078125 250.855469 L 283.125 250.589844 L 284.484375 250.941406 L 286.058594 253.296875 L 287.027344 253.003906 L 288.722656 253.152344 L 290.078125 252.839844 L 290.898438 253.308594 L 290.425781 254.785156 L 289.871094 255.703125 L 289.636719 257.667969 L 290.070312 259.488281 L 290.726562 260.300781 L 290.796875 260.914062 L 289.574219 262.277344 L 290.425781 262.882812 L 291.042969 263.839844 L 291.738281 266.570312 L 291.289062 266.90625 L 290.839844 265.289062 L 290.191406 264.421875 L 289.398438 265.367188 L 284.789062 265.304688 L 284.804688 267.019531 L 286.191406 267.300781 L 286.105469 268.351562 L 285.632812 268.066406 L 284.296875 268.519531 L 284.285156 270.507812 L 285.335938 271.507812 L 285.714844 273.074219 L 285.667969 274.261719 L 284.726562 281.769531 L 283.507812 280.3125 L 282.800781 280.246094 L 284.277344 277.460938 L 282.449219 276.179688 L 281.03125 276.414062 L 280.171875 275.941406 L 278.875 276.664062 L 277.109375 276.320312 L 275.683594 273.449219 L 274.585938 272.746094 L 273.824219 271.453125 L 272.246094 270.15625 Z M 260.050781 279.324219 L 261.273438 277.277344 L 260.742188 276.082031 L 259.855469 277.351562 L 258.421875 276.152344 L 258.890625 275.378906 L 258.46875 272.894531 L 259.292969 272.484375 L 259.722656 270.777344 L 260.617188 269.015625 L 260.457031 267.894531 L 261.757812 267.308594 L 263.390625 266.21875 L 265.75 267.78125 L 266.191406 267.738281 L 266.761719 268.917969 L 268.769531 269.296875 L 269.441406 268.859375 L 270.601562 269.765625 L 271.617188 270.417969 L 271.953125 272.496094 L 271.230469 274.273438 L 268.6875 277.140625 L 265.859375 278.222656 L 264.460938 280.605469 L 264.0625 282.453125 L 262.761719 283.578125 L 261.726562 282.195312 L 260.765625 281.898438 L 259.792969 282.117188 L 259.699219 281.113281 L 260.359375 280.460938 Z M 324.511719 411.773438 L 326.515625 410.195312 L 328.453125 410.855469 L 329.386719 409.800781 L 331.363281 410.984375 L 331.007812 411.90625 L 328.46875 412.691406 L 327.28125 411.773438 L 325.886719 412.957031 Z M 325.652344 263.144531 L 324.734375 264.183594 L 323.601562 264.378906 L 323.285156 263.609375 L 322.757812 263.492188 L 322.019531 264.234375 L 320.992188 263.671875 L 321.601562 262.5 L 321.824219 261.253906 L 322.25 260.082031 L 321.359375 258.464844 L 321.210938 256.59375 L 322.496094 254.238281 L 323.289062 254.539062 L 325.015625 255.1875 L 327.46875 257.5 L 327.839844 258.621094 L 326.402344 261.125 Z M 309.03125 247.085938 L 310.539062 248.09375 L 311.9375 249.878906 L 311.957031 251.289062 L 312.84375 251.355469 L 314.070312 252.691406 L 314.972656 253.644531 L 314.535156 256.109375 L 313.082031 256.824219 L 313.195312 257.46875 L 312.730469 258.882812 L 313.746094 260.871094 L 314.503906 260.875 L 314.792969 262.417969 L 316.210938 264.800781 L 315.636719 264.898438 L 314.328125 264.664062 L 313.554688 265.394531 L 312.480469 265.875 L 311.730469 265.992188 L 311.464844 266.527344 L 310.304688 266.390625 L 308.859375 265.109375 L 308.699219 263.839844 L 308.109375 262.457031 L 308.523438 260.125 L 309.195312 259.160156 L 308.679688 257.886719 L 307.875 257.472656 L 308.210938 256.269531 L 307.675781 255.640625 L 306.441406 255.761719 L 304.902344 253.683594 L 305.5625 252.929688 L 305.554688 251.664062 L 307.023438 251.222656 L 307.628906 250.710938 L 306.855469 249.695312 L 307.097656 248.695312 Z M 305.089844 331.042969 L 305.636719 327.746094 L 305.539062 326.265625 L 306.40625 323.84375 L 310.378906 323.042969 L 312.542969 323.082031 L 314.839844 324.488281 L 314.960938 325.335938 L 315.796875 326.867188 L 316.019531 330.605469 L 318.515625 331.132812 L 319.402344 330.59375 L 321.042969 331.339844 L 321.558594 332.160156 L 322.039062 334.6875 L 322.421875 335.746094 L 323.296875 335.867188 L 324.109375 335.421875 L 324.992188 335.921875 L 325.15625 337.4375 L 325.027344 339.066406 L 324.757812 340.660156 L 324.671875 343.09375 L 322.859375 345.203125 L 321.113281 345.648438 L 318.496094 345.226562 L 316.09375 344.476562 L 317.816406 340.285156 L 317.339844 339.066406 L 314.84375 337.992188 L 311.789062 335.953125 L 309.855469 335.535156 Z M 287.675781 318.195312 L 287.191406 319.605469 L 286.066406 320.308594 L 283.566406 318.730469 L 283.25 317.601562 L 278.347656 314.839844 L 273.867188 311.835938 L 271.90625 310.144531 L 270.738281 307.878906 L 271.054688 307.085938 L 268.78125 303.484375 L 266.105469 298.425781 L 263.554688 292.96875 L 262.527344 291.71875 L 261.683594 289.699219 L 259.773438 287.914062 L 258.042969 286.804688 L 258.761719 285.582031 L 257.527344 282.96875 L 258.207031 281.050781 L 260.050781 279.324219 L 260.359375 280.460938 L 259.699219 281.113281 L 259.792969 282.117188 L 260.765625 281.898438 L 261.726562 282.195312 L 262.761719 283.578125 L 264.0625 282.453125 L 264.460938 280.605469 L 265.859375 278.222656 L 268.6875 277.140625 L 271.230469 274.273438 L 271.953125 272.496094 L 271.617188 270.417969 L 272.246094 270.15625 L 273.824219 271.453125 L 274.585938 272.746094 L 275.683594 273.449219 L 277.109375 276.320312 L 278.875 276.664062 L 280.171875 275.941406 L 281.03125 276.414062 L 282.449219 276.179688 L 284.277344 277.460938 L 282.800781 280.246094 L 283.507812 280.3125 L 284.726562 281.769531 L 282.59375 281.640625 L 282.285156 282.050781 L 280.359375 282.578125 L 277.710938 284.441406 L 277.582031 285.722656 L 277.011719 286.671875 L 277.300781 288.15625 L 275.90625 288.945312 L 275.957031 290.101562 L 275.355469 290.605469 L 276.453125 293.070312 L 277.847656 294.738281 L 277.414062 295.914062 L 278.988281 296.074219 L 279.960938 297.535156 L 282.046875 297.609375 L 283.886719 295.992188 L 283.972656 300.15625 L 285.0625 300.472656 L 286.359375 300 L 288.683594 304.414062 L 288.242188 305.34375 L 288.269531 307.273438 L 288.40625 309.609375 L 287.601562 310.980469 L 288.109375 311.996094 L 287.652344 312.921875 L 288.863281 315.230469 Z M 314.972656 253.644531 L 317.789062 254.191406 L 318.058594 253.699219 L 319.972656 253.5 L 322.496094 254.238281 L 321.210938 256.59375 L 321.359375 258.464844 L 322.261719 260.089844 L 321.832031 261.265625 L 321.605469 262.519531 L 320.992188 263.671875 L 319.640625 263.089844 L 318.519531 263.371094 L 317.566406 263.128906 L 317.324219 263.917969 L 317.714844 264.464844 L 317.496094 265.023438 L 316.210938 264.800781 L 314.792969 262.417969 L 314.503906 260.875 L 313.746094 260.871094 L 312.730469 258.882812 L 313.195312 257.46875 L 313.082031 256.824219 L 314.535156 256.109375 Z M 319.535156 353.003906 L 320.964844 352.710938 L 323.539062 354.84375 L 324.367188 354.761719 L 326.945312 356.527344 L 328.933594 358.054688 L 330.507812 359.929688 L 329.714844 361.234375 L 330.570312 362.796875 L 329.875 364.527344 L 327.601562 366.054688 L 325.863281 365.503906 L 324.707031 365.800781 L 322.449219 364.617188 L 320.949219 364.707031 L 319.328125 363.183594 L 319.207031 361.402344 L 319.59375 360.789062 L 319.132812 358.046875 L 319.300781 355.210938 Z M 282.269531 237.738281 L 282.15625 238.386719 L 280.753906 238.707031 L 281.441406 239.953125 L 281.324219 241.386719 L 280.191406 242.976562 L 280.964844 245.152344 L 281.992188 244.976562 L 282.628906 242.992188 L 281.953125 242.027344 L 281.960938 239.953125 L 284.960938 238.839844 L 284.722656 237.546875 L 285.605469 236.679688 L 286.320312 238.605469 L 287.96875 238.652344 L 289.402344 240.179688 L 289.441406 241.089844 L 291.554688 241.113281 L 294.085938 240.832031 L 295.363281 242.058594 L 297.148438 242.398438 L 298.515625 241.542969 L 298.578125 240.851562 L 301.503906 240.6875 L 304.328125 240.648438 L 302.285156 241.457031 L 303.023438 242.75 L 304.898438 242.957031 L 306.621094 244.304688 L 306.902344 246.5 L 308.132812 246.441406 L 309.03125 247.085938 L 307.097656 248.695312 L 306.855469 249.695312 L 307.628906 250.710938 L 307.023438 251.222656 L 305.554688 251.664062 L 305.5625 252.929688 L 304.902344 253.683594 L 306.441406 255.761719 L 306.738281 256.535156 L 305.847656 257.578125 L 303.183594 258.605469 L 301.472656 259.027344 L 300.777344 259.675781 L 298.910156 258.992188 L 297.167969 258.640625 L 296.71875 258.894531 L 297.761719 259.601562 L 297.632812 261.441406 L 297.9375 263.164062 L 299.9375 263.398438 L 300.0625 263.972656 L 298.363281 264.753906 L 298.078125 265.914062 L 297.101562 266.363281 L 295.335938 267 L 294.875 267.839844 L 293.03125 268.015625 L 291.738281 266.570312 L 291.042969 263.839844 L 290.425781 262.882812 L 289.574219 262.277344 L 290.796875 260.914062 L 290.726562 260.300781 L 290.070312 259.488281 L 289.636719 257.667969 L 289.871094 255.703125 L 290.425781 254.785156 L 290.898438 253.308594 L 290.078125 252.839844 L 288.722656 253.152344 L 287.027344 253.003906 L 286.058594 253.296875 L 284.484375 250.941406 L 283.125 250.589844 L 280.078125 250.855469 L 279.554688 249.898438 L 278.984375 249.671875 L 278.925781 249.097656 L 279.253906 248.085938 L 279.121094 246.980469 L 278.628906 246.378906 L 278.390625 245.117188 L 277.183594 244.933594 L 277.925781 243.332031 L 278.332031 241.375 L 279.078125 240.355469 L 280.039062 239.570312 L 280.726562 238.199219 Z M 282.269531 237.738281 "/>
</svg>
