<?xml version="1.0" encoding="UTF-8"?>
<svg xmlns="http://www.w3.org/2000/svg" xmlns:xlink="http://www.w3.org/1999/xlink" width="900pt" height="540pt" viewBox="0 0 900 540">
<path fill-rule="evenodd" fill="rgb(0%, 0%, 0%)" fill-opacity="1" d="M 766.3125 382.074219 L 767.914062 383.015625 L 769.296875 382.644531 L 771.273438 382.117188 L 772.480469 382.300781 L 770.878906 385.539062 L 769.617188 386.476562 L 768.164062 388.664062 L 767.832031 387.917969 L 765.265625 389.8125 L 764.902344 389.664062 L 763.628906 389.582031 L 763.605469 387.253906 L 764.292969 385.460938 L 764.304688 383.085938 L 765.011719 381.832031 Z M 786.773438 307.714844 L 787.265625 309.867188 L 788.941406 308.832031 L 789.523438 309.996094 L 790.460938 311.066406 L 790.003906 312.285156 L 790.0625 314.640625 L 790.152344 316.011719 L 790.671875 316.347656 L 790.824219 318.695312 L 790.292969 320.121094 L 790.636719 321.984375 L 792.824219 323.421875 L 794.15625 324.730469 L 795.421875 325.925781 L 794.953125 326.59375 L 795.839844 328.320312 L 795.945312 331.300781 L 797.03125 330.695312 L 797.640625 331.886719 L 798.324219 331.464844 L 797.894531 334.382812 L 799.027344 336.074219 L 799.777344 337.125 L 800.878906 339.359375 L 800.804688 341.574219 L 800.335938 343.144531 L 799.59375 344.851562 L 799.855469 347.195312 L 798.832031 349.636719 L 797.960938 350.914062 L 796.40625 353.375 L 795.832031 354.953125 L 794.589844 356.929688 L 792.558594 359.4375 L 790.324219 360.792969 L 788.585938 362.925781 L 787.246094 364.289062 L 785.523438 366.664062 L 784.039062 368.035156 L 782.523438 370.09375 L 781.335938 371.984375 L 781.03125 372.851562 L 779.300781 373.808594 L 776.785156 373.90625 L 774.207031 375.03125 L 772.675781 376.09375 L 770.765625 377.269531 L 769.546875 376.058594 L 768.4375 375.574219 L 769.460938 374.144531 L 768.011719 374.664062 L 765.132812 376.648438 L 763.59375 375.90625 L 762.554688 375.472656 L 761.386719 375.277344 L 759.628906 374.484375 L 758.976562 372.792969 L 759.5 370.707031 L 759.589844 369.316406 L 758.980469 368.203125 L 756.980469 367.871094 L 758.273438 366.535156 L 758.570312 364.492188 L 756.703125 366.398438 L 754.511719 366.902344 L 756.300781 365.382812 L 757.28125 363.792969 L 758.679688 362.445312 L 759.292969 360.402344 L 756.558594 362.753906 L 754.789062 363.695312 L 753.058594 365.882812 L 751.773438 364.75 L 752.417969 363.289062 L 751.785156 361.292969 L 750.988281 360.261719 L 751.648438 359.625 L 749.371094 357.953125 L 747.816406 357.875 L 746.125 356.53125 L 741.996094 356.792969 L 738.738281 357.78125 L 735.859375 358.699219 L 733.777344 358.519531 L 730.90625 359.929688 L 728.738281 360.566406 L 727.800781 362.011719 L 726.578125 363.132812 L 724.65625 363.199219 L 723.167969 363.441406 L 721.367188 362.941406 L 719.652344 363.242188 L 718.074219 363.367188 L 716.234375 364.835938 L 715.625 364.710938 L 714.234375 365.488281 L 712.855469 366.363281 L 711.269531 366.257812 L 709.777344 366.253906 L 708.015625 364.496094 L 706.988281 363.972656 L 707.5625 362.394531 L 708.796875 362.019531 L 709.382812 361.394531 L 709.625 360.402344 L 710.507812 358.488281 L 710.765625 356.855469 L 710.414062 354.066406 L 710.503906 352.492188 L 711.050781 350.921875 L 710.648438 349.125 L 710.8125 348.316406 L 710.097656 347.21875 L 710.382812 345.058594 L 709.632812 342.875 L 709.605469 341.699219 L 710.316406 342.890625 L 710.167969 340.332031 L 711.113281 341.132812 L 711.527344 342.199219 L 711.835938 340.789062 L 711.21875 338.617188 L 711.203125 337.75 L 710.859375 336.925781 L 711.464844 335.332031 L 712.085938 334.652344 L 712.703125 333.273438 L 712.796875 331.664062 L 714.160156 329.683594 L 713.902344 331.78125 L 715.273438 329.886719 L 717.339844 328.964844 L 718.707031 327.792969 L 720.675781 326.78125 L 721.773438 326.566406 L 722.34375 326.90625 L 724.375 325.882812 L 725.84375 325.574219 L 726.3125 324.972656 L 726.976562 324.722656 L 728.25 324.785156 L 730.847656 323.980469 L 732.34375 322.757812 L 733.214844 321.289062 L 734.835938 319.894531 L 735.136719 318.796875 L 735.457031 317.300781 L 737.480469 314.96875 L 738.066406 317.339844 L 739.152344 316.792969 L 738.539062 315.492188 L 739.492188 314.160156 L 740.425781 314.753906 L 741.046875 312.664062 L 742.535156 311.316406 L 743.261719 310.230469 L 744.507812 309.761719 L 744.65625 308.996094 L 745.640625 309.316406 L 745.78125 308.625 L 746.871094 308.234375 L 748.054688 307.863281 L 749.605469 309.121094 L 750.660156 310.75 L 752.125 310.769531 L 753.574219 311.023438 L 753.308594 309.515625 L 754.753906 307.316406 L 755.914062 306.597656 L 755.644531 305.914062 L 756.875 304.347656 L 758.421875 303.378906 L 759.582031 303.703125 L 761.625 303.1875 L 761.761719 301.785156 L 760.148438 300.882812 L 761.445312 300.484375 L 762.925781 301.164062 L 764.035156 302.289062 L 765.925781 302.992188 L 766.632812 302.714844 L 767.976562 303.554688 L 769.453125 302.769531 L 770.304688 303.007812 L 770.925781 302.484375 L 771.824219 303.839844 L 770.992188 305.308594 L 769.941406 306.417969 L 769.125 306.507812 L 769.234375 307.605469 L 768.332031 308.976562 L 767.289062 310.328125 L 767.328125 311.101562 L 768.9375 312.621094 L 770.585938 313.5 L 771.621094 314.445312 L 773.011719 316.074219 L 773.667969 316.070312 L 774.757812 316.773438 L 774.945312 317.625 L 776.988281 318.554688 L 778.714844 317.617188 L 779.460938 316.140625 L 780.167969 314.921875 L 780.734375 313.417969 L 781.832031 311.230469 L 781.730469 309.902344 L 782.03125 309.105469 L 782.011719 307.535156 L 782.632812 305.464844 L 783.164062 304.910156 L 782.929688 303.992188 L 783.699219 302.539062 L 784.347656 301.03125 L 784.503906 300.25 L 785.507812 299.222656 L 786.003906 300.5625 L 785.941406 302.285156 L 786.480469 302.617188 L 786.421875 303.769531 L 787.070312 305.164062 L 787.011719 306.71875 Z M 866.234375 317.535156 L 866.835938 318.328125 L 866.078125 319.765625 L 864.535156 320.140625 L 863.339844 319.800781 L 863.429688 318.59375 L 864.566406 317.648438 L 865.542969 317.988281 Z M 868.914062 316.054688 L 867.277344 316.636719 L 867.226562 315.609375 L 868.53125 315.046875 L 869.308594 314.894531 L 870.878906 314.039062 L 870.5625 315.378906 Z M 29.597656 315.234375 L 29.4375 315.378906 L 29.121094 314.039062 L 29.574219 313.910156 Z M 834.183594 327.824219 L 835.585938 329.53125 L 836.410156 330.796875 L 835.328125 331.457031 L 834.285156 330.714844 L 832.996094 329.472656 L 831.925781 328.015625 L 830.933594 326.074219 L 830.863281 325.140625 L 831.851562 325.179688 L 832.898438 326.117188 L 833.660156 327.050781 Z M 826.1875 382.421875 L 825.976562 383.546875 L 828.214844 382.441406 L 828.117188 383.59375 L 827.382812 384.742188 L 825.761719 386.003906 L 823.039062 388.007812 L 821.210938 389.097656 L 821.125 390.402344 L 819.445312 390.4375 L 816.921875 391.457031 L 815.132812 393.230469 L 812.011719 395.960938 L 809.492188 397.160156 L 807.886719 397.929688 L 805.980469 397.871094 L 805.238281 396.984375 L 803.070312 396.796875 L 803.402344 395.808594 L 805.914062 393.808594 L 810.394531 391.136719 L 812.117188 390.628906 L 814.339844 389.597656 L 817.117188 388.175781 L 819.328125 386.765625 L 821.585938 384.734375 L 822.84375 384.046875 L 824.117188 382.523438 L 826.425781 381.257812 Z M 837.28125 369.367188 L 837.289062 372.261719 L 838.378906 370.382812 L 838.960938 371.132812 L 838.121094 373.210938 L 839.378906 374.105469 L 840.742188 374.324219 L 842.609375 373.277344 L 843.542969 373.59375 L 841.574219 376.027344 L 839.941406 377.628906 L 838.304688 377.570312 L 837.214844 378.402344 L 836.695312 379.582031 L 836.058594 380.089844 L 834.3125 381.5625 L 832.050781 383.429688 L 829.675781 384.519531 L 829.761719 383.804688 L 829.109375 383.410156 L 831.773438 381.164062 L 831.988281 379.660156 L 830.296875 378.566406 L 830.949219 377.574219 L 833.101562 376.617188 L 834.699219 374.507812 L 835.609375 372.734375 L 835.738281 370.890625 L 836.066406 370.40625 L 835.621094 369.273438 L 835.164062 366.839844 L 835.234375 364.890625 L 836.175781 364.675781 L 836.601562 366.203125 L 837.960938 366.917969 Z M 818.121094 288.675781 L 817.4375 288.949219 L 816.503906 287.898438 L 815.601562 286.15625 L 815.238281 284.070312 L 815.582031 283.808594 L 815.78125 284.621094 L 816.457031 285.242188 L 817.476562 286.980469 L 818.515625 287.910156 Z M 809.195312 285 L 807.941406 285.226562 L 807.515625 285.992188 L 806.175781 286.660156 L 804.914062 287.300781 L 803.660156 287.296875 L 801.78125 286.5 L 800.484375 285.738281 L 800.738281 284.890625 L 802.832031 285.289062 L 804.136719 285.074219 L 804.578125 283.761719 L 804.921875 283.695312 L 805.058594 285.148438 L 806.421875 284.9375 L 807.148438 284 L 808.523438 283.023438 L 808.351562 281.410156 L 809.769531 281.359375 L 810.226562 281.808594 L 810.09375 283.328125 Z M 797.476562 290.230469 L 799.417969 292.027344 L 800.652344 294.9375 L 802.011719 294.84375 L 801.785156 296.058594 L 803.550781 296.523438 L 802.78125 297.042969 L 805.144531 298.195312 L 804.785156 298.988281 L 803.199219 299.179688 L 802.710938 298.46875 L 800.726562 298.160156 L 798.398438 297.746094 L 796.769531 296 L 795.59375 294.492188 L 794.605469 292.09375 L 791.636719 290.894531 L 789.570312 291.675781 L 788.042969 292.582031 L 788.144531 294.601562 L 786.195312 295.546875 L 784.921875 295.085938 L 782.496094 294.972656 L 783.210938 286.042969 L 783.597656 277.117188 L 787.636719 279.003906 L 791.945312 280.570312 L 793.507812 281.976562 L 794.75 283.351562 L 795.011719 284.964844 L 798.835938 286.660156 L 799.300781 288.109375 L 797.105469 288.40625 Z M 812.09375 282.320312 L 811.3125 283.050781 L 810.953125 281.433594 L 810.457031 280.375 L 809.421875 279.476562 L 808.125 278.3125 L 806.441406 277.507812 L 807.121094 276.84375 L 808.375 277.609375 L 809.15625 278.214844 L 810.125 278.871094 L 811.023438 280.019531 L 811.882812 280.898438 Z M 831.726562 298.714844 L 832.253906 299.65625 L 830.613281 299.636719 L 829.949219 297.953125 L 831.265625 298.613281 Z M 828.964844 297.042969 L 828.039062 297.101562 L 826.628906 296.824219 L 826.1875 296.402344 L 826.46875 295.316406 L 827.972656 295.746094 L 828.667969 296.320312 Z M 831.007812 296.292969 L 830.589844 296.800781 L 829.132812 294.421875 L 828.820312 292.785156 L 829.625 292.785156 L 830.226562 294.976562 Z M 827.152344 292.832031 L 827.195312 293.382812 L 825.46875 292.222656 L 824.277344 291.238281 L 823.480469 290.324219 L 823.855469 290.046875 L 824.878906 290.703125 L 826.691406 291.964844 Z M 821.910156 290.121094 L 821.425781 290.277344 L 820.449219 289.652344 L 819.578125 288.527344 L 819.738281 288.070312 L 821.050781 289.226562 Z M 842.21875 315.136719 L 841.367188 315.496094 L 840.847656 314.292969 L 841.09375 313.558594 Z M 841.386719 310.925781 L 841.308594 313.140625 L 840.753906 312.796875 L 840.234375 312.945312 L 840.058594 312.1875 L 840.433594 310.082031 Z M 841.386719 310.925781 "/>
</svg>
