<?xml version="1.0" encoding="UTF-8"?>
<svg xmlns="http://www.w3.org/2000/svg" xmlns:xlink="http://www.w3.org/1999/xlink" width="900pt" height="540pt" viewBox="0 0 900 540">
<path fill-rule="evenodd" fill="rgb(0%, 0%, 0%)" fill-opacity="1" d="M 720.027344 257.609375 L 720.917969 256.582031 L 722.859375 255.082031 L 722.816406 256.433594 L 722.753906 258.179688 L 721.621094 258.09375 L 721.160156 259.027344 Z M 693.660156 240.875 L 692.574219 239.445312 L 691.113281 236.613281 L 690.207031 233.300781 L 691.445312 231.019531 L 694.414062 230.492188 L 696.660156 230.886719 L 698.722656 231.964844 L 699.554688 230.070312 L 701.757812 231.082031 L 702.519531 232.914062 L 702.601562 236.199219 L 698.863281 238.3125 L 700.058594 239.972656 L 697.605469 240.171875 L 695.667969 241.277344 Z M 744.675781 294.355469 L 745.011719 293.707031 L 747.09375 293.09375 L 748.746094 293 L 749.515625 292.65625 L 750.378906 292.996094 L 749.445312 293.738281 L 746.878906 294.941406 L 744.832031 295.726562 L 744.867188 294.894531 Z M 734.304688 298.046875 L 733.308594 298.097656 L 730.367188 296.179688 L 732.613281 295.640625 L 733.773438 296.472656 L 734.519531 297.308594 Z M 743.09375 297.773438 L 741.019531 298.378906 L 740.769531 298.046875 L 741.074219 297.117188 L 742.246094 295.445312 L 744.675781 294.355469 L 744.867188 294.894531 L 744.832031 295.726562 Z M 728.183594 292.171875 L 728.976562 292.902344 L 730.453125 292.679688 L 730.945312 293.84375 L 728.171875 294.394531 L 726.507812 294.761719 L 725.242188 294.738281 L 726.179688 293.160156 L 727.476562 293.140625 Z M 739.988281 292.167969 L 739.519531 293.691406 L 735.910156 294.46875 L 732.800781 294.128906 L 732.875 293.128906 L 734.796875 292.558594 L 736.207031 293.378906 L 737.792969 293.171875 Z M 706.527344 288.558594 L 711.039062 288.832031 L 711.625 287.703125 L 715.925781 289.019531 L 716.671875 290.796875 L 720.175781 291.296875 L 722.949219 292.925781 L 720.175781 293.96875 L 717.667969 292.863281 L 715.527344 292.941406 L 713.09375 292.734375 L 710.921875 292.246094 L 708.261719 291.199219 L 706.546875 290.925781 L 705.542969 291.269531 L 701.3125 290.140625 L 700.972656 288.964844 L 698.824219 288.761719 L 700.585938 286.144531 L 703.445312 286.304688 L 705.292969 287.375 L 706.261719 287.585938 Z M 768.277344 287.015625 L 766.933594 288.882812 L 766.847656 286.820312 L 767.328125 285.835938 L 767.878906 284.910156 L 768.367188 285.710938 Z M 750.988281 279.46875 L 750.070312 280.378906 L 748.457031 279.875 L 748.035156 278.699219 L 750.433594 278.566406 Z M 758.644531 278.46875 L 759.429688 280.566406 L 757.476562 279.4375 L 755.507812 279.207031 L 754.167969 279.386719 L 752.53125 279.289062 L 753.140625 277.785156 L 756.066406 277.671875 Z M 767.453125 273.152344 L 768.019531 277.582031 L 770.414062 279.21875 L 772.480469 276.316406 L 775.234375 274.664062 L 777.335938 274.660156 L 779.339844 275.617188 L 781.070312 276.59375 L 783.597656 277.117188 L 783.210938 286.042969 L 782.496094 294.972656 L 780.617188 292.722656 L 778.269531 292.171875 L 777.617188 292.953125 L 774.621094 293.035156 L 775.820312 290.804688 L 777.367188 290.046875 L 776.976562 287.066406 L 775.992188 284.765625 L 771.535156 282.449219 L 769.59375 282.21875 L 766.152344 279.6875 L 765.402344 281.019531 L 764.484375 281.261719 L 763.988281 280.257812 L 764.023438 279.066406 L 762.261719 277.722656 L 764.835938 276.738281 L 766.523438 276.789062 L 766.34375 276.0625 L 762.878906 276.058594 L 761.972656 274.425781 L 759.867188 273.921875 L 758.882812 272.566406 L 762.078125 271.902344 L 763.296875 271.011719 L 767.089844 272.136719 Z M 746.375 266.113281 L 744.5 268.828125 L 742.722656 269.355469 L 740.441406 268.820312 L 736.5 268.957031 L 734.433594 269.351562 L 734.09375 271.421875 L 736.1875 273.855469 L 737.480469 272.617188 L 741.902344 271.683594 L 741.695312 272.945312 L 740.667969 272.546875 L 739.621094 274.152344 L 737.523438 275.214844 L 739.671875 278.722656 L 739.210938 279.664062 L 741.210938 282.824219 L 741.101562 284.625 L 739.792969 285.429688 L 738.917969 284.464844 L 740.167969 282.222656 L 737.800781 283.285156 L 737.246094 282.523438 L 737.597656 281.46875 L 735.953125 279.863281 L 736.210938 277.195312 L 734.609375 278.027344 L 734.703125 281.21875 L 734.617188 285.136719 L 733.097656 285.535156 L 732.125 284.730469 L 732.921875 282.210938 L 732.65625 279.566406 L 731.660156 279.546875 L 730.980469 277.671875 L 732 275.878906 L 732.375 273.703125 L 733.585938 269.578125 L 734.082031 268.449219 L 736.074219 266.414062 L 737.929688 267.222656 L 740.917969 267.605469 L 743.636719 267.488281 L 745.953125 265.5 Z M 754.542969 266.898438 L 754.4375 269.292969 L 753.214844 269.023438 L 752.855469 270.691406 L 753.824219 272.136719 L 753.160156 272.464844 L 752.214844 270.730469 L 751.496094 267.230469 L 751.941406 265.042969 L 752.707031 264.046875 L 752.90625 265.542969 L 754.308594 265.78125 Z M 728.929688 264.996094 L 731.617188 267.53125 L 728.8125 267.851562 L 728.03125 269.71875 L 728.125 272.199219 L 725.832031 274.074219 L 725.71875 276.800781 L 724.679688 280.988281 L 724.367188 280.011719 L 721.636719 281.246094 L 720.757812 279.570312 L 719.074219 279.417969 L 717.921875 278.539062 L 715.078125 279.523438 L 714.253906 278.199219 L 712.699219 278.347656 L 710.757812 278.035156 L 710.46875 274.359375 L 709.300781 273.601562 L 708.179688 271.257812 L 707.851562 268.863281 L 708.109375 266.324219 L 709.488281 264.507812 L 709.910156 266.335938 L 711.542969 267.882812 L 713.066406 267.328125 L 714.578125 267.523438 L 715.941406 266.140625 L 717.074219 265.898438 L 719.320312 266.667969 L 721.246094 266.082031 L 722.382812 262.273438 L 723.269531 261.324219 L 723.980469 258.207031 L 726.699219 258.210938 L 728.765625 258.671875 L 727.507812 261.144531 L 729.3125 263.738281 Z M 700.039062 286.023438 L 697.417969 286.082031 L 695.535156 283.792969 L 692.582031 281.554688 L 691.625 279.894531 L 689.890625 277.664062 L 688.757812 275.613281 L 686.996094 271.78125 L 684.925781 269.5 L 684.21875 267.144531 L 683.320312 265.007812 L 681.160156 263.285156 L 679.867188 260.941406 L 678.046875 259.40625 L 675.476562 256.390625 L 675.214844 254.996094 L 676.738281 255.105469 L 680.421875 255.636719 L 682.609375 258.3125 L 684.496094 260.167969 L 685.832031 261.308594 L 688.136719 264.253906 L 690.542969 264.296875 L 692.558594 266.171875 L 693.945312 268.464844 L 695.75 269.714844 L 694.796875 271.949219 L 696.144531 272.898438 L 696.996094 272.96875 L 697.375 274.878906 L 698.171875 276.40625 L 699.90625 276.648438 L 701.015625 278.382812 L 700.316406 281.789062 Z M 696.660156 230.886719 L 697.269531 229.648438 L 697.074219 227.324219 L 694.855469 224.933594 L 694.320312 222.21875 L 692.210938 219.988281 L 690.417969 219.796875 L 690.09375 220.753906 L 688.742188 220.835938 L 687.972656 220.347656 L 685.753906 221.988281 L 685.335938 219.523438 L 685.457031 216.628906 L 683.867188 216.5 L 683.464844 214.847656 L 682.320312 214 L 682.644531 212.984375 L 684.304688 211.195312 L 684.628906 211.84375 L 685.875 211.917969 L 684.957031 208.769531 L 686.078125 208.363281 L 687.832031 210.539062 L 689.320312 213.039062 L 692.175781 213.0625 L 693.492188 215.460938 L 692.128906 216.179688 L 691.625 217.171875 L 694.679688 218.816406 L 697.117188 222.066406 L 698.945312 224.484375 L 700.980469 226.398438 L 701.832031 228.335938 L 701.757812 231.082031 L 699.554688 230.070312 L 698.722656 231.964844 Z M 688.785156 253.007812 L 689.039062 254.414062 L 690.585938 254.089844 L 691.300781 252.964844 L 691.859375 253.21875 L 693.332031 254.875 L 694.402344 256.707031 L 694.605469 258.550781 L 694.394531 259.796875 L 694.652344 260.738281 L 694.867188 262.359375 L 695.71875 263.113281 L 696.691406 265.535156 L 696.65625 266.460938 L 694.980469 266.640625 L 692.714844 264.613281 L 689.875 262.441406 L 689.5625 261.046875 L 688.140625 259.214844 L 687.734375 256.945312 L 686.824219 255.453125 L 686.992188 253.460938 L 686.410156 252.296875 L 686.796875 251.808594 Z M 730.46875 257.738281 L 728.765625 258.671875 L 726.699219 258.210938 L 723.980469 258.207031 L 723.269531 261.324219 L 722.382812 262.273438 L 721.246094 266.082031 L 719.320312 266.667969 L 717.074219 265.898438 L 715.941406 266.140625 L 714.578125 267.523438 L 713.066406 267.328125 L 711.542969 267.882812 L 709.910156 266.335938 L 709.488281 264.507812 L 711.238281 265.445312 L 713.058594 264.933594 L 713.488281 262.617188 L 714.484375 262.097656 L 717.304688 261.507812 L 718.933594 259.339844 L 720.027344 257.609375 L 721.160156 259.027344 L 721.621094 258.09375 L 722.753906 258.179688 L 722.816406 256.433594 L 722.859375 255.082031 L 724.574219 253.179688 L 725.636719 251.039062 L 726.589844 251.027344 L 727.890625 252.414062 L 728.070312 253.605469 L 729.667969 254.367188 L 731.683594 255.191406 L 731.566406 256.265625 L 729.988281 256.402344 Z M 681.097656 214.636719 L 679.933594 215.828125 L 678.3125 215.953125 L 677.707031 218.925781 L 676.796875 219.425781 L 678.265625 221.835938 L 680.023438 223.84375 L 681.21875 225.65625 L 680.664062 228.046875 L 679.914062 228.550781 L 680.636719 229.929688 L 682.449219 232.109375 L 682.882812 233.644531 L 682.976562 234.917969 L 684.144531 237.417969 L 683.085938 239.976562 L 682.175781 242.792969 L 681.785156 240.757812 L 682.324219 238.65625 L 681.382812 237.035156 L 681.273438 234.046875 L 680.171875 232.625 L 679.039062 229.339844 L 678.191406 225.871094 L 676.886719 223.59375 L 675.527344 224.972656 L 673.113281 226.929688 L 671.773438 226.683594 L 670.246094 226.039062 L 670.617188 222.636719 L 669.78125 220.0625 L 667.5 216.890625 L 667.636719 215.898438 L 666.226562 215.546875 L 664.234375 213.304688 L 663.730469 211.089844 L 664.605469 211.503906 L 664.328125 209.53125 L 665.359375 208.878906 L 664.914062 207.707031 L 665.273438 206.769531 L 664.847656 203.917969 L 666.761719 204.546875 L 667.363281 202.273438 L 667.21875 200.929688 L 668.019531 198.617188 L 667.625 197.042969 L 670.175781 195.136719 L 671.917969 195.632812 L 671.355469 193.9375 L 672.039062 193.433594 L 671.632812 192.386719 L 672.914062 192.179688 L 674.046875 193.804688 L 675.191406 194.460938 L 675.726562 196.574219 L 676.125 198.847656 L 674.429688 201.148438 L 674.796875 204.417969 L 677.136719 203.960938 L 678.171875 206.496094 L 679.734375 207.03125 L 679.480469 209.316406 L 681.382812 210.351562 L 682.476562 210.859375 L 684.03125 210.058594 L 684.304688 211.195312 L 682.644531 212.984375 L 682.320312 214 Z M 748.113281 246.953125 L 748.5 248.777344 L 748.753906 250.3125 L 748.121094 252.820312 L 747.066406 250.027344 L 746.0625 251.417969 L 746.945312 253.433594 L 746.34375 254.71875 L 743.472656 253.128906 L 742.679688 251.144531 L 743.304688 249.84375 L 741.714844 248.546875 L 741.058594 249.683594 L 739.941406 249.578125 L 738.300781 251.105469 L 737.855469 250.304688 L 738.609375 247.996094 L 740.03125 247.226562 L 741.230469 246.191406 L 742.171875 247.433594 L 743.902344 246.683594 L 744.179688 245.460938 L 745.839844 245.386719 L 745.5 243.265625 L 747.535156 244.566406 L 747.859375 245.949219 Z M 741.988281 241.847656 L 741.234375 242.746094 L 740.660156 244.480469 L 739.992188 245.289062 L 738.367188 243.394531 L 738.78125 242.660156 L 739.296875 241.894531 L 739.378906 240.191406 L 740.660156 240.03125 L 740.472656 241.878906 L 741.933594 239.230469 Z M 729.332031 244.484375 L 726.414062 247.085938 L 727.414062 245.167969 L 728.964844 243.476562 L 730.199219 241.578125 L 731.148438 238.855469 L 731.804688 241.089844 L 730.398438 242.601562 Z M 736.566406 237.421875 L 738.074219 238.269531 L 739.570312 238.265625 L 739.65625 239.414062 L 738.691406 240.578125 L 737.28125 241.402344 L 737.066406 240.125 L 737.078125 238.726562 Z M 744.984375 236.679688 L 746.003906 239.742188 L 744.105469 239.015625 L 744.257812 239.933594 L 745.015625 241.625 L 743.957031 242.242188 L 743.65625 240.3125 L 742.933594 240.171875 L 742.378906 238.507812 L 743.789062 238.726562 L 743.636719 237.691406 L 741.945312 235.59375 L 744.210938 235.65625 Z M 735.332031 234.191406 L 735.003906 236.5625 L 733.832031 235.191406 L 732.367188 233.101562 L 734.390625 233.203125 Z M 732.539062 219.261719 L 734.117188 220.046875 L 734.703125 219.332031 L 735.042969 220.03125 L 734.867188 221.171875 L 736.003906 223.140625 L 735.765625 225.425781 L 734.535156 226.335938 L 734.503906 228.550781 L 735.34375 230.734375 L 736.628906 231.039062 L 737.617188 230.714844 L 740.761719 232.234375 L 740.738281 233.730469 L 741.589844 234.386719 L 741.507812 235.652344 L 739.507812 234.304688 L 738.449219 232.863281 L 737.976562 233.871094 L 736.265625 232.230469 L 734.191406 232.636719 L 732.941406 232.027344 L 732.90625 230.894531 L 733.539062 230.195312 L 732.75 229.558594 L 732.585938 230.550781 L 731.203125 228.972656 L 730.679688 227.777344 L 730.1875 225.144531 L 731.269531 226.050781 L 730.808594 221.75 L 731.128906 219.261719 Z M 691.113281 236.613281 L 688.875 235.355469 L 686.871094 235.40625 L 686.984375 233.25 L 684.921875 233.265625 L 685.046875 236.28125 L 684.148438 240.289062 L 683.585938 242.710938 L 683.898438 244.695312 L 685.441406 244.78125 L 686.574219 247.28125 L 687.144531 249.65625 L 688.554688 251.222656 L 690.003906 251.542969 L 691.300781 252.964844 L 690.585938 254.089844 L 689.039062 254.414062 L 688.785156 253.007812 L 686.796875 251.808594 L 686.410156 252.296875 L 685.421875 251.246094 L 684.941406 249.890625 L 683.59375 248.34375 L 682.367188 247.042969 L 682.082031 248.652344 L 681.539062 247.132812 L 681.679688 245.421875 L 682.175781 242.792969 L 683.085938 239.976562 L 684.144531 237.417969 L 682.976562 234.917969 L 682.882812 233.644531 L 682.449219 232.109375 L 680.636719 229.929688 L 679.914062 228.550781 L 680.664062 228.046875 L 681.21875 225.65625 L 680.023438 223.84375 L 678.265625 221.835938 L 676.796875 219.425781 L 677.707031 218.925781 L 678.3125 215.953125 L 679.933594 215.828125 L 681.097656 214.636719 L 682.320312 214 L 683.464844 214.847656 L 683.867188 216.5 L 685.457031 216.628906 L 685.335938 219.523438 L 685.753906 221.988281 L 687.972656 220.347656 L 688.742188 220.835938 L 690.09375 220.753906 L 690.417969 219.796875 L 692.210938 219.988281 L 694.320312 222.21875 L 694.855469 224.933594 L 697.074219 227.324219 L 697.269531 229.648438 L 696.660156 230.886719 L 694.414062 230.492188 L 691.445312 231.019531 L 690.207031 233.300781 Z M 700.152344 210.875 L 697.496094 213.230469 L 696.015625 215.832031 L 695.824219 217.738281 L 698.066406 220.636719 L 700.789062 224.230469 L 703.152344 225.925781 L 704.878906 228.132812 L 706.59375 233.210938 L 706.808594 238.039062 L 705.027344 239.84375 L 702.492188 241.609375 L 700.765625 243.894531 L 698.023438 246.449219 L 697.035156 244.691406 L 697.546875 242.832031 L 695.667969 241.277344 L 697.605469 240.171875 L 700.058594 239.972656 L 698.863281 238.3125 L 702.601562 236.199219 L 702.519531 232.914062 L 701.757812 231.082031 L 701.832031 228.335938 L 700.980469 226.398438 L 698.945312 224.484375 L 697.117188 222.066406 L 694.679688 218.816406 L 691.625 217.171875 L 692.128906 216.179688 L 693.492188 215.460938 L 692.175781 213.0625 L 689.320312 213.039062 L 687.832031 210.539062 L 686.078125 208.363281 L 687.191406 207.691406 L 689.035156 207.707031 L 691.21875 207.386719 L 692.894531 205.921875 L 694.210938 206.953125 L 696.421875 207.457031 L 696.371094 209.042969 L 697.6875 210.160156 Z M 700.152344 210.875 "/>
</svg>
