<?xml version="1.0" encoding="UTF-8"?>
<svg xmlns="http://www.w3.org/2000/svg" xmlns:xlink="http://www.w3.org/1999/xlink" width="900pt" height="540pt" viewBox="0 0 900 540">
<path fill-rule="evenodd" fill="rgb(0%, 0%, 0%)" fill-opacity="1" d="M 242.148438 221.175781 L 242.183594 220.773438 L 242.480469 220.644531 L 242.863281 220.96875 L 243.914062 219.3125 L 244.363281 219.273438 L 244.316406 219.679688 L 244.757812 219.691406 L 244.621094 220.4375 L 244.089844 221.628906 L 244.242188 222.050781 L 243.875 223.035156 L 243.992188 223.300781 L 243.554688 224.6875 L 243.007812 225.417969 L 242.578125 225.503906 L 242.003906 226.453125 L 241.304688 226.457031 L 241.855469 223.355469 Z M 304.320312 181.230469 L 304.300781 181.238281 L 304.285156 181.242188 L 304.253906 181.222656 L 304.234375 181.234375 L 304.25 181.246094 L 304.277344 181.269531 L 304.304688 181.285156 L 304.261719 181.304688 L 304.242188 181.320312 L 304.203125 181.339844 L 304.191406 181.339844 L 304.183594 181.363281 L 304.160156 181.375 L 304.121094 181.375 L 304.097656 181.355469 L 304.117188 181.328125 L 304.089844 181.316406 L 304.101562 181.300781 L 304.117188 181.269531 L 304.144531 181.261719 L 304.136719 181.246094 L 304.179688 181.210938 L 304.203125 181.183594 L 304.210938 181.167969 L 304.160156 181.21875 L 304.128906 181.238281 L 304.121094 181.226562 L 304.109375 181.238281 L 304.097656 181.238281 L 304.089844 181.277344 L 304.070312 181.300781 L 304.078125 181.359375 L 304.101562 181.398438 L 304.128906 181.394531 L 304.152344 181.390625 L 304.15625 181.394531 L 304.171875 181.398438 L 304.1875 181.394531 L 304.203125 181.378906 L 304.226562 181.371094 L 304.277344 181.34375 L 304.316406 181.328125 L 304.34375 181.289062 L 304.367188 181.277344 L 304.398438 181.25 L 304.457031 181.210938 L 304.476562 181.203125 L 304.519531 181.175781 L 304.5625 181.160156 L 304.617188 181.125 L 304.625 181.113281 L 304.613281 181.089844 L 304.636719 181.082031 L 304.652344 181.058594 L 304.621094 181.039062 L 304.609375 181.007812 L 304.574219 181.015625 L 304.542969 181.039062 L 304.519531 181.058594 L 304.503906 181.0625 L 304.511719 181.085938 L 304.523438 181.085938 L 304.539062 181.074219 L 304.550781 181.078125 L 304.554688 181.097656 L 304.5625 181.101562 L 304.5625 181.078125 L 304.570312 181.078125 L 304.597656 181.085938 L 304.609375 181.113281 L 304.574219 181.144531 L 304.539062 181.15625 L 304.5 181.132812 L 304.488281 181.097656 L 304.480469 181.097656 L 304.472656 181.109375 L 304.457031 181.121094 L 304.4375 181.128906 L 304.429688 181.136719 L 304.417969 181.164062 L 304.414062 181.1875 L 304.402344 181.199219 L 304.375 181.214844 L 304.34375 181.226562 Z M 215.53125 48.480469 L 684.46875 48.480469 L 704.316406 50.496094 L 719.609375 54.140625 L 732.027344 58.847656 L 742.679688 64.234375 L 761.222656 76.203125 L 778.039062 89.109375 L 793.828125 102.671875 L 808.511719 116.808594 L 821.871094 131.453125 L 833.734375 146.492188 L 844.035156 161.800781 L 852.792969 177.253906 L 860.050781 192.761719 L 865.882812 208.265625 L 870.347656 223.742188 L 873.5 239.183594 L 875.375 254.597656 L 876 270 L 875.375 285.402344 L 873.5 300.816406 L 870.347656 316.257812 L 865.882812 331.734375 L 860.050781 347.238281 L 852.792969 362.746094 L 844.035156 378.199219 L 833.734375 393.507812 L 821.871094 408.546875 L 808.511719 423.191406 L 793.828125 437.328125 L 778.039062 450.890625 L 761.222656 463.796875 L 742.679688 475.765625 L 732.027344 481.152344 L 719.609375 485.859375 L 704.316406 489.503906 L 684.46875 491.519531 L 215.53125 491.519531 L 195.683594 489.503906 L 180.390625 485.859375 L 167.972656 481.152344 L 157.320312 475.765625 L 138.777344 463.796875 L 121.960938 450.890625 L 106.171875 437.328125 L 91.488281 423.191406 L 78.128906 408.546875 L 66.265625 393.507812 L 55.964844 378.199219 L 47.207031 362.746094 L 39.949219 347.238281 L 34.117188 331.734375 L 29.652344 316.257812 L 26.5 300.816406 L 24.625 285.402344 L 24 270 L 24.625 254.597656 L 26.5 239.183594 L 29.652344 223.742188 L 34.117188 208.265625 L 39.949219 192.761719 L 47.207031 177.253906 L 55.964844 161.800781 L 66.265625 146.492188 L 78.128906 131.453125 L 91.488281 116.808594 L 106.171875 102.671875 L 121.960938 89.109375 L 138.777344 76.203125 L 157.320312 64.234375 L 167.972656 58.847656 L 180.390625 54.140625 L 195.683594 50.496094 Z M 315.378906 142.316406 L 316.816406 142.675781 L 318.796875 142.601562 L 317.46875 143.707031 L 316.636719 143.882812 L 314.253906 142.738281 L 313.96875 141.839844 L 314.992188 141.011719 Z M 321.160156 135.484375 L 320.128906 135.53125 L 317.671875 134.695312 L 316.105469 133.441406 L 316.890625 133.21875 L 319.425781 133.882812 L 321.234375 134.996094 Z M 191.652344 137.066406 L 190.394531 137.4375 L 187.636719 136.226562 L 187.546875 135.285156 L 186.222656 134.351562 L 186.289062 133.597656 L 184.4375 133.121094 L 184.503906 131.679688 L 185.050781 131.066406 L 186.871094 131.644531 L 187.902344 132.046875 L 189.679688 132.324219 L 189.851562 133.238281 L 190.152344 134.5 L 191.609375 135.597656 Z M 334.074219 131.289062 L 332.089844 133.605469 L 333.679688 132.707031 L 334.925781 133.277344 L 333.960938 134.203125 L 335.621094 134.929688 L 336.742188 134.28125 L 338.617188 135.101562 L 337.5 137.050781 L 339.070312 136.59375 L 339.003906 138.007812 L 339.269531 139.671875 L 337.847656 142.03125 L 336.867188 142.132812 L 335.59375 141.625 L 336.5625 139.433594 L 336.058594 139.09375 L 333.066406 141.417969 L 331.828125 141.324219 L 333.617188 140.0625 L 331.757812 139.414062 L 329.457031 139.570312 L 325.398438 139.492188 L 325.28125 138.699219 L 326.832031 137.757812 L 326.113281 137.03125 L 328.289062 135.429688 L 331.566406 131.207031 L 333.253906 129.703125 L 335.28125 128.796875 L 336.203125 128.914062 L 335.617188 129.628906 Z M 181.683594 122.507812 L 183.765625 122.300781 L 181.175781 125.253906 L 181.578125 127.359375 L 180.765625 127.351562 L 180.316406 126.15625 L 180.355469 124.953125 L 179.875 124.140625 L 180.277344 122.996094 L 180.964844 122.167969 Z M 298.929688 101.972656 L 297.554688 103.265625 L 296.808594 103.058594 L 296.667969 102.320312 L 296.839844 102.152344 L 297.941406 101.414062 L 298.695312 101.46875 Z M 294.601562 100.617188 L 291.683594 101.972656 L 290.367188 101.914062 L 290.296875 101.25 L 292.292969 100.121094 L 294.882812 100.144531 Z M 292.300781 93.484375 L 292.054688 94.539062 L 293.210938 94.167969 L 293.945312 94.796875 L 295.539062 95.621094 L 297.28125 96.375 L 296.84375 97.527344 L 298.324219 97.335938 L 299.253906 98.140625 L 297.191406 98.90625 L 294.558594 98.320312 L 294.082031 97.230469 L 291.527344 98.519531 L 288.167969 99.78125 L 288.289062 98.355469 L 285.609375 98.589844 L 287.90625 97.390625 L 289.203125 95.488281 L 291.070312 93.289062 Z M 311.3125 89.9375 L 309.199219 90.054688 L 309.351562 88.902344 L 310.820312 87.585938 L 312.648438 87.261719 L 313.726562 87.910156 L 313.226562 88.914062 L 312.855469 89.238281 Z M 278.179688 85.347656 L 276.511719 86.164062 L 274.566406 85.457031 L 272.925781 85.710938 L 271.203125 84.667969 L 273.285156 83.953125 L 275.238281 82.953125 L 276.667969 83.605469 L 277.453125 84.023438 L 277.6875 84.460938 Z M 287.921875 84.441406 L 286.402344 86.820312 L 289.957031 84.996094 L 291.175781 86.492188 L 289.578125 88.230469 L 290.386719 89.820312 L 293.296875 88.117188 L 295.820312 86.097656 L 297.460938 83.554688 L 299.886719 83.730469 L 302.324219 84.070312 L 304.0625 85.222656 L 303.511719 86.375 L 301.460938 87.621094 L 302.035156 88.878906 L 301.167969 90.027344 L 296.660156 91.683594 L 293.894531 92.050781 L 292.398438 91.335938 L 291.164062 92.53125 L 288.230469 94.546875 L 287.089844 95.601562 L 283.992188 97.234375 L 281.214844 97.398438 L 279.140625 98.421875 L 278.113281 100.007812 L 275.734375 100.3125 L 272.265625 102.300781 L 268.605469 105.085938 L 266.753906 107.046875 L 265.039062 109.957031 L 267.6875 110.375 L 267.320312 112.742188 L 267.25 114.671875 L 270.273438 114.167969 L 273.40625 115.269531 L 274.921875 116.242188 L 275.769531 117.453125 L 277.941406 118.160156 L 279.570312 119.242188 L 282.816406 119.390625 L 284.886719 119.640625 L 283.59375 121.878906 L 283.125 124.492188 L 283.414062 127.417969 L 285.488281 129.914062 L 287.402344 129.054688 L 289.550781 126.359375 L 290.132812 122.242188 L 289.269531 120.882812 L 292.992188 119.671875 L 296.007812 117.867188 L 297.851562 116.082031 L 298.410156 114.375 L 297.996094 112.21875 L 296.460938 110.320312 L 299.949219 107.691406 L 300.140625 105.433594 L 301.328125 101.578125 L 302.925781 101.011719 L 305.871094 101.675781 L 307.71875 101.917969 L 309.589844 101.273438 L 310.988281 102.101562 L 312.710938 103.53125 L 312.875 104.492188 L 316.222656 104.679688 L 315.296875 106.769531 L 314.660156 109.9375 L 316.289062 110.328125 L 317.132812 111.816406 L 320.503906 110.414062 L 323.425781 107.644531 L 325.152344 106.484375 L 325.820312 108.71875 L 327.203125 111.929688 L 328.328125 114.976562 L 326.992188 116.578125 L 329.164062 118.027344 L 330.496094 119.496094 L 333.492188 120.164062 L 334.53125 120.988281 L 334.6875 123.179688 L 336.164062 123.527344 L 336.703125 124.507812 L 336.035156 127.445312 L 334.277344 128.433594 L 332.550781 129.355469 L 328.898438 130.292969 L 325.691406 132.464844 L 322.066406 132.894531 L 317.796875 132.335938 L 314.699219 132.316406 L 312.496094 132.5 L 310.171875 134.402344 L 307.152344 135.582031 L 303.042969 139.113281 L 299.867188 141.585938 L 301.792969 141.144531 L 306.230469 137.628906 L 311.289062 135.40625 L 314.484375 135.144531 L 315.949219 136.449219 L 313.457031 138.238281 L 313.308594 141.125 L 313.441406 143.152344 L 315.839844 144.5 L 319.449219 144.109375 L 322.347656 141.085938 L 321.996094 143.035156 L 323.117188 144.007812 L 320.050781 145.777344 L 314.921875 147.382812 L 312.523438 148.480469 L 309.632812 150.429688 L 308.050781 150.230469 L 308.566406 147.9375 L 312.859375 145.703125 L 309.429688 145.792969 L 306.972656 146.121094 L 306.003906 144.597656 L 307.054688 140.929688 L 306.347656 140.15625 L 304.796875 140.613281 L 304.308594 139.90625 L 302.09375 141.929688 L 300.832031 144.023438 L 299.722656 145.25 L 298.695312 145.667969 L 297.976562 145.804688 L 297.570312 146.46875 L 293.640625 146.472656 L 290.394531 146.492188 L 289.28125 146.988281 L 286.433594 148.9375 L 286.101562 149.148438 L 285.097656 150.203125 L 283.128906 150.203125 L 281.015625 150.214844 L 279.914062 150.644531 L 280.097656 151.179688 L 280.039062 152.007812 L 279.914062 152.28125 L 276.6875 153.636719 L 274.332031 154.0625 L 271.375 155.515625 L 270.832031 155.515625 L 270.226562 155.085938 L 270.105469 154.699219 L 270.242188 154.414062 L 271.011719 153.460938 L 272.496094 151.964844 L 273.632812 150.363281 L 273.964844 148.007812 L 274.328125 145.554688 L 272.546875 144.289062 L 272.976562 143.808594 L 272.78125 143.480469 L 272.199219 143.480469 L 271.921875 143.054688 L 272.039062 142.417969 L 271.53125 142.695312 L 270.992188 142.613281 L 271.21875 142.347656 L 270.8125 142.082031 L 270.863281 141.375 L 269.542969 140.515625 L 268.171875 139.625 L 266.507812 138.589844 L 264.917969 137.621094 L 262.746094 138.375 L 262.050781 138.402344 L 259.75 137.707031 L 257.910156 138.054688 L 256.21875 137.226562 L 254.261719 136.804688 L 252.871094 136.640625 L 252.410156 136.1875 L 252.667969 134.726562 L 251.960938 134.742188 L 251.511719 135.761719 L 193.773438 135.761719 L 193.496094 135.753906 L 190.953125 133.148438 L 190.140625 132.003906 L 187.054688 130.910156 L 187.335938 128.578125 L 188.636719 126.96875 L 186.734375 125.851562 L 187.746094 123.75 L 186.554688 121.867188 L 187.417969 120.53125 L 189.386719 119.289062 L 190.457031 117.664062 L 188.226562 116.035156 L 188.328125 113.128906 L 188.464844 111.316406 L 187.539062 110.179688 L 187.023438 109.148438 L 187.015625 107.851562 L 184.417969 108.664062 L 181.410156 110.066406 L 180.996094 108.417969 L 180.53125 107.320312 L 179.214844 106.632812 L 177.371094 106.558594 L 189.675781 92.664062 L 198.136719 83.949219 L 200.914062 84.503906 L 202.652344 85.621094 L 204.320312 85.835938 L 206.824219 84.867188 L 209.6875 84.144531 L 212.074219 84.425781 L 215.707031 83.410156 L 219.160156 82.839844 L 219.496094 83.792969 L 221.324219 83.253906 L 222.722656 82.171875 L 223.722656 82.417969 L 224.863281 84.484375 L 228.636719 82.917969 L 227.324219 84.667969 L 229.855469 84.289062 L 231.121094 83.617188 L 233.167969 83.75 L 235.070312 84.722656 L 238.554688 85.570312 L 240.707031 85.964844 L 242.59375 85.816406 L 244.082031 87 L 240.609375 88.160156 L 243.5 88.664062 L 248.621094 88.386719 L 250.480469 87.976562 L 251.363281 89.386719 L 254.226562 88.195312 L 253.121094 87.203125 L 254.890625 86.402344 L 257.164062 86.296875 L 258.78125 86.0625 L 259.824219 86.621094 L 260.722656 87.890625 L 262.878906 87.703125 L 265.34375 88.761719 L 268.425781 88.390625 L 271.039062 88.445312 L 271.820312 86.988281 L 273.707031 86.578125 L 275.972656 87.371094 L 274.496094 89.597656 L 276.886719 87.71875 L 278.300781 87.78125 L 280.664062 85.4375 L 279.703125 84.007812 L 278.257812 83.078125 L 280.175781 80.546875 L 283.421875 78.902344 L 285.476562 79.265625 L 286.558594 80.265625 L 287.230469 82.84375 L 284.902344 83.976562 Z M 252.59375 76.210938 L 250.808594 77.257812 L 255.257812 76.582031 L 256.707031 77.710938 L 259.636719 76.570312 L 260.605469 77.300781 L 260.222656 79.511719 L 261.859375 78.578125 L 262.515625 76.285156 L 264.308594 75.957031 L 265.730469 76.3125 L 266.9375 77.214844 L 266.292969 79.40625 L 265.597656 81.007812 L 267.714844 82.140625 L 270.121094 83.226562 L 269.195312 84.242188 L 266.125 84.429688 L 266.621094 85.320312 L 265.402344 86.171875 L 262.410156 85.808594 L 259.78125 85.179688 L 257.589844 85.320312 L 253.613281 86.109375 L 248.773438 86.460938 L 245.390625 86.679688 L 245.289062 85.582031 L 243.347656 84.945312 L 241.542969 85.207031 L 240.855469 83.375 L 242.25 83.128906 L 245.324219 82.738281 L 247.742188 82.839844 L 250.390625 82.441406 L 247.398438 81.90625 L 243.460938 82.089844 L 240.984375 82.042969 L 240.777344 81.199219 L 245.652344 80.289062 L 242.910156 80.320312 L 240.367188 79.722656 L 243.34375 78.03125 L 245.359375 77.140625 L 251.210938 75.78125 Z M 269.851562 75.550781 L 267.136719 77.019531 L 265.71875 75.460938 L 266.5625 75.152344 L 268.941406 75.0625 Z M 317.976562 76.253906 L 317.769531 76.871094 L 315.964844 76.804688 L 314.125 76.757812 L 312.042969 77.058594 L 311.625 76.921875 L 310.453125 75.742188 L 311.03125 74.945312 L 311.953125 74.796875 L 315.738281 75.035156 Z M 300.382812 76.132812 L 300.824219 77.523438 L 303.609375 75.726562 L 308.566406 74.816406 L 310.074219 77.113281 L 308.914062 78.585938 L 312.761719 77.933594 L 314.9375 77.042969 L 318.136719 78.175781 L 319.9375 79.25 L 319.621094 80.238281 L 323.164062 79.726562 L 324.230469 81.175781 L 328.042969 82.078125 L 329.132812 83.003906 L 329.785156 85.164062 L 325.964844 86.25 L 329.507812 87.777344 L 332.15625 88.289062 L 333.832031 90.457031 L 336.644531 90.617188 L 335.382812 92.28125 L 330.976562 95.0625 L 329.121094 94.039062 L 327.21875 91.742188 L 324.703125 92.039062 L 323.851562 93.40625 L 325.1875 94.800781 L 327.238281 95.90625 L 327.738281 96.550781 L 327.964844 98.953125 L 326.601562 100.707031 L 324.480469 100.042969 L 320.578125 98.09375 L 322.347656 100.191406 L 323.710938 101.671875 L 323.671875 102.53125 L 318.910156 101.550781 L 315.453125 100.128906 L 313.695312 98.9375 L 314.667969 98.253906 L 312.441406 97.003906 L 310.273438 95.835938 L 309.964844 96.535156 L 304.363281 96.921875 L 303.195312 96.089844 L 305.324219 94.316406 L 308.835938 94.277344 L 312.804688 93.96875 L 312.605469 93.113281 L 313.835938 91.925781 L 317.347656 89.617188 L 317.363281 88.574219 L 317.066406 87.769531 L 314.878906 86.632812 L 311.648438 85.84375 L 313.113281 85.253906 L 312.003906 83.816406 L 310.503906 83.683594 L 309.539062 82.898438 L 308.199219 83.578125 L 304.792969 83.875 L 298.605469 83.359375 L 295.257812 82.683594 L 292.597656 82.339844 L 291.644531 81.535156 L 294.171875 80.496094 L 291.675781 80.484375 L 292.660156 78.195312 L 295.371094 76.195312 L 297.773438 75.289062 L 302.613281 74.699219 Z M 277.734375 74.613281 L 279.417969 75.078125 L 282.699219 74.796875 L 282.65625 75.4375 L 280.238281 76.503906 L 282.144531 77.464844 L 280.355469 79.492188 L 276.835938 80.371094 L 275.28125 80.179688 L 274.707031 79.316406 L 271.695312 77.578125 L 272.289062 76.863281 L 275.617188 77.140625 L 274.847656 75.683594 Z M 288.296875 76.992188 L 285.234375 78.667969 L 283.300781 78.585938 L 283.652344 76.617188 L 284.5 75.511719 L 286.105469 74.570312 L 288.261719 73.972656 L 291.769531 74.046875 L 294.65625 74.582031 L 290.671875 76.558594 Z M 238.152344 80.121094 L 232.53125 81.214844 L 232.503906 80.21875 L 229.566406 79.019531 L 231.21875 78.066406 L 233.984375 76.433594 L 236.898438 74.972656 L 236.554688 73.625 L 242.664062 73.285156 L 244.660156 73.738281 L 248.914062 73.859375 L 249.984375 74.496094 L 250.976562 75.425781 L 248.304688 75.984375 L 242.628906 77.554688 L 239.039062 79.132812 Z M 291.183594 72.128906 L 289.613281 72.96875 L 287.265625 72.808594 L 285.648438 72.242188 L 287.328125 71.269531 L 290.21875 70.6875 L 291.097656 71.445312 Z M 286.007812 68.410156 L 286.445312 69.386719 L 285.582031 70.484375 L 283.503906 72.085938 L 280.523438 72.308594 L 278.988281 71.960938 L 280.078125 70.703125 L 277.175781 70.867188 L 278.511719 69.21875 L 280.253906 69.285156 L 283.402344 68.566406 L 285.640625 68.6875 Z M 268.804688 69.503906 L 268.761719 70.265625 L 270.582031 69.90625 L 272.257812 70 L 271.613281 71.050781 L 269.683594 72.074219 L 263.636719 72.410156 L 258.492188 73.355469 L 255.851562 73.402344 L 256.289062 72.691406 L 260.703125 71.730469 L 252.804688 71.992188 L 250.808594 71.601562 L 255.179688 69.511719 L 257.347656 68.917969 L 261.347656 69.632812 L 263.132812 70.898438 L 265.929688 71.0625 L 265.441406 69.023438 L 267.710938 68.253906 L 269.195312 68.496094 Z M 293.03125 67.617188 L 294.308594 68.292969 L 297.585938 68.285156 L 298.472656 68.980469 L 297.460938 69.777344 L 299.015625 70.257812 L 299.699219 70.769531 L 301.902344 70.863281 L 304.234375 71.042969 L 307.246094 70.578125 L 310.804688 70.394531 L 313.433594 70.546875 L 314.691406 71.355469 L 314.480469 72.25 L 313.039062 72.828125 L 310.191406 73.296875 L 308.183594 73.03125 L 303.0625 73.367188 L 299.53125 73.40625 L 296.972656 73.136719 L 292.96875 72.4375 L 293.292969 71.25 L 293.917969 70.183594 L 292.980469 69.253906 L 289.738281 68.996094 L 288.359375 68.34375 L 289.726562 67.484375 Z M 258.566406 66.480469 L 256.652344 68.082031 L 254.617188 68.808594 L 252.953125 68.914062 L 248.910156 69.820312 L 245.882812 70.148438 L 244.09375 69.6875 L 248.613281 68.105469 L 253.476562 66.757812 L 255.976562 66.785156 Z M 295.175781 66.742188 L 294.375 66.800781 L 291.398438 66.667969 L 291.472656 66.09375 L 294.757812 66.121094 L 295.578125 66.503906 Z M 268.578125 66.375 L 264.894531 66.96875 L 263.144531 66.304688 L 265.167969 65.648438 L 267.78125 65.441406 L 269.757812 65.761719 Z M 271.367188 64.53125 L 268.957031 64.925781 L 266.25 64.925781 L 266.589844 64.636719 L 268.921875 64.035156 L 269.691406 64.125 Z M 292.878906 65.636719 L 290.066406 66.058594 L 289.167969 65.585938 L 289.1875 64.824219 L 289.863281 63.992188 L 291.886719 64.070312 L 292.707031 64.203125 L 293.996094 64.902344 Z M 286.464844 65.09375 L 286.296875 65.945312 L 283.832031 65.714844 L 281.78125 65.054688 L 278.21875 64.980469 L 280.402344 64.378906 L 278.941406 63.898438 L 279.632812 63.136719 L 282.519531 63.40625 L 286.160156 64.132812 Z M 310.101562 62.433594 L 311.476562 63.066406 L 308.734375 63.65625 L 304.417969 65.167969 L 301.398438 65.316406 L 298.238281 65.054688 L 297.238281 64.234375 L 297.941406 63.507812 L 299.722656 62.984375 L 296.757812 62.996094 L 295.632812 62.347656 L 295.523438 61.472656 L 297.535156 60.625 L 299.265625 60.050781 L 301.027344 59.921875 L 300.816406 59.5 L 304.582031 59.40625 L 305.527344 60.398438 L 307.785156 60.800781 L 310.039062 61.160156 Z M 345.160156 56.160156 L 349.125 56.289062 L 352.214844 56.503906 L 354.621094 56.96875 L 354.160156 57.429688 L 349.734375 58.191406 L 345.65625 58.554688 L 343.898438 58.960938 L 347.320312 58.949219 L 342.714844 60.066406 L 339.710938 60.597656 L 335.773438 62.160156 L 332.210938 62.484375 L 330.878906 62.882812 L 325.832031 63.09375 L 327.867188 63.34375 L 326.472656 63.699219 L 327.078125 64.6875 L 325.015625 65.382812 L 322.0625 65.957031 L 320.695312 66.765625 L 317.941406 67.386719 L 317.832031 67.859375 L 320.726562 67.777344 L 320.40625 68.289062 L 315.070312 69.554688 L 311.113281 68.972656 L 305.964844 69.296875 L 303.667969 69.042969 L 300.597656 68.933594 L 301.1875 67.921875 L 304.628906 67.449219 L 305.023438 65.957031 L 306.144531 65.816406 L 309.832031 66.703125 L 308.644531 65.386719 L 306.320312 64.996094 L 308.304688 64.21875 L 311.59375 63.742188 L 312.652344 63.050781 L 311.0625 62.285156 L 311.3125 61.292969 L 315.597656 61.375 L 316.667969 61.582031 L 319.792969 60.886719 L 316.417969 60.667969 L 310.742188 60.789062 L 308.582031 60.148438 L 308.0625 59.398438 L 306.824219 58.863281 L 307.191406 58.25 L 309.902344 57.914062 L 311.785156 57.855469 L 315.164062 57.570312 L 318.199219 56.925781 L 320.003906 57.015625 L 321.121094 57.5 L 323.359375 56.574219 L 325.703125 56.304688 L 328.667969 56.121094 L 333.421875 56.050781 L 334.035156 56.230469 L 338.761719 55.949219 L 341.957031 56.054688 Z M 254.261719 247.476562 L 253.015625 246.867188 L 252.570312 246.292969 L 252.871094 245.816406 L 252.820312 245.210938 L 252.207031 244.554688 L 251.3125 244.015625 L 250.523438 243.664062 L 250.421875 242.863281 L 249.839844 242.371094 L 249.9375 243.167969 L 249.421875 243.824219 L 248.933594 243.0625 L 248.195312 242.792969 L 247.914062 242.242188 L 247.984375 241.40625 L 248.359375 240.542969 L 247.722656 240.15625 L 248.304688 239.625 L 248.683594 239.273438 L 250.179688 240 L 250.75 239.640625 L 251.476562 239.871094 L 251.824219 240.433594 L 252.507812 240.617188 L 253.113281 240.035156 L 253.601562 241.527344 L 254.4375 242.628906 L 255.46875 243.800781 L 254.542969 244.042969 L 254.488281 245.148438 L 254.953125 245.554688 L 254.582031 245.878906 L 254.644531 246.375 L 254.417969 246.929688 Z M 260.214844 206.371094 L 262.175781 206.566406 L 263.984375 206.597656 L 266.011719 207.535156 L 266.785156 208.546875 L 268.988281 208.234375 L 269.710938 208.882812 L 271.433594 210.585938 L 272.707031 211.828125 L 273.476562 211.789062 L 274.785156 212.351562 L 274.515625 213.125 L 276.210938 213.238281 L 277.824219 214.367188 L 277.46875 215.011719 L 275.882812 215.359375 L 274.304688 215.496094 L 272.730469 215.277344 L 269.371094 215.546875 L 271.121094 214.011719 L 270.269531 213.296875 L 268.796875 213.113281 L 268.101562 212.316406 L 267.769531 210.75 L 266.445312 210.859375 L 264.390625 210.121094 L 263.78125 209.542969 L 260.828125 209.113281 L 260.101562 208.578125 L 261.074219 207.890625 L 258.828125 207.75 L 256.949219 209.179688 L 255.984375 209.21875 L 255.554688 209.890625 L 254.363281 210.191406 L 253.414062 209.929688 L 254.761719 209.078125 L 255.417969 208.085938 L 256.558594 207.472656 L 257.820312 206.9375 L 259.609375 206.671875 Z M 283.363281 215.933594 L 283.707031 215.464844 L 285.519531 215.476562 L 286.816406 216.1875 L 287.4375 216.117188 L 287.75 217.09375 L 289.027344 217.039062 L 288.867188 217.859375 L 289.890625 217.957031 L 290.929688 218.964844 L 289.949219 220.085938 L 288.902344 219.488281 L 287.820312 219.601562 L 287.070312 219.472656 L 286.597656 219.972656 L 285.683594 220.144531 L 285.398438 219.476562 L 284.589844 219.871094 L 283.460938 221.753906 L 282.90625 221.316406 L 282.867188 220.527344 L 282.996094 219.777344 L 282.484375 218.953125 L 283.101562 218.488281 L 283.398438 217.433594 Z M 243.953125 233.328125 L 243.628906 233.972656 L 242.273438 233.933594 L 241.453125 233.667969 L 240.535156 233.125 L 239.25 232.953125 L 238.640625 232.363281 L 238.753906 231.960938 L 239.628906 231.269531 L 240.101562 230.964844 L 240.007812 230.640625 L 240.574219 230.472656 L 241.242188 230.703125 L 241.691406 231.253906 L 242.355469 231.691406 L 242.40625 232.0625 L 243.46875 231.734375 L 243.929688 231.929688 L 244.21875 232.226562 Z M 377.882812 56.96875 L 383.695312 55.964844 L 389.007812 56.039062 L 391.316406 55.433594 L 396.773438 55.28125 L 408.800781 55.480469 L 417.902344 56.800781 L 414.851562 57.460938 L 408.898438 57.539062 L 400.484375 57.710938 L 401.136719 58.023438 L 406.714844 57.832031 L 411.199219 58.441406 L 414.390625 57.898438 L 415.503906 58.539062 L 413.484375 59.597656 L 417.667969 58.917969 L 425.417969 58.21875 L 430.035156 58.566406 L 430.796875 59.339844 L 424.132812 60.667969 L 423.152344 61.101562 L 417.988281 61.433594 L 421.667969 61.527344 L 419.515625 62.945312 L 417.960938 64.230469 L 417.585938 66.496094 L 419.335938 67.851562 L 416.726562 67.9375 L 413.867188 68.601562 L 416.75 69.726562 L 416.84375 71.546875 L 415 71.746094 L 416.898438 73.621094 L 413.074219 73.777344 L 414.914062 74.671875 L 414.222656 75.449219 L 411.734375 75.792969 L 409.328125 75.800781 L 411.230469 77.3125 L 411.085938 78.308594 L 407.804688 77.382812 L 406.792969 77.980469 L 409.046875 78.542969 L 411.109375 79.925781 L 411.480469 81.761719 L 408.25 82.203125 L 407.039062 81.320312 L 405.097656 80.011719 L 405.414062 81.558594 L 403.128906 82.761719 L 407.796875 82.859375 L 410.226562 82.984375 L 405.101562 84.996094 L 399.867188 86.832031 L 394.40625 87.640625 L 392.40625 87.648438 L 390.328125 88.554688 L 387.21875 91.046875 L 382.867188 92.714844 L 381.566406 92.8125 L 378.957031 93.402344 L 376.152344 93.960938 L 374.167969 95.445312 L 373.699219 97.140625 L 372.332031 98.734375 L 368.734375 100.6875 L 368.996094 102.605469 L 367.605469 104.648438 L 365.992188 107.078125 L 363.222656 107.230469 L 360.921875 105.195312 L 357.074219 105.183594 L 355.609375 103.824219 L 355.066406 101.421875 L 352.753906 98.382812 L 352.324219 96.800781 L 352.800781 94.636719 L 351.003906 92.429688 L 352.292969 90.675781 L 351.375 89.839844 L 354.179688 87.09375 L 357.214844 86.226562 L 358.273438 85.253906 L 359.304688 83.445312 L 356.960938 84.265625 L 355.859375 84.609375 L 354.125 84.9375 L 352.21875 84.183594 L 352.714844 82.617188 L 353.890625 81.398438 L 355.542969 81.367188 L 358.921875 81.976562 L 356.441406 80.523438 L 355.175781 79.75 L 353.296875 80.066406 L 352.0625 79.503906 L 354.886719 77.40625 L 354.179688 76.574219 L 353.476562 75.039062 L 352.472656 72.714844 L 350.710938 71.871094 L 351.171875 70.96875 L 347.296875 69.714844 L 343.824219 69.5625 L 339.296875 69.648438 L 335.117188 69.804688 L 333.578125 69.128906 L 331.507812 67.804688 L 336.273438 67.148438 L 339.667969 67.039062 L 332.945312 66.5 L 329.808594 65.664062 L 330.585938 64.875 L 337.425781 63.90625 L 344.003906 62.953125 L 345.113281 62.242188 L 341.289062 61.546875 L 343.246094 60.789062 L 349.714844 59.484375 L 352.152344 59.289062 L 352.132812 58.472656 L 356.195312 58.003906 L 361.1875 57.726562 L 365.972656 57.710938 L 367.285156 58.261719 L 372.066406 57.292969 L 375.335938 57.949219 L 377.433594 58.089844 L 380.339844 58.671875 L 377.199219 57.710938 Z M 238.640625 232.363281 L 237.488281 231.886719 L 236.03125 231.835938 L 235.011719 231.289062 L 233.871094 230.160156 L 234.015625 229.359375 L 234.359375 228.714844 L 234.085938 228.203125 L 235.472656 225.964844 L 238.472656 225.953125 L 238.644531 225.019531 L 238.285156 224.851562 L 238.101562 224.257812 L 237.316406 223.621094 L 236.5625 222.703125 L 237.617188 222.699219 L 237.820312 221.152344 L 239.996094 221.144531 L 242.148438 221.175781 L 241.855469 223.355469 L 241.304688 226.457031 L 242.003906 226.453125 L 242.710938 226.953125 L 242.957031 226.542969 L 243.605469 226.894531 L 242.421875 227.941406 L 241.226562 228.710938 L 241.003906 229.238281 L 241.136719 229.777344 L 240.574219 230.472656 L 240.007812 230.640625 L 240.101562 230.964844 L 239.628906 231.269531 L 238.753906 231.960938 Z M 279.996094 215.382812 L 281.398438 215.503906 L 283.363281 215.933594 L 283.398438 217.433594 L 283.101562 218.488281 L 282.484375 218.953125 L 282.996094 219.777344 L 282.867188 220.527344 L 281.371094 220.058594 L 280.25 220.25 L 278.851562 220.050781 L 277.703125 220.566406 L 276.550781 219.707031 L 276.851562 218.820312 L 278.953125 219.203125 L 280.6875 219.421875 L 281.59375 218.8125 L 280.664062 217.621094 L 280.800781 216.570312 L 279.382812 216.140625 Z M 244.96875 234.421875 L 244.640625 233.566406 L 243.953125 233.328125 L 244.21875 232.226562 L 243.929688 231.929688 L 243.46875 231.734375 L 242.40625 232.0625 L 242.355469 231.691406 L 241.691406 231.253906 L 241.242188 230.703125 L 240.574219 230.472656 L 241.136719 229.777344 L 241.003906 229.238281 L 241.226562 228.710938 L 242.421875 227.941406 L 243.605469 226.894531 L 243.835938 227 L 244.402344 226.519531 L 245.074219 226.476562 L 245.269531 226.703125 L 245.644531 226.566406 L 246.707031 226.8125 L 247.792969 226.742188 L 248.582031 226.4375 L 248.890625 226.132812 L 249.617188 226.273438 L 250.15625 226.460938 L 250.777344 226.394531 L 251.265625 226.15625 L 252.292969 226.539062 L 252.660156 226.597656 L 253.316406 227.113281 L 253.929688 227.726562 L 254.738281 228.148438 L 255.277344 228.902344 L 254.480469 228.847656 L 254.117188 229.222656 L 253.265625 229.582031 L 252.675781 229.582031 L 252.121094 229.929688 L 251.667969 229.808594 L 251.308594 229.386719 L 251.054688 229.46875 L 250.691406 230.125 L 250.46875 230.097656 L 250.371094 230.664062 L 249.480469 231.421875 L 249.015625 231.746094 L 248.742188 232.085938 L 248.105469 231.53125 L 247.527344 232.265625 L 247.039062 232.246094 L 246.484375 232.308594 L 246.40625 233.660156 L 246.058594 233.683594 L 245.707031 234.3125 Z M 269.347656 219.300781 L 270.886719 219.546875 L 272.050781 220.207031 L 272.351562 220.960938 L 270.707031 221.011719 L 269.949219 221.472656 L 268.691406 221.03125 L 267.476562 220.027344 L 267.828125 219.398438 L 268.828125 219.207031 Z M 227.355469 198.980469 L 225.972656 201.402344 L 225.179688 203.382812 L 224.308594 207.074219 L 223.84375 208.421875 L 223.976562 209.921875 L 224.464844 211.265625 L 224.570312 213.402344 L 225.78125 215.449219 L 226.082031 217.019531 L 226.792969 218.371094 L 229.15625 219.101562 L 229.957031 220.253906 L 232.109375 219.484375 L 233.921875 219.207031 L 235.734375 218.710938 L 237.269531 218.242188 L 238.90625 217.117188 L 239.691406 215.515625 L 240.226562 213.203125 L 240.753906 212.398438 L 242.433594 211.675781 L 244.980469 211.039062 L 247.015625 211.132812 L 248.457031 210.902344 L 248.925781 211.484375 L 248.648438 212.808594 L 247.160156 214.445312 L 246.371094 216.121094 L 246.734375 216.601562 L 246.222656 217.789062 L 245.351562 219.933594 L 244.855469 219.230469 L 244.363281 219.273438 L 243.914062 219.3125 L 242.863281 220.96875 L 242.480469 220.644531 L 242.183594 220.773438 L 242.148438 221.175781 L 239.996094 221.144531 L 237.820312 221.152344 L 237.617188 222.699219 L 236.5625 222.703125 L 237.316406 223.621094 L 238.101562 224.257812 L 238.285156 224.851562 L 238.644531 225.019531 L 238.472656 225.953125 L 235.472656 225.964844 L 234.085938 228.203125 L 234.359375 228.714844 L 234.015625 229.359375 L 233.871094 230.160156 L 231.554688 227.203125 L 230.457031 226.308594 L 228.636719 225.59375 L 227.304688 225.792969 L 225.296875 226.828125 L 224.085938 227.097656 L 222.523438 226.375 L 220.835938 225.851562 L 218.816406 224.589844 L 217.117188 224.207031 L 214.648438 222.929688 L 212.886719 221.613281 L 212.40625 220.878906 L 211.125 220.714844 L 208.871094 219.847656 L 208.097656 218.589844 L 205.851562 217.03125 L 204.976562 215.296875 L 204.65625 213.953125 L 205.480469 213.683594 L 205.378906 212.902344 L 206.042969 212.1875 L 206.226562 211.234375 L 205.675781 210 L 205.675781 208.902344 L 205.171875 207.511719 L 203.699219 204.773438 L 201.84375 202.621094 L 201.105469 200.902344 L 199.394531 199.777344 L 199.128906 199.105469 L 199.878906 197.402344 L 198.867188 196.757812 L 197.847656 195.417969 L 197.765625 193.492188 L 196.597656 193.269531 L 195.652344 191.816406 L 194.949219 190.476562 L 195.085938 189.613281 L 194.445312 187.535156 L 194.25 185.421875 L 194.597656 184.363281 L 193.292969 183.269531 L 192.503906 183.390625 L 191.449219 182.628906 L 190.746094 183.75 L 190.722656 185.074219 L 190.335938 187.144531 L 190.785156 188.28125 L 191.9375 190.179688 L 192.132812 190.828125 L 192.425781 191.027344 L 192.46875 191.972656 L 192.886719 191.933594 L 192.871094 193.714844 L 193.382812 194.414062 L 193.621094 195.390625 L 194.707031 196.796875 L 194.847656 199.359375 L 195.246094 200.566406 L 195.589844 201.859375 L 195.390625 203.3125 L 196.480469 203.402344 L 197.128906 204.65625 L 197.707031 205.886719 L 197.546875 206.378906 L 196.367188 207.390625 L 195.960938 207.378906 L 195.703125 205.703125 L 194.53125 204.132812 L 193.167969 202.800781 L 192.152344 202.101562 L 192.695312 200.082031 L 192.703125 198.589844 L 191.820312 197.734375 L 190.554688 196.503906 L 190.164062 196.859375 L 189.765625 196.140625 L 188.527344 195.472656 L 187.601562 193.871094 L 187.824219 193.664062 L 188.71875 193.820312 L 189.839844 192.789062 L 190.261719 191.546875 L 189.054688 189.578125 L 187.9375 188.816406 L 187.601562 187.09375 L 187.300781 185.285156 L 186.929688 183.082031 L 186.796875 180.601562 L 189.421875 180.390625 L 192.367188 180.089844 L 191.988281 180.628906 L 194.96875 181.96875 L 199.527344 183.910156 L 204.019531 183.890625 L 205.808594 183.890625 L 206.140625 182.753906 L 210.042969 182.753906 L 210.589844 183.730469 L 211.5 184.601562 L 212.511719 185.816406 L 212.875 187.257812 L 213.042969 188.773438 L 214.003906 189.605469 L 215.679688 190.433594 L 217.660156 188.253906 L 219.527344 188.199219 L 220.851562 189.300781 L 221.53125 191.1875 L 221.933594 192.804688 L 222.917969 194.375 L 222.984375 196.304688 L 223.34375 197.601562 L 224.945312 198.457031 L 226.445312 199.0625 Z M 248.304688 239.625 L 247.554688 238.761719 L 246.546875 237.65625 L 246.105469 236.730469 L 245.1875 235.867188 L 244.121094 234.628906 L 244.421875 234.203125 L 244.773438 234.617188 L 244.96875 234.421875 L 245.707031 234.3125 L 246.058594 233.683594 L 246.40625 233.660156 L 246.484375 232.308594 L 247.039062 232.246094 L 247.527344 232.265625 L 248.105469 231.53125 L 248.742188 232.085938 L 249.015625 231.746094 L 249.480469 231.421875 L 250.371094 230.664062 L 250.46875 230.097656 L 250.691406 230.125 L 251.054688 229.46875 L 251.308594 229.386719 L 251.667969 229.808594 L 252.121094 229.929688 L 252.675781 229.582031 L 253.265625 229.582031 L 254.117188 229.222656 L 254.480469 228.847656 L 255.277344 228.902344 L 255.046875 229.167969 L 254.867188 229.78125 L 255.007812 230.785156 L 254.378906 231.71875 L 254.027344 232.824219 L 253.84375 234.03125 L 253.90625 234.742188 L 253.859375 235.976562 L 253.480469 236.246094 L 253.164062 237.417969 L 253.265625 238.144531 L 252.730469 238.84375 L 252.785156 239.585938 L 253.113281 240.035156 L 252.507812 240.617188 L 251.824219 240.433594 L 251.476562 239.871094 L 250.75 239.640625 L 250.179688 240 L 248.683594 239.273438 Z M 266.125 250.21875 L 265.375 249.429688 L 264.941406 247.949219 L 265.5625 247.21875 L 264.972656 247.027344 L 264.582031 246.125 L 263.449219 245.363281 L 262.410156 245.535156 L 261.875 246.488281 L 260.886719 247.179688 L 260.367188 247.273438 L 260.105469 247.84375 L 261.15625 249.332031 L 260.496094 249.683594 L 260.136719 250.085938 L 259.03125 250.226562 L 258.703125 248.589844 L 258.371094 249.054688 L 257.601562 248.894531 L 257.179688 247.792969 L 256.222656 247.609375 L 255.628906 247.289062 L 254.617188 247.292969 L 254.511719 247.890625 L 254.261719 247.476562 L 254.417969 246.929688 L 254.644531 246.375 L 254.582031 245.878906 L 254.953125 245.554688 L 254.488281 245.148438 L 254.542969 244.042969 L 255.46875 243.800781 L 256.253906 244.78125 L 256.171875 245.363281 L 257.105469 245.484375 L 257.339844 245.261719 L 257.949219 245.9375 L 259.121094 245.738281 L 260.164062 245.046875 L 261.628906 244.492188 L 262.480469 243.675781 L 263.773438 243.835938 L 263.667969 244.105469 L 264.976562 244.199219 L 266 244.671875 L 266.722656 245.496094 L 267.566406 246.253906 L 267.257812 246.65625 L 267.726562 248.269531 L 267.242188 249.082031 L 266.488281 248.886719 Z M 295.640625 219.234375 L 296.808594 219.476562 L 297.175781 220.023438 L 296.511719 220.714844 L 294.757812 220.699219 L 293.386719 220.796875 L 293.367188 219.621094 L 293.738281 219.21875 Z M 271.371094 204.796875 L 270.785156 204.933594 L 270.441406 203.347656 L 269.707031 202.546875 L 270.488281 200.800781 L 271.160156 200.910156 L 271.601562 203.199219 Z M 271.96875 197.023438 L 269.398438 197.464844 L 269.414062 196.445312 L 270.53125 196.222656 L 272.023438 196.304688 Z M 273.847656 196.996094 L 273.125 198.957031 L 272.765625 198.601562 L 273.042969 197.160156 L 272.207031 196.070312 L 272.257812 195.753906 Z M 304.808594 240.527344 L 306.179688 240.167969 L 306.667969 240.265625 L 306.46875 242.308594 L 304.488281 242.609375 L 304.078125 242.363281 L 304.796875 241.609375 Z M 88.144531 217.671875 L 87.695312 218.128906 L 87.210938 217.734375 L 87.464844 216.96875 L 87.328125 215.964844 L 87.519531 215.660156 L 88.039062 215.210938 L 88.015625 214.671875 L 88.214844 214.414062 L 88.378906 214.464844 L 89.148438 214.929688 L 89.503906 215.167969 L 89.785156 215.535156 L 90.140625 216.5 L 90.046875 216.652344 L 88.992188 217.242188 Z M 87.980469 213.378906 L 87.152344 213.574219 L 86.902344 212.992188 L 86.695312 212.769531 L 86.722656 212.597656 L 87.011719 212.363281 L 87.765625 212.625 L 88.261719 213.046875 Z M 86.796875 211.910156 L 86.644531 212.207031 L 85.425781 212.128906 L 85.6875 211.792969 Z M 84.835938 211.511719 L 84.664062 211.667969 L 84.507812 211.632812 L 83.730469 211.535156 L 83.609375 210.914062 L 83.546875 210.800781 L 84.273438 210.421875 L 84.417969 210.601562 Z M 81.425781 209.691406 L 81.074219 209.964844 L 80.4375 209.464844 L 80.617188 209.261719 L 81.046875 208.992188 L 81.5625 209.050781 Z M 252.667969 134.726562 L 252.410156 136.1875 L 252.871094 136.640625 L 254.261719 136.804688 L 256.21875 137.226562 L 257.910156 138.054688 L 259.75 137.707031 L 262.050781 138.402344 L 262.746094 138.375 L 264.917969 137.621094 L 266.507812 138.589844 L 268.171875 139.625 L 269.542969 140.515625 L 270.863281 141.375 L 270.8125 142.082031 L 271.21875 142.347656 L 270.992188 142.613281 L 271.53125 142.695312 L 272.039062 142.417969 L 271.921875 143.054688 L 272.199219 143.480469 L 272.78125 143.480469 L 272.976562 143.808594 L 272.546875 144.289062 L 274.328125 145.554688 L 273.964844 148.007812 L 273.632812 150.363281 L 272.496094 151.964844 L 271.011719 153.460938 L 270.242188 154.414062 L 270.105469 154.699219 L 270.226562 155.085938 L 270.832031 155.515625 L 271.375 155.515625 L 274.332031 154.0625 L 276.6875 153.636719 L 279.914062 152.28125 L 280.039062 152.007812 L 280.097656 151.179688 L 279.914062 150.644531 L 281.015625 150.214844 L 283.128906 150.203125 L 285.097656 150.203125 L 286.101562 149.148438 L 286.433594 148.9375 L 289.28125 146.988281 L 290.394531 146.492188 L 293.640625 146.472656 L 297.570312 146.46875 L 297.976562 145.804688 L 298.695312 145.667969 L 299.722656 145.25 L 300.832031 144.023438 L 302.09375 141.929688 L 304.308594 139.90625 L 304.796875 140.613281 L 306.347656 140.15625 L 307.054688 140.929688 L 306.003906 144.597656 L 306.972656 146.121094 L 307.101562 147.007812 L 304.464844 148.316406 L 302.011719 149.253906 L 299.527344 150.054688 L 297.953125 151.667969 L 297.421875 152.277344 L 297.015625 153.71875 L 297.347656 155.164062 L 298.230469 155.230469 L 298.261719 154.238281 L 298.753906 154.84375 L 298.378906 155.621094 L 296.800781 156.0625 L 295.773438 156.007812 L 294.042969 156.484375 L 293.0625 156.621094 L 291.765625 156.757812 L 289.746094 157.546875 L 293.070312 157.03125 L 293.582031 157.550781 L 290.324219 158.367188 L 288.933594 158.375 L 289.085938 158.039062 L 288.226562 158.796875 L 288.832031 158.921875 L 287.851562 160.886719 L 285.71875 162.992188 L 285.734375 162.289062 L 285.289062 162.148438 L 284.75 161.464844 L 284.824219 162.9375 L 285.246094 163.425781 L 285.019531 164.460938 L 284.046875 165.527344 L 282.265625 167.71875 L 282.09375 167.609375 L 283.234375 165.742188 L 282.375 164.691406 L 282.703125 162.417969 L 281.972656 163.601562 L 282 165.339844 L 280.652344 164.910156 L 281.945312 165.792969 L 281.394531 168.40625 L 281.984375 168.597656 L 281.984375 169.546875 L 281.652344 172.296875 L 279.769531 174.339844 L 277.277344 175.15625 L 275.441406 176.773438 L 274.285156 176.949219 L 272.925781 177.960938 L 272.398438 178.882812 L 269.539062 180.671875 L 267.980469 181.984375 L 266.566406 183.621094 L 265.800781 185.578125 L 265.800781 187.492188 L 266.085938 189.851562 L 266.714844 191.804688 L 266.503906 192.996094 L 267 196.195312 L 266.597656 198.054688 L 266.316406 199.128906 L 265.457031 200.8125 L 264.714844 201.160156 L 263.640625 200.824219 L 263.484375 199.613281 L 262.722656 198.980469 L 261.933594 196.609375 L 261.261719 194.5 L 261.125 193.421875 L 261.945312 191.589844 L 261.613281 190.074219 L 260.316406 187.765625 L 259.523438 187.34375 L 256.972656 188.597656 L 256.59375 188.457031 L 255.769531 187.171875 L 254.5 186.488281 L 251.867188 186.835938 L 249.925781 186.53125 L 248.15625 186.722656 L 247.125 187.152344 L 247.367188 187.882812 L 247.082031 189.003906 L 247.445312 189.546875 L 246.929688 189.910156 L 246.179688 189.503906 L 245.210938 190.027344 L 243.582031 189.941406 L 242.214844 188.484375 L 240.15625 188.828125 L 238.65625 188.1875 L 237.199219 188.382812 L 235.140625 189.027344 L 232.601562 191.070312 L 230.066406 192.257812 L 228.527344 193.578125 L 227.722656 194.816406 L 227.285156 196.71875 L 227.117188 198.042969 L 227.355469 198.980469 L 226.445312 199.0625 L 224.945312 198.457031 L 223.34375 197.601562 L 222.984375 196.304688 L 222.917969 194.375 L 221.933594 192.804688 L 221.53125 191.1875 L 220.851562 189.300781 L 219.527344 188.199219 L 217.660156 188.253906 L 215.679688 190.433594 L 214.003906 189.605469 L 213.042969 188.773438 L 212.875 187.257812 L 212.511719 185.816406 L 211.5 184.601562 L 210.589844 183.730469 L 210.042969 182.753906 L 206.140625 182.753906 L 205.808594 183.890625 L 204.019531 183.890625 L 199.527344 183.910156 L 194.96875 181.96875 L 191.988281 180.628906 L 192.367188 180.089844 L 189.421875 180.390625 L 186.796875 180.601562 L 186.878906 179.195312 L 185.953125 177.609375 L 185.019531 177.28125 L 185.046875 176.488281 L 183.839844 176.351562 L 183.296875 175.605469 L 181.320312 175.335938 L 180.910156 174.890625 L 181.179688 173.382812 L 180.046875 170.617188 L 179.6875 166.800781 L 180.019531 166.164062 L 179.410156 165.257812 L 178.660156 162.960938 L 179.308594 160.726562 L 178.792969 159.234375 L 180.277344 156.96875 L 181.269531 154.632812 L 181.554688 152.546875 L 183.621094 149.988281 L 185.085938 147.53125 L 186.582031 145.078125 L 188.074219 141.46875 L 188.636719 139.179688 L 188.707031 137.9375 L 189.25 137.414062 L 191.78125 138.324219 L 191.550781 140.851562 L 192.445312 140.140625 L 193.285156 137.949219 L 193.773438 135.761719 L 251.511719 135.761719 L 251.960938 134.742188 Z M 147.105469 114.597656 L 144.304688 115.570312 L 143.847656 114.910156 L 144.5625 113.71875 L 147.132812 112.816406 L 148.519531 112.429688 L 149.679688 112.601562 L 149.839844 113.390625 Z M 128.875 107.546875 L 127.304688 107.933594 L 126.492188 107.46875 L 125.984375 106.789062 L 128.316406 106.363281 L 129.628906 106.589844 Z M 126.96875 98.003906 L 127.625 98.464844 L 129.070312 98.214844 L 129.902344 98.859375 L 131.429688 99.183594 L 130.992188 99.449219 L 129.011719 99.964844 L 128.136719 99.433594 L 127.894531 98.992188 L 126.074219 99.132812 L 125.859375 98.917969 Z M 176.675781 80.65625 L 176.789062 81.683594 L 178.070312 81.242188 L 180.90625 81.378906 L 180.214844 81.90625 L 182.5 82.296875 L 184.558594 82.066406 L 187.519531 82.789062 L 190.714844 83.007812 L 191.769531 83.304688 L 194.527344 82.933594 L 196.523438 83.625 L 198.136719 83.949219 L 189.675781 92.664062 L 177.371094 106.558594 L 179.214844 106.632812 L 180.53125 107.320312 L 180.996094 108.417969 L 181.410156 110.066406 L 184.417969 108.664062 L 187.015625 107.851562 L 187.023438 109.148438 L 187.539062 110.179688 L 188.464844 111.316406 L 188.328125 113.128906 L 188.226562 116.035156 L 190.457031 117.664062 L 189.386719 119.289062 L 187.417969 120.53125 L 186.980469 119.5625 L 185.785156 118.738281 L 186.8125 116.503906 L 185.761719 114.4375 L 186.492188 112.039062 L 184.730469 111.875 L 181.65625 111.816406 L 179.925781 111.089844 L 177.976562 108.476562 L 176.503906 108.003906 L 173.855469 107.109375 L 170.992188 107.324219 L 168.171875 106.179688 L 166.808594 105.121094 L 164.203125 105.644531 L 163.082031 107.375 L 161.871094 107.535156 L 159.167969 108.058594 L 156.714844 108.902344 L 154.089844 109.4375 L 155.117188 107.960938 L 158.179688 105.515625 L 160.917969 104.75 L 160.957031 104.128906 L 157.246094 105.511719 L 154.429688 107.167969 L 150.03125 108.949219 L 150.378906 110.167969 L 146.933594 111.980469 L 143.894531 113.042969 L 141.246094 113.816406 L 139.777344 114.945312 L 135.542969 116.261719 L 133.882812 117.464844 L 130.609375 118.5625 L 129.402344 118.363281 L 126.921875 119.082031 L 124.132812 119.960938 L 121.722656 120.824219 L 117.636719 121.5625 L 117.691406 121.128906 L 120.933594 119.921875 L 123.582031 119.125 L 126.933594 117.71875 L 129.664062 117.429688 L 131.558594 116.378906 L 135.644531 114.851562 L 136.53125 114.339844 L 138.78125 113.441406 L 140.828125 111.523438 L 143.164062 110.03125 L 140.214844 110.796875 L 139.976562 110.363281 L 138.085938 111.28125 L 137.972656 110 L 136.617188 110.90625 L 137.042969 109.648438 L 134.15625 110.65625 L 132.957031 110.65625 L 134.183594 109.15625 L 135.402344 108.238281 L 135.003906 107.347656 L 132.019531 107.828125 L 131.519531 106.65625 L 130.785156 106.058594 L 132.167969 104.648438 L 131.746094 103.59375 L 133.921875 102.179688 L 136.875 100.808594 L 138.84375 99.554688 L 140.554688 99.375 L 141.453125 99.765625 L 144.179688 98.589844 L 145.335938 98.796875 L 147.539062 98.042969 L 148.328125 96.9375 L 147.730469 96.5 L 150.082031 95.570312 L 148.910156 95.597656 L 146.378906 96.121094 L 145.25 96.65625 L 144.332031 96.121094 L 141.402344 96.394531 L 139.285156 95.816406 L 139.546875 94.847656 L 138.730469 93.453125 L 142.433594 92.453125 L 147.824219 91.292969 L 149.335938 91.292969 L 147.785156 92.480469 L 151.78125 92.386719 L 151.882812 90.914062 L 150.621094 90.011719 L 150.640625 88.835938 L 150.03125 87.832031 L 148.394531 87.09375 L 150.824219 85.871094 L 154.105469 85.792969 L 157.59375 84.738281 L 159.324219 83.609375 L 162.421875 82.515625 L 164.457031 82.253906 L 168.996094 81.238281 L 170.441406 81.390625 L 174.5625 80.179688 Z M 176.675781 80.65625 "/>
</svg>
