<?xml version="1.0" encoding="UTF-8"?>
<svg xmlns="http://www.w3.org/2000/svg" xmlns:xlink="http://www.w3.org/1999/xlink" width="900pt" height="540pt" viewBox="0 0 900 540">
<path fill-rule="evenodd" fill="rgb(0%, 0%, 0%)" fill-opacity="1" d="M 488.578125 286.09375 L 489.144531 288.136719 L 489.804688 289.777344 L 490.339844 290.664062 L 491.226562 292.097656 L 492.792969 291.875 L 493.574219 291.488281 L 494.875 291.875 L 495.234375 291.191406 L 495.847656 289.59375 L 497.3125 289.488281 L 497.445312 289.011719 L 498.648438 289.003906 L 498.433594 289.988281 L 501.296875 289.964844 L 501.316406 291.6875 L 501.78125 292.746094 L 501.40625 294.398438 L 501.554688 296.085938 L 502.320312 297.101562 L 502.136719 300.363281 L 502.722656 300.113281 L 503.746094 300.179688 L 505.210938 299.769531 L 506.277344 299.929688 L 506.507812 300.78125 L 506.210938 302.113281 L 506.597656 303.398438 L 506.222656 304.425781 L 506.398438 305.375 L 501.507812 305.339844 L 501.179688 314.074219 L 502.6875 316.324219 L 504.15625 318.039062 L 499.832031 319.160156 L 494.199219 318.769531 L 492.621094 317.453125 L 483.15625 317.574219 L 482.800781 317.765625 L 481.433594 316.523438 L 479.921875 316.441406 L 478.515625 316.910156 L 477.382812 317.429688 L 477.191406 315.703125 L 477.550781 313.289062 L 478.398438 310.773438 L 478.535156 309.59375 L 479.332031 307.121094 L 479.90625 305.996094 L 481.28125 304.203125 L 482.050781 302.980469 L 482.324219 300.949219 L 482.21875 299.394531 L 481.527344 298.414062 L 480.914062 296.75 L 480.351562 295.105469 L 480.484375 294.535156 L 481.21875 293.449219 L 480.527344 290.804688 L 480.058594 288.96875 L 478.882812 287.234375 L 479.113281 286.703125 L 480.089844 286.335938 L 480.773438 286.386719 L 481.605469 286.058594 Z M 479.390625 285.566406 L 478.785156 285.851562 L 478.164062 283.792969 L 479.125 282.613281 L 479.839844 282.152344 L 480.722656 283.089844 L 479.859375 283.667969 L 479.46875 284.371094 Z M 456.359375 252.863281 L 454.40625 253.179688 L 453.824219 251.292969 L 453.925781 245 L 453.449219 244.433594 L 453.359375 243.089844 L 452.539062 242.128906 L 451.820312 241.320312 L 452.117188 239.875 L 452.925781 239.566406 L 453.402344 238.367188 L 454.554688 238.109375 L 455.066406 237.289062 L 455.851562 236.484375 L 456.695312 236.480469 L 458.492188 238.058594 L 458.402344 238.96875 L 458.9375 240.59375 L 458.476562 241.699219 L 458.726562 242.4375 L 457.589844 244.132812 L 456.867188 244.972656 L 456.425781 246.703125 L 456.488281 248.445312 Z M 509.730469 320.824219 L 510.179688 321.316406 L 510.847656 322.90625 L 513.34375 325.929688 L 514.324219 326.222656 L 514.285156 327.195312 L 514.882812 328.941406 L 516.652344 329.363281 L 518.0625 330.609375 L 514.683594 332.636719 L 512.507812 334.691406 L 511.640625 336.527344 L 510.894531 337.5625 L 509.632812 337.785156 L 509.160156 339.101562 L 508.878906 339.964844 L 507.378906 340.605469 L 505.519531 340.46875 L 504.464844 339.695312 L 503.511719 339.363281 L 502.363281 340 L 501.738281 341.320312 L 500.613281 342.148438 L 499.410156 343.378906 L 497.757812 343.660156 L 497.292969 342.695312 L 497.578125 341.015625 L 496.332031 338.394531 L 495.726562 337.980469 L 496.03125 329.941406 L 498.316406 329.84375 L 498.71875 320.042969 L 500.457031 319.953125 L 504.082031 318.992188 L 504.933594 320.125 L 506.460938 319.046875 L 507.167969 319.039062 L 508.503906 318.421875 L 508.914062 318.625 Z M 443.335938 243.589844 L 441.726562 242.882812 L 440.621094 242.988281 L 439.796875 243.675781 L 438.738281 243.097656 L 438.328125 242.191406 L 437.273438 241.59375 L 437.125 240 L 437.773438 238.839844 L 437.722656 237.910156 L 439.597656 235.636719 L 439.953125 233.753906 L 440.597656 233.085938 L 441.730469 233.457031 L 442.714844 232.898438 L 443.039062 232.191406 L 444.863281 230.960938 L 445.3125 230.101562 L 447.503906 228.964844 L 448.792969 228.574219 L 449.375 229.097656 L 450.878906 229.085938 L 450.691406 230.417969 L 451.007812 231.667969 L 452.332031 233.460938 L 452.40625 234.789062 L 455.113281 235.410156 L 455.066406 237.289062 L 454.554688 238.109375 L 453.402344 238.367188 L 452.925781 239.566406 L 452.117188 239.875 L 450.054688 239.816406 L 448.96875 239.597656 L 448.207031 240.042969 L 447.167969 239.839844 L 443.078125 239.972656 L 443.019531 241.527344 Z M 519.371094 282.320312 L 519.253906 279.019531 L 518.667969 277.773438 L 520.101562 277.988281 L 520.835938 276.429688 L 522.09375 276.609375 L 522.222656 277.6875 L 522.726562 278.308594 L 522.742188 279.195312 L 522.152344 279.769531 L 521.21875 281.199219 L 520.351562 282.191406 Z M 480.9375 263.792969 L 480.644531 263.644531 L 479.242188 263.996094 L 477.804688 263.628906 L 476.679688 263.808594 L 472.832031 263.746094 L 473.171875 261.585938 L 472.242188 259.773438 L 471.160156 259.3125 L 470.679688 258.085938 L 470.070312 257.691406 L 470.097656 256.933594 L 470.699219 254.996094 L 471.808594 252.351562 L 472.492188 252.328125 L 473.890625 250.726562 L 474.785156 250.679688 L 476.117188 251.804688 L 477.734375 250.882812 L 477.949219 249.742188 L 478.472656 248.640625 L 478.824219 247.253906 L 480.078125 246.125 L 480.535156 244.207031 L 481.027344 243.59375 L 481.347656 242.171875 L 481.949219 240.421875 L 483.90625 238.296875 L 484.015625 237.386719 L 484.265625 236.890625 L 483.320312 235.796875 L 483.382812 234.925781 L 484.042969 234.769531 L 485.003906 236.523438 L 485.1875 238.34375 L 485.125 240.164062 L 486.4375 242.65625 L 485.121094 242.632812 L 484.460938 242.828125 L 483.382812 242.550781 L 482.886719 243.84375 L 484.292969 245.445312 L 485.324219 245.910156 L 485.671875 247.042969 L 486.433594 248.933594 L 486.070312 249.675781 L 484.90625 252.453125 L 484.339844 252.949219 L 484.171875 255.070312 L 484.414062 256.226562 L 484.230469 257.042969 L 485.355469 258.472656 L 485.5625 259.453125 L 486.441406 260.867188 L 487.527344 261.75 L 487.636719 262.996094 L 487.886719 263.792969 L 487.722656 265.269531 L 485.839844 264.625 L 483.925781 263.898438 Z M 486.070312 249.675781 L 488.019531 249.46875 L 488.445312 248.765625 L 488.839844 248.820312 L 489.433594 249.4375 L 492.394531 248.390625 L 493.382812 247.320312 L 494.601562 246.363281 L 494.355469 245.398438 L 495.015625 245.144531 L 497.296875 245.316406 L 499.496094 244.046875 L 501.148438 241.054688 L 502.320312 239.945312 L 503.800781 239.476562 L 504.089844 240.652344 L 505.480469 242.367188 L 505.511719 243.484375 L 505.148438 244.625 L 505.3125 245.476562 L 506.144531 246.265625 L 507.960938 247.464844 L 509.269531 248.570312 L 509.304688 249.460938 L 510.914062 250.886719 L 511.914062 252.074219 L 512.535156 253.714844 L 514.3125 254.800781 L 514.703125 255.667969 L 513.925781 255.960938 L 512.410156 255.894531 L 510.628906 255.609375 L 509.753906 255.84375 L 509.40625 256.507812 L 508.640625 256.589844 L 507.703125 256.011719 L 505.082031 257.378906 L 504.003906 257.105469 L 503.679688 257.316406 L 502.984375 258.96875 L 501.21875 258.433594 L 499.484375 258.164062 L 497.972656 257.152344 L 496.019531 256.222656 L 494.761719 257.105469 L 493.847656 258.496094 L 493.648438 260.40625 L 492.125 260.253906 L 490.523438 259.792969 L 489.121094 261.242188 L 487.886719 263.792969 L 487.636719 262.996094 L 487.527344 261.75 L 486.441406 260.867188 L 485.5625 259.453125 L 485.355469 258.472656 L 484.230469 257.042969 L 484.414062 256.226562 L 484.171875 255.070312 L 484.339844 252.949219 L 484.90625 252.453125 Z M 484.042969 234.769531 L 484.257812 233.476562 L 482.753906 233.410156 L 482.730469 231.648438 L 481.738281 230.628906 L 482.6875 227.011719 L 485.621094 224.421875 L 485.667969 220.847656 L 486.429688 215.265625 L 486.90625 214.082031 L 485.914062 213.140625 L 485.855469 212.261719 L 484.96875 211.546875 L 484.285156 207.269531 L 486.570312 205.761719 L 495.960938 211.035156 L 505.40625 216.304688 L 505.890625 227.214844 L 503.867188 227.023438 L 502.855469 229.042969 L 502.28125 230.742188 L 502.785156 231.382812 L 502.039062 232.222656 L 502.332031 233.359375 L 501.75 234.503906 L 501.535156 235.511719 L 502.355469 235.351562 L 502.871094 236.410156 L 502.933594 238.003906 L 503.816406 238.8125 L 503.800781 239.476562 L 502.320312 239.945312 L 501.148438 241.054688 L 499.496094 244.046875 L 497.296875 245.316406 L 495.015625 245.144531 L 494.355469 245.398438 L 494.601562 246.363281 L 493.382812 247.320312 L 492.394531 248.390625 L 489.433594 249.4375 L 488.839844 248.820312 L 488.445312 248.765625 L 488.019531 249.46875 L 486.070312 249.675781 L 486.433594 248.933594 L 485.671875 247.042969 L 485.324219 245.910156 L 484.292969 245.445312 L 482.886719 243.84375 L 483.382812 242.550781 L 484.460938 242.828125 L 485.121094 242.632812 L 486.4375 242.65625 L 485.125 240.164062 L 485.1875 238.34375 L 485.003906 236.523438 Z M 522.933594 260.390625 L 522.8125 263.59375 L 523.761719 263.964844 L 523.007812 264.9375 L 522.101562 265.664062 L 521.199219 267.089844 L 520.703125 268.363281 L 520.574219 270.5625 L 520.023438 271.609375 L 520 273.671875 L 519.316406 274.433594 L 519.21875 276.066406 L 518.894531 276.277344 L 518.667969 277.773438 L 519.253906 279.019531 L 519.371094 282.320312 L 519.769531 284.839844 L 519.515625 286.265625 L 519.964844 287.855469 L 521.308594 289.386719 L 522.515625 292.839844 L 521.59375 292.5625 L 518.414062 293.023438 L 517.777344 293.351562 L 517.070312 295.101562 L 517.570312 296.308594 L 517.078125 299.554688 L 516.714844 302.308594 L 517.335938 302.796875 L 518.949219 303.863281 L 519.609375 303.367188 L 519.714844 306.324219 L 517.921875 306.300781 L 517 304.789062 L 516.167969 303.621094 L 514.378906 303.238281 L 513.886719 301.800781 L 512.429688 302.667969 L 510.554688 302.285156 L 509.796875 301.039062 L 508.308594 300.785156 L 507.207031 300.851562 L 507.089844 300 L 506.277344 299.929688 L 505.210938 299.769531 L 503.746094 300.179688 L 502.722656 300.113281 L 502.136719 300.363281 L 502.320312 297.101562 L 501.554688 296.085938 L 501.40625 294.398438 L 501.78125 292.746094 L 501.316406 291.6875 L 501.296875 289.964844 L 498.433594 289.988281 L 498.648438 289.003906 L 497.445312 289.011719 L 497.3125 289.488281 L 495.847656 289.59375 L 495.234375 291.191406 L 494.875 291.875 L 493.574219 291.488281 L 492.792969 291.875 L 491.226562 292.097656 L 490.339844 290.664062 L 489.804688 289.777344 L 489.144531 288.136719 L 488.578125 286.09375 L 481.605469 286.058594 L 480.773438 286.386719 L 480.089844 286.335938 L 479.113281 286.703125 L 478.785156 285.851562 L 479.390625 285.566406 L 479.46875 284.371094 L 479.859375 283.667969 L 480.722656 283.089844 L 481.34375 283.371094 L 482.15625 282.320312 L 483.445312 282.347656 L 483.59375 283.125 L 484.472656 283.609375 L 485.875 281.894531 L 487.257812 280.554688 L 487.859375 279.679688 L 487.789062 277.425781 L 488.824219 274.765625 L 489.910156 273.355469 L 491.472656 272.035156 L 491.746094 271.164062 L 491.804688 270.160156 L 492.1875 269.207031 L 492.066406 267.65625 L 492.355469 265.230469 L 492.8125 263.523438 L 493.515625 262.058594 L 493.648438 260.40625 L 493.847656 258.496094 L 494.761719 257.105469 L 496.019531 256.222656 L 497.972656 257.152344 L 499.484375 258.164062 L 501.21875 258.433594 L 502.984375 258.96875 L 503.679688 257.316406 L 504.003906 257.105469 L 505.082031 257.378906 L 507.703125 256.011719 L 508.640625 256.589844 L 509.40625 256.507812 L 509.753906 255.84375 L 510.628906 255.609375 L 512.410156 255.894531 L 513.925781 255.960938 L 514.703125 255.667969 L 516.160156 257.929688 L 517.226562 258.261719 L 517.851562 257.800781 L 518.949219 257.980469 L 520.257812 257.402344 L 520.832031 258.570312 Z M 551.195312 235.207031 L 551.789062 236.054688 L 551.761719 237.195312 L 550.449219 237.851562 L 551.488281 238.601562 L 550.679688 240.066406 L 550.136719 239.578125 L 549.578125 239.773438 L 548.261719 239.726562 L 548.191406 238.894531 L 547.980469 238.136719 L 548.726562 236.851562 L 549.5 235.636719 L 550.515625 235.875 Z M 472.464844 267.234375 L 472.023438 266.820312 L 472.832031 263.746094 L 476.679688 263.808594 L 476.707031 267.105469 L 473.261719 267.078125 Z M 549.5 235.636719 L 548.660156 234.75 L 547.621094 233.140625 L 546.542969 232.257812 L 545.890625 231.3125 L 543.800781 230.210938 L 542.191406 230.179688 L 541.601562 229.605469 L 540.253906 230.25 L 538.777344 229.003906 L 538.136719 231.050781 L 535.382812 230.480469 L 535.085938 229.378906 L 535.910156 225.34375 L 536.050781 223.515625 L 536.742188 222.675781 L 538.4375 222.222656 L 539.53125 220.652344 L 541.058594 223.835938 L 541.832031 226.359375 L 543.183594 227.695312 L 546.507812 230.289062 L 547.882812 231.855469 L 549.226562 233.4375 L 550.003906 234.382812 L 551.195312 235.207031 L 550.515625 235.875 Z M 538.777344 229.003906 L 540.253906 230.25 L 541.601562 229.605469 L 542.191406 230.179688 L 543.800781 230.210938 L 545.890625 231.3125 L 546.542969 232.257812 L 547.621094 233.140625 L 548.660156 234.75 L 549.5 235.636719 L 548.726562 236.851562 L 547.980469 238.136719 L 548.191406 238.894531 L 548.261719 239.726562 L 549.578125 239.773438 L 550.136719 239.578125 L 550.679688 240.066406 L 550.199219 241.039062 L 551.125 242.550781 L 552.039062 243.871094 L 552.96875 244.847656 L 560.78125 248.101562 L 562.765625 248.082031 L 556.289062 256.304688 L 553.214844 256.425781 L 551.136719 258.355469 L 549.621094 258.40625 L 548.988281 259.269531 L 547.371094 259.269531 L 546.402344 258.34375 L 544.257812 259.488281 L 543.574219 260.632812 L 541.992188 260.414062 L 541.464844 260.097656 L 540.914062 260.175781 L 540.164062 260.148438 L 537.144531 257.820312 L 535.5 257.820312 L 534.679688 256.921875 L 534.65625 255.382812 L 533.421875 254.921875 L 531.976562 251.941406 L 530.882812 251.308594 L 530.449219 250.210938 L 529.226562 248.878906 L 527.773438 248.679688 L 528.542969 247.121094 L 529.792969 247.050781 L 530.128906 246.214844 L 530.035156 243.75 L 530.652344 240.882812 L 531.742188 240.113281 L 531.945312 238.992188 L 532.882812 236.898438 L 534.253906 235.539062 L 535.105469 232.835938 L 535.382812 230.480469 L 538.136719 231.050781 Z M 476.234375 280.894531 L 473.8125 278.128906 L 472.253906 275.871094 L 470.820312 273.042969 L 470.898438 272.132812 L 471.414062 271.257812 L 471.988281 269.265625 L 472.464844 267.234375 L 473.261719 267.078125 L 476.707031 267.105469 L 476.679688 263.808594 L 477.804688 263.628906 L 479.242188 263.996094 L 480.644531 263.644531 L 480.9375 263.792969 L 480.769531 264.988281 L 481.433594 266.402344 L 483.195312 266.179688 L 483.785156 266.722656 L 482.761719 269.894531 L 483.882812 271.511719 L 484.136719 273.648438 L 483.835938 275.472656 L 483.105469 276.765625 L 481.019531 276.648438 L 479.757812 275.335938 L 479.566406 276.546875 L 477.96875 276.882812 L 477.15625 277.570312 L 478.042969 279.382812 Z M 410.460938 233.964844 L 410.785156 232.75 L 413.339844 232.671875 L 413.882812 232.019531 L 414.625 231.976562 L 415.539062 232.652344 L 416.269531 232.664062 L 417.050781 232.203125 L 417.511719 232.996094 L 416.484375 233.613281 L 415.46875 233.5625 L 414.46875 232.984375 L 413.589844 233.617188 L 413.167969 233.640625 L 412.597656 234.023438 Z M 452.503906 253.765625 L 448.800781 255.367188 L 447.484375 256.308594 L 445.355469 257.101562 L 443.25 256.324219 L 443.355469 255.242188 L 442.335938 252.886719 L 442.957031 249.792969 L 443.953125 247.488281 L 443.335938 243.589844 L 443.019531 241.527344 L 443.078125 239.972656 L 447.167969 239.839844 L 448.207031 240.042969 L 448.96875 239.597656 L 450.054688 239.816406 L 449.882812 240.671875 L 450.867188 242.085938 L 450.863281 244.078125 L 451.085938 246.234375 L 451.679688 247.234375 L 451.160156 249.703125 L 451.347656 251.066406 L 451.976562 252.804688 Z M 430.082031 248.953125 L 429.414062 248.882812 L 428.925781 249.984375 L 428.257812 249.972656 L 427.804688 249.386719 L 427.964844 248.289062 L 426.988281 246.609375 L 426.371094 246.917969 L 425.867188 246.980469 L 425.21875 247.136719 L 425.25 246.128906 L 424.878906 245.414062 L 424.960938 244.617188 L 424.457031 243.464844 L 423.8125 242.484375 L 421.925781 242.480469 L 421.375 242.996094 L 420.722656 243.058594 L 420.316406 243.652344 L 420.035156 244.410156 L 418.765625 245.617188 L 417.746094 243.996094 L 416.84375 242.921875 L 416.242188 242.566406 L 415.660156 242.023438 L 415.410156 240.8125 L 415.074219 240.207031 L 414.394531 239.757812 L 415.457031 238.421875 L 416.171875 238.472656 L 416.789062 238.011719 L 417.308594 238.007812 L 417.683594 237.644531 L 417.496094 236.734375 L 417.757812 236.445312 L 417.8125 235.515625 L 418.949219 235.546875 L 420.628906 236.214844 L 421.148438 236.152344 L 421.328125 235.847656 L 422.605469 236.066406 L 422.945312 235.910156 L 423.070312 236.914062 L 423.441406 236.910156 L 424.058594 236.546875 L 424.449219 236.636719 L 425.09375 237.332031 L 426.097656 237.554688 L 426.75 236.960938 L 427.511719 236.59375 L 428.082031 236.207031 L 428.550781 236.28125 L 429.066406 236.882812 L 429.339844 237.640625 L 430.296875 238.789062 L 429.808594 239.496094 L 429.707031 240.386719 L 430.210938 240.117188 L 430.503906 240.4375 L 430.375 241.253906 L 431.085938 242.042969 L 430.617188 242.257812 L 430.421875 243.1875 L 430.957031 244.320312 L 431.527344 246.515625 L 430.648438 246.84375 L 430.421875 247.226562 L 430.601562 247.753906 L 430.457031 248.949219 Z M 414.394531 239.757812 L 413.152344 238.609375 L 412.167969 238.429688 L 411.636719 237.65625 L 411.660156 237.238281 L 410.949219 236.65625 L 410.8125 236.070312 L 412.0625 235.621094 L 412.839844 235.710938 L 413.472656 235.402344 L 417.8125 235.515625 L 417.757812 236.445312 L 417.496094 236.734375 L 417.683594 237.644531 L 417.308594 238.007812 L 416.789062 238.011719 L 416.171875 238.472656 L 415.457031 238.421875 Z M 443.25 256.324219 L 442.171875 256.351562 L 440.523438 255.816406 L 439.007812 255.847656 L 436.207031 256.328125 L 434.5625 257.117188 L 432.21875 258.121094 L 431.765625 258.050781 L 431.953125 255.792969 L 432.179688 255.453125 L 432.109375 254.371094 L 431.113281 253.226562 L 430.363281 253.042969 L 429.679688 252.289062 L 430.199219 251.074219 L 429.96875 249.75 L 430.082031 248.953125 L 430.457031 248.949219 L 430.601562 247.753906 L 430.421875 247.226562 L 430.648438 246.84375 L 431.527344 246.515625 L 430.957031 244.320312 L 430.421875 243.1875 L 430.617188 242.257812 L 431.085938 242.042969 L 431.394531 241.792969 L 432.046875 242.207031 L 433.863281 242.230469 L 434.300781 241.429688 L 434.707031 241.480469 L 435.390625 241.171875 L 435.75 242.347656 L 436.300781 242 L 437.273438 241.59375 L 438.328125 242.191406 L 438.738281 243.097656 L 439.796875 243.675781 L 440.621094 242.988281 L 441.726562 242.882812 L 443.335938 243.589844 L 443.953125 247.488281 L 442.957031 249.792969 L 442.335938 252.886719 L 443.355469 255.242188 Z M 547.011719 272.351562 L 548.40625 274.609375 L 546.742188 275.703125 L 546.148438 276.84375 L 545.257812 277.042969 L 544.90625 278.972656 L 544.132812 280.078125 L 543.648438 281.902344 L 542.683594 282.804688 L 539.324219 280.066406 L 539.179688 278.480469 L 530.632812 272.902344 L 530.234375 272.601562 L 530.214844 269.699219 L 530.890625 268.589844 L 532.050781 266.777344 L 532.902344 264.78125 L 531.84375 261.640625 L 531.554688 260.265625 L 530.410156 258.363281 L 531.84375 256.726562 L 533.421875 254.921875 L 534.65625 255.382812 L 534.679688 256.921875 L 535.5 257.820312 L 537.144531 257.820312 L 540.164062 260.148438 L 540.914062 260.175781 L 541.464844 260.097656 L 541.992188 260.414062 L 543.574219 260.632812 L 544.257812 259.488281 L 546.402344 258.34375 L 547.371094 259.269531 L 548.988281 259.269531 L 546.953125 262.375 Z M 515.855469 349.527344 L 516.585938 350.359375 L 515.792969 351.703125 L 515.34375 352.601562 L 514.050781 353.03125 L 513.570312 353.914062 L 512.742188 354.1875 L 511.191406 352.066406 L 512.519531 350.320312 L 513.820312 349.242188 L 514.921875 348.679688 Z M 431.765625 258.050781 L 431.144531 258.074219 L 428.710938 256.769531 L 426.570312 254.683594 L 424.566406 253.183594 L 422.984375 251.417969 L 423.554688 250.542969 L 423.6875 249.746094 L 424.761719 248.257812 L 425.867188 246.980469 L 426.371094 246.917969 L 426.988281 246.609375 L 427.964844 248.289062 L 427.804688 249.386719 L 428.257812 249.972656 L 428.925781 249.984375 L 429.414062 248.882812 L 430.082031 248.953125 L 429.96875 249.75 L 430.199219 251.074219 L 429.679688 252.289062 L 430.363281 253.042969 L 431.113281 253.226562 L 432.109375 254.371094 L 432.179688 255.453125 L 431.953125 255.792969 Z M 566.40625 304.164062 L 566.972656 305.332031 L 567.457031 307.144531 L 567.644531 310.445312 L 568.171875 311.730469 L 567.855469 313.046875 L 567.390625 313.855469 L 566.699219 312.246094 L 566.207031 313.058594 L 566.523438 315.09375 L 566.238281 316.257812 L 565.550781 316.894531 L 565.238281 319.222656 L 564.085938 322.425781 L 562.640625 326.21875 L 560.769531 331.433594 L 559.539062 335.265625 L 558.195312 338.460938 L 556.265625 339.113281 L 554.148438 340.277344 L 552.894531 339.574219 L 551.164062 338.589844 L 550.660156 337.132812 L 550.71875 334.691406 L 550.085938 332.496094 L 550.03125 330.515625 L 550.601562 328.527344 L 551.703125 328.050781 L 551.777344 327.136719 L 553.039062 325.050781 L 553.375 323.296875 L 552.925781 321.996094 L 552.601562 320.261719 L 552.574219 317.726562 L 553.484375 316.191406 L 553.902344 314.449219 L 555.074219 314.347656 L 556.410156 313.785156 L 557.304688 313.285156 L 558.335938 313.25 L 559.761719 311.683594 L 561.785156 309.992188 L 562.566406 308.613281 L 562.308594 307.441406 L 563.285156 307.769531 L 564.679688 305.863281 L 564.808594 304.210938 L 565.644531 302.984375 Z M 531.289062 301.558594 L 530.5625 303.644531 L 531.089844 307.210938 L 531.90625 307.171875 L 532.71875 308.054688 L 533.621094 310.039062 L 533.664062 313.570312 L 532.625 314.148438 L 531.824219 316.054688 L 530.375 314.359375 L 530.289062 312.421875 L 530.835938 311.144531 L 530.746094 310.046875 L 529.847656 309.351562 L 529.191406 309.601562 L 527.894531 308.285156 L 526.6875 307.574219 L 527.488281 305.023438 L 528.257812 304.070312 L 527.878906 301.796875 L 528.421875 299.574219 L 528.84375 298.832031 L 528.308594 296.503906 L 527.222656 295.28125 L 529.523438 295.792969 L 529.976562 296.550781 L 530.742188 297.828125 Z M 421.480469 229.945312 L 422.277344 229.445312 L 422.695312 227.824219 L 423.4375 227.761719 L 425.0625 228.527344 L 426.386719 227.984375 L 427.292969 228.167969 L 427.648438 227.554688 L 437.039062 227.515625 L 437.574219 225.589844 L 437.171875 225.253906 L 436.148438 213.386719 L 435.175781 201.5 L 438.691406 201.449219 L 446.421875 207.460938 L 454.230469 213.46875 L 454.785156 214.757812 L 456.234375 215.542969 L 457.3125 215.992188 L 457.347656 217.742188 L 459.925781 217.472656 L 459.972656 223.804688 L 458.703125 225.640625 L 458.511719 227.332031 L 456.4375 227.765625 L 453.242188 228.003906 L 452.378906 228.980469 L 450.878906 229.085938 L 449.375 229.097656 L 448.792969 228.574219 L 447.503906 228.964844 L 445.3125 230.101562 L 444.863281 230.960938 L 443.039062 232.191406 L 442.714844 232.898438 L 441.730469 233.457031 L 440.597656 233.085938 L 439.953125 233.753906 L 439.597656 235.636719 L 437.722656 237.910156 L 437.773438 238.839844 L 437.125 240 L 437.273438 241.59375 L 436.300781 242 L 435.75 242.347656 L 435.390625 241.171875 L 434.707031 241.480469 L 434.300781 241.429688 L 433.863281 242.230469 L 432.046875 242.207031 L 431.394531 241.792969 L 431.085938 242.042969 L 430.375 241.253906 L 430.503906 240.4375 L 430.210938 240.117188 L 429.707031 240.386719 L 429.808594 239.496094 L 430.296875 238.789062 L 429.339844 237.640625 L 429.066406 236.882812 L 428.550781 236.28125 L 428.082031 236.207031 L 427.511719 236.59375 L 426.75 236.960938 L 426.097656 237.554688 L 425.09375 237.332031 L 424.449219 236.636719 L 424.058594 236.546875 L 423.441406 236.910156 L 423.070312 236.914062 L 422.945312 235.910156 L 423.066406 235.054688 L 422.875 233.996094 L 422.007812 233.222656 L 421.566406 231.652344 Z M 531.289062 301.558594 L 533.066406 301.335938 L 535.867188 302.109375 L 536.492188 301.761719 L 538.132812 301.691406 L 539 300.871094 L 540.40625 300.914062 L 543.019531 299.847656 L 544.945312 298.257812 L 545.285156 299.488281 L 545.085938 302.222656 L 545.28125 304.628906 L 545.183594 308.917969 L 545.535156 310.261719 L 544.738281 312.222656 L 543.734375 314.132812 L 542.15625 315.835938 L 539.964844 316.878906 L 537.261719 318.214844 L 534.46875 321.164062 L 533.546875 321.667969 L 531.816406 323.621094 L 530.820312 324.257812 L 530.511719 326.21875 L 531.488281 328.304688 L 531.84375 329.917969 L 531.820312 330.742188 L 532.238281 330.605469 L 531.996094 333.304688 L 531.535156 334.585938 L 532.046875 335.054688 L 531.621094 336.203125 L 530.59375 337.183594 L 528.628906 338.113281 L 525.765625 339.605469 L 524.6875 340.625 L 524.804688 341.785156 L 525.375 341.972656 L 525.074219 343.421875 L 523.339844 343.398438 L 523.230469 342.179688 L 522.976562 340.945312 L 522.847656 339.957031 L 523.457031 336.882812 L 522.980469 334.925781 L 522.105469 331.046875 L 524.71875 327.925781 L 525.441406 325.9375 L 525.804688 325.6875 L 526.152344 324.070312 L 525.820312 323.253906 L 526.023438 321.199219 L 526.570312 319.292969 L 526.726562 315.816406 L 525.554688 314.933594 L 524.449219 314.730469 L 523.972656 314.050781 L 522.914062 313.472656 L 520.960938 313.527344 L 520.847656 312.503906 L 520.699219 310.546875 L 527.894531 308.285156 L 529.191406 309.601562 L 529.847656 309.351562 L 530.746094 310.046875 L 530.835938 311.144531 L 530.289062 312.421875 L 530.375 314.359375 L 531.824219 316.054688 L 532.625 314.148438 L 533.664062 313.570312 L 533.621094 310.039062 L 532.71875 308.054688 L 531.90625 307.171875 L 531.089844 307.210938 L 530.5625 303.644531 Z M 487.1875 348.484375 L 485.574219 346.398438 L 484.75 344.386719 L 484.335938 341.699219 L 483.832031 339.703125 L 483.1875 335.460938 L 483.226562 332.164062 L 482.96875 330.664062 L 482.097656 329.527344 L 480.957031 327.253906 L 479.808594 323.953125 L 479.335938 322.226562 L 477.488281 319.539062 L 477.382812 317.429688 L 478.515625 316.910156 L 479.921875 316.441406 L 481.433594 316.523438 L 482.800781 317.765625 L 483.15625 317.574219 L 492.621094 317.453125 L 494.199219 318.769531 L 499.832031 319.160156 L 504.15625 318.039062 L 506.085938 317.414062 L 507.59375 317.574219 L 508.492188 318.191406 L 508.503906 318.421875 L 507.167969 319.039062 L 506.460938 319.046875 L 504.933594 320.125 L 504.082031 318.992188 L 500.457031 319.953125 L 498.71875 320.042969 L 498.316406 329.84375 L 496.03125 329.941406 L 495.726562 337.980469 L 495.277344 348.164062 L 493.183594 349.574219 L 491.953125 349.773438 L 490.546875 349.253906 L 489.535156 349.054688 L 489.199219 347.875 L 488.332031 347.117188 Z M 455.066406 237.289062 L 455.113281 235.410156 L 452.40625 234.789062 L 452.332031 233.460938 L 451.007812 231.667969 L 450.691406 230.417969 L 450.878906 229.085938 L 452.378906 228.980469 L 453.242188 228.003906 L 456.4375 227.765625 L 458.511719 227.332031 L 458.703125 225.640625 L 459.972656 223.804688 L 459.925781 217.472656 L 463.195312 216.246094 L 469.847656 210.839844 L 477.664062 205.589844 L 481.339844 206.777344 L 482.679688 208.289062 L 484.285156 207.269531 L 484.96875 211.546875 L 485.855469 212.261719 L 485.914062 213.140625 L 486.90625 214.082031 L 486.429688 215.265625 L 485.667969 220.847656 L 485.621094 224.421875 L 482.6875 227.011719 L 481.738281 230.628906 L 482.730469 231.648438 L 482.753906 233.410156 L 484.257812 233.476562 L 484.042969 234.769531 L 483.382812 234.925781 L 483.320312 235.796875 L 482.882812 235.859375 L 481.25 232.855469 L 480.699219 232.746094 L 478.886719 234.28125 L 477.058594 233.480469 L 475.792969 233.320312 L 475.121094 233.703125 L 473.742188 233.621094 L 472.371094 234.789062 L 471.171875 234.855469 L 468.316406 233.4375 L 467.210938 234.113281 L 466.011719 234.066406 L 465.125 233.03125 L 462.765625 232.003906 L 460.246094 232.332031 L 459.640625 232.921875 L 459.316406 234.503906 L 458.648438 235.609375 L 458.492188 238.058594 L 456.695312 236.480469 L 455.851562 236.484375 Z M 470.097656 256.933594 L 467.644531 257.917969 L 466.746094 257.777344 L 465.839844 258.390625 L 463.945312 258.328125 L 462.679688 256.617188 L 461.894531 254.632812 L 460.21875 252.828125 L 458.445312 252.863281 L 456.359375 252.863281 L 456.488281 248.445312 L 456.425781 246.703125 L 456.867188 244.972656 L 457.589844 244.132812 L 458.726562 242.4375 L 458.476562 241.699219 L 458.9375 240.59375 L 458.402344 238.96875 L 458.492188 238.058594 L 458.648438 235.609375 L 459.316406 234.503906 L 459.640625 232.921875 L 460.246094 232.332031 L 462.765625 232.003906 L 465.125 233.03125 L 466.011719 234.066406 L 467.210938 234.113281 L 468.316406 233.4375 L 471.171875 234.855469 L 472.371094 234.789062 L 473.742188 233.621094 L 475.121094 233.703125 L 475.792969 233.320312 L 477.058594 233.480469 L 478.886719 234.28125 L 480.699219 232.746094 L 481.25 232.855469 L 482.882812 235.859375 L 483.320312 235.796875 L 484.265625 236.890625 L 484.015625 237.386719 L 483.90625 238.296875 L 481.949219 240.421875 L 481.347656 242.171875 L 481.027344 243.59375 L 480.535156 244.207031 L 480.078125 246.125 L 478.824219 247.253906 L 478.472656 248.640625 L 477.949219 249.742188 L 477.734375 250.882812 L 476.117188 251.804688 L 474.785156 250.679688 L 473.890625 250.726562 L 472.492188 252.328125 L 471.808594 252.351562 L 470.699219 254.996094 Z M 480.722656 283.089844 L 479.839844 282.152344 L 479.125 282.613281 L 478.164062 283.792969 L 476.234375 280.894531 L 478.042969 279.382812 L 477.15625 277.570312 L 477.96875 276.882812 L 479.566406 276.546875 L 479.757812 275.335938 L 481.019531 276.648438 L 483.105469 276.765625 L 483.835938 275.472656 L 484.136719 273.648438 L 483.882812 271.511719 L 482.761719 269.894531 L 483.785156 266.722656 L 483.195312 266.179688 L 481.433594 266.402344 L 480.769531 264.988281 L 480.9375 263.792969 L 483.925781 263.898438 L 485.839844 264.625 L 487.722656 265.269531 L 487.886719 263.792969 L 489.121094 261.242188 L 490.523438 259.792969 L 492.125 260.253906 L 493.648438 260.40625 L 493.515625 262.058594 L 492.8125 263.523438 L 492.355469 265.230469 L 492.066406 267.65625 L 492.1875 269.207031 L 491.804688 270.160156 L 491.746094 271.164062 L 491.472656 272.035156 L 489.910156 273.355469 L 488.824219 274.765625 L 487.789062 277.425781 L 487.859375 279.679688 L 487.257812 280.554688 L 485.875 281.894531 L 484.472656 283.609375 L 483.59375 283.125 L 483.445312 282.347656 L 482.15625 282.320312 L 481.34375 283.371094 Z M 521.988281 273.105469 L 522.921875 274.652344 L 522.777344 276.261719 L 522.09375 276.609375 L 520.835938 276.429688 L 520.101562 277.988281 L 518.667969 277.773438 L 518.894531 276.277344 L 519.21875 276.066406 L 519.316406 274.433594 L 520 273.671875 L 520.570312 273.953125 Z M 410.785156 232.75 L 409.859375 230.613281 L 408.707031 229.632812 L 409.75 229.113281 L 410.921875 227.183594 L 411.507812 225.773438 L 412.328125 224.894531 L 413.484375 225.132812 L 414.636719 224.53125 L 415.941406 224.503906 L 417.042969 225.308594 L 418.582031 226.039062 L 419.964844 228.058594 L 421.480469 229.945312 L 421.566406 231.652344 L 422.007812 233.222656 L 422.875 233.996094 L 423.066406 235.054688 L 422.945312 235.910156 L 422.605469 236.066406 L 421.328125 235.847656 L 421.148438 236.152344 L 420.628906 236.214844 L 418.949219 235.546875 L 417.8125 235.515625 L 413.472656 235.402344 L 412.839844 235.710938 L 412.0625 235.621094 L 410.8125 236.070312 L 410.460938 233.964844 L 412.597656 234.023438 L 413.167969 233.640625 L 413.589844 233.617188 L 414.46875 232.984375 L 415.46875 233.5625 L 416.484375 233.613281 L 417.511719 232.996094 L 417.050781 232.203125 L 416.269531 232.664062 L 415.539062 232.652344 L 414.625 231.976562 L 413.882812 232.019531 L 413.339844 232.671875 Z M 422.984375 251.417969 L 422.351562 251.214844 L 420.660156 250.109375 L 419.441406 248.644531 L 419.035156 247.640625 L 418.765625 245.617188 L 420.035156 244.410156 L 420.316406 243.652344 L 420.722656 243.058594 L 421.375 242.996094 L 421.925781 242.480469 L 423.8125 242.484375 L 424.457031 243.464844 L 424.960938 244.617188 L 424.878906 245.414062 L 425.25 246.128906 L 425.21875 247.136719 L 425.867188 246.980469 L 424.761719 248.257812 L 423.6875 249.746094 L 423.554688 250.542969 Z M 566.960938 238.28125 L 568.191406 238.003906 L 569.261719 237.066406 L 570.152344 237.058594 L 570.242188 237.816406 L 570.101562 239.410156 L 570.171875 240.851562 L 569.71875 241.84375 L 569.171875 244.804688 L 568.144531 247.867188 L 566.789062 251.367188 L 564.855469 255.382812 L 562.894531 258.445312 L 560.160156 262.183594 L 557.8125 264.398438 L 554.289062 267.117188 L 552.085938 269.199219 L 549.496094 272.515625 L 548.941406 273.960938 L 548.40625 274.609375 L 547.011719 272.351562 L 546.953125 262.375 L 548.988281 259.269531 L 549.621094 258.40625 L 551.136719 258.355469 L 553.214844 256.425781 L 556.289062 256.304688 L 562.765625 248.082031 L 564.335938 245.796875 L 565.339844 244.113281 L 565.285156 242.683594 L 565.171875 239.917969 L 565.132812 238.785156 L 565.144531 238.742188 L 565.894531 238.6875 Z M 565.339844 244.113281 L 564.335938 245.796875 L 562.765625 248.082031 L 560.78125 248.101562 L 552.96875 244.847656 L 552.039062 243.871094 L 551.125 242.550781 L 550.199219 241.039062 L 550.679688 240.066406 L 551.488281 238.601562 L 552.273438 239.105469 L 552.777344 240.242188 L 553.882812 241.386719 L 555.054688 241.398438 L 557.246094 240.695312 L 559.796875 240.371094 L 561.832031 239.519531 L 562.992188 239.339844 L 563.808594 238.839844 L 565.144531 238.742188 L 565.132812 238.785156 L 565.171875 239.917969 L 565.285156 242.683594 Z M 521.570312 350.359375 L 521.097656 350.757812 L 520.027344 352.160156 L 519.285156 353.578125 L 517.847656 355.550781 L 515.078125 358.398438 L 513.363281 360.050781 L 511.570312 361.304688 L 509.148438 362.371094 L 507.996094 362.515625 L 507.648438 363.28125 L 506.320312 362.875 L 505.175781 363.398438 L 502.789062 362.867188 L 501.410156 363.203125 L 500.496094 363.058594 L 498.121094 364.144531 L 496.1875 364.582031 L 494.746094 365.621094 L 493.726562 365.6875 L 492.839844 364.707031 L 492.089844 364.65625 L 491.191406 363.425781 L 491.066406 363.808594 L 490.808594 363.070312 L 490.90625 361.453125 L 490.269531 359.609375 L 491.019531 359.105469 L 491.066406 356.988281 L 489.707031 354.410156 L 488.671875 352.074219 L 488.671875 352.066406 L 487.1875 348.484375 L 488.332031 347.117188 L 489.199219 347.875 L 489.535156 349.054688 L 490.546875 349.253906 L 491.953125 349.773438 L 493.183594 349.574219 L 495.277344 348.164062 L 495.726562 337.980469 L 496.332031 338.394531 L 497.578125 341.015625 L 497.292969 342.695312 L 497.757812 343.660156 L 499.410156 343.378906 L 500.613281 342.148438 L 501.738281 341.320312 L 502.363281 340 L 503.511719 339.363281 L 504.464844 339.695312 L 505.519531 340.46875 L 507.378906 340.605469 L 508.878906 339.964844 L 509.160156 339.101562 L 509.632812 337.785156 L 510.894531 337.5625 L 511.640625 336.527344 L 512.507812 334.691406 L 514.683594 332.636719 L 518.0625 330.609375 L 519 330.636719 L 520.09375 331.105469 L 520.890625 330.773438 L 522.105469 331.046875 L 522.980469 334.925781 L 523.457031 336.882812 L 522.847656 339.957031 L 522.976562 340.945312 L 521.855469 340.441406 L 521.175781 340.636719 L 520.90625 341.441406 L 520.214844 342.476562 L 520.171875 343.429688 L 521.429688 344.921875 L 522.789062 344.625 L 523.339844 343.398438 L 525.074219 343.421875 L 524.355469 345.429688 L 523.914062 347.722656 L 523.230469 348.96875 Z M 515.855469 349.527344 L 514.921875 348.679688 L 513.820312 349.242188 L 512.519531 350.320312 L 511.191406 352.066406 L 512.742188 354.1875 L 513.570312 353.914062 L 514.050781 353.03125 L 515.34375 352.601562 L 515.792969 351.703125 L 516.585938 350.359375 Z M 530.046875 244.078125 L 530.128906 246.214844 L 529.792969 247.050781 L 528.542969 247.121094 L 527.773438 248.679688 L 529.226562 248.878906 L 530.449219 250.210938 L 530.882812 251.308594 L 531.976562 251.941406 L 533.421875 254.921875 L 531.84375 256.726562 L 530.410156 258.363281 L 528.96875 259.621094 L 527.304688 259.617188 L 525.410156 260.257812 L 523.898438 259.644531 L 522.933594 260.390625 L 520.832031 258.570312 L 520.257812 257.402344 L 518.949219 257.980469 L 517.851562 257.800781 L 517.226562 258.261719 L 516.160156 257.929688 L 514.703125 255.667969 L 514.3125 254.800781 L 512.535156 253.714844 L 511.914062 252.074219 L 510.914062 250.886719 L 509.304688 249.460938 L 509.269531 248.570312 L 507.960938 247.464844 L 506.335938 246.394531 L 507.058594 246.09375 L 507.859375 245.578125 L 508.417969 243.128906 L 509.042969 241.859375 L 510.730469 241.484375 L 511.152344 242.234375 L 512.398438 243.835938 L 513.050781 244.070312 L 513.890625 243.601562 L 515.589844 243.695312 L 515.925781 244.257812 L 518.273438 244.257812 L 518.34375 243.695312 L 519.542969 243.175781 L 519.769531 242.378906 L 520.644531 241.8125 L 522.664062 243.414062 L 523.871094 243.128906 L 524.992188 241.152344 L 526.242188 239.648438 L 525.992188 238 L 525.402344 237.199219 L 526.8125 237.058594 L 526.953125 236.445312 L 528.046875 236.632812 L 527.828125 238.660156 L 528.171875 240.636719 L 529.414062 241.71875 L 529.722656 242.660156 L 529.71875 244.023438 Z M 523.339844 343.398438 L 522.789062 344.625 L 521.429688 344.921875 L 520.171875 343.429688 L 520.214844 342.476562 L 520.90625 341.441406 L 521.175781 340.636719 L 521.855469 340.441406 L 522.976562 340.945312 L 523.230469 342.179688 Z M 454.40625 253.179688 L 452.503906 253.765625 L 451.976562 252.804688 L 451.347656 251.066406 L 451.160156 249.703125 L 451.679688 247.234375 L 451.085938 246.234375 L 450.863281 244.078125 L 450.867188 242.085938 L 449.882812 240.671875 L 450.054688 239.816406 L 452.117188 239.875 L 451.820312 241.320312 L 452.539062 242.128906 L 453.359375 243.089844 L 453.449219 244.433594 L 453.925781 245 L 453.824219 251.292969 Z M 525.414062 272.8125 L 522.816406 272.777344 L 521.988281 273.105469 L 520.570312 273.953125 L 520 273.671875 L 520.023438 271.609375 L 520.574219 270.5625 L 520.703125 268.363281 L 521.199219 267.089844 L 522.101562 265.664062 L 523.007812 264.9375 L 523.761719 263.964844 L 522.8125 263.59375 L 522.933594 260.390625 L 523.898438 259.644531 L 525.410156 260.257812 L 527.304688 259.617188 L 528.96875 259.621094 L 530.410156 258.363281 L 531.554688 260.265625 L 531.84375 261.640625 L 532.902344 264.78125 L 532.050781 266.777344 L 530.890625 268.589844 L 530.214844 269.699219 L 530.234375 272.601562 Z M 530.234375 272.601562 L 530.632812 272.902344 L 539.179688 278.480469 L 539.324219 280.066406 L 542.683594 282.804688 L 541.539062 286.179688 L 541.648438 287.730469 L 543.140625 288.730469 L 543.195312 289.441406 L 542.503906 291.097656 L 542.621094 291.929688 L 542.433594 293.238281 L 543.207031 294.957031 L 544.101562 297.660156 L 544.945312 298.257812 L 543.019531 299.847656 L 540.40625 300.914062 L 538.996094 300.871094 L 538.132812 301.691406 L 536.492188 301.761719 L 535.867188 302.109375 L 533.066406 301.335938 L 531.289062 301.558594 L 530.742188 297.828125 L 529.976562 296.550781 L 529.523438 295.792969 L 527.222656 295.28125 L 525.90625 294.457031 L 524.417969 293.996094 L 523.488281 293.539062 L 522.515625 292.839844 L 521.308594 289.386719 L 519.964844 287.855469 L 519.515625 286.265625 L 519.769531 284.839844 L 519.371094 282.320312 L 520.351562 282.191406 L 521.21875 281.199219 L 522.152344 279.769531 L 522.742188 279.195312 L 522.726562 278.308594 L 522.222656 277.6875 L 522.09375 276.609375 L 522.777344 276.261719 L 522.921875 274.652344 L 521.988281 273.105469 L 522.816406 272.777344 L 525.414062 272.8125 Z M 527.222656 295.28125 L 528.308594 296.503906 L 528.84375 298.832031 L 528.421875 299.574219 L 527.878906 301.796875 L 528.257812 304.070312 L 527.488281 305.023438 L 526.6875 307.574219 L 527.894531 308.285156 L 520.699219 310.546875 L 520.847656 312.503906 L 519.0625 312.878906 L 517.6875 313.972656 L 517.367188 314.925781 L 516.523438 315.140625 L 514.40625 317.402344 L 513.042969 319.179688 L 512.253906 319.246094 L 511.507812 318.925781 L 508.914062 318.625 L 508.503906 318.421875 L 508.492188 318.191406 L 507.59375 317.574219 L 506.085938 317.414062 L 504.15625 318.039062 L 502.6875 316.324219 L 501.179688 314.074219 L 501.507812 305.339844 L 506.398438 305.375 L 506.222656 304.425781 L 506.597656 303.398438 L 506.210938 302.113281 L 506.507812 300.78125 L 506.277344 299.929688 L 507.089844 300 L 507.207031 300.851562 L 508.308594 300.785156 L 509.796875 301.039062 L 510.554688 302.285156 L 512.429688 302.667969 L 513.886719 301.800781 L 514.378906 303.238281 L 516.167969 303.621094 L 517 304.789062 L 517.921875 306.300781 L 519.714844 306.324219 L 519.609375 303.367188 L 518.949219 303.863281 L 517.335938 302.796875 L 516.714844 302.308594 L 517.078125 299.554688 L 517.570312 296.308594 L 517.070312 295.101562 L 517.777344 293.351562 L 518.414062 293.023438 L 521.59375 292.5625 L 522.515625 292.839844 L 523.488281 293.539062 L 524.417969 293.996094 L 525.90625 294.457031 Z M 522.105469 331.046875 L 520.890625 330.773438 L 520.09375 331.105469 L 519 330.636719 L 518.0625 330.609375 L 516.652344 329.363281 L 514.882812 328.941406 L 514.285156 327.195312 L 514.324219 326.222656 L 513.34375 325.929688 L 510.847656 322.90625 L 510.179688 321.316406 L 509.730469 320.824219 L 508.914062 318.625 L 511.507812 318.925781 L 512.253906 319.246094 L 513.042969 319.179688 L 514.40625 317.402344 L 516.523438 315.140625 L 517.367188 314.925781 L 517.6875 313.972656 L 519.0625 312.878906 L 520.847656 312.503906 L 520.960938 313.527344 L 522.914062 313.472656 L 523.972656 314.050781 L 524.449219 314.730469 L 525.554688 314.933594 L 526.726562 315.816406 L 526.570312 319.292969 L 526.023438 321.199219 L 525.820312 323.253906 L 526.152344 324.070312 L 525.804688 325.6875 L 525.441406 325.9375 L 524.71875 327.925781 Z M 522.105469 331.046875 "/>
</svg>
