<?xml version="1.0" encoding="UTF-8"?>
<svg xmlns="http://www.w3.org/2000/svg" xmlns:xlink="http://www.w3.org/1999/xlink" width="900pt" height="540pt" viewBox="0 0 900 540">
<path fill-rule="evenodd" fill="rgb(0%, 0%, 0%)" fill-opacity="1" d="M 586.023438 172.023438 L 588.488281 173.070312 L 590.097656 172.703125 L 590.320312 171.457031 L 591.992188 171.039062 L 593.074219 170.203125 L 593.070312 168.007812 L 594.820312 167.476562 L 594.957031 166.5 L 596.15625 167.234375 L 596.835938 167.316406 L 598.070312 167.335938 L 599.863281 167.914062 L 600.609375 168.25 L 602.015625 167.367188 L 602.878906 167.898438 L 603.308594 166.640625 L 604.640625 166.699219 L 604.886719 166.296875 L 604.863281 165.191406 L 605.585938 164.234375 L 606.925781 164.859375 L 606.882812 165.699219 L 607.578125 165.828125 L 607.90625 168.132812 L 608.988281 169.035156 L 609.628906 168.457031 L 610.546875 168.183594 L 611.632812 166.953125 L 613.199219 167.15625 L 615.476562 167.160156 L 616.0625 167.949219 L 614.847656 168.257812 L 613.84375 168.765625 L 611.378906 169.082031 L 609.132812 169.660156 L 608.105469 170.859375 L 608.886719 172.023438 L 609.4375 173.390625 L 608.574219 174.546875 L 608.890625 175.605469 L 608.480469 176.597656 L 606.335938 176.511719 L 607.582031 178.332031 L 606.292969 179.03125 L 605.660156 180.695312 L 606.09375 182.347656 L 605.359375 183.125 L 604.476562 182.867188 L 602.820312 183.226562 L 602.710938 184 L 601.03125 183.992188 L 600.042969 185.554688 L 600.359375 187.902344 L 597.601562 189.046875 L 595.980469 188.804688 L 595.617188 189.410156 L 594.207031 189.058594 L 592 189.472656 L 587.984375 188.0625 L 589.648438 185.5625 L 589.175781 183.789062 L 587.390625 183.324219 L 586.929688 181.574219 L 585.824219 179.371094 L 586.527344 177.863281 L 585.480469 177.457031 L 585.742188 175.453125 Z M 603.332031 153.90625 L 602.226562 154.410156 L 599.859375 156.308594 L 599.390625 158.261719 L 598.585938 158.28125 L 597.671875 156.988281 L 594.890625 156.898438 L 593.902344 154.664062 L 592.84375 154.644531 L 592.324219 151.917969 L 589.25 149.933594 L 585.621094 150.148438 L 583.199219 150.542969 L 580.5625 148.097656 L 578.566406 147.078125 L 574.792969 145.144531 L 574.339844 144.910156 L 569.234375 146.503906 L 571.472656 156.515625 L 570.386719 156.648438 L 568.4375 154.511719 L 566.820312 153.75 L 564.480469 154.316406 L 563.703125 155.222656 L 563.449219 154.558594 L 563.757812 153.421875 L 563.160156 152.476562 L 560.480469 151.550781 L 559.027344 149.113281 L 557.707031 148.429688 L 557.457031 147.546875 L 559.589844 147.804688 L 559.261719 145.828125 L 560.980469 145.390625 L 562.925781 145.792969 L 562.730469 143.164062 L 561.976562 141.503906 L 559.894531 141.632812 L 557.957031 140.976562 L 555.765625 142.15625 L 553.910156 142.722656 L 552.746094 142.285156 L 552.675781 140.90625 L 550.957031 139.113281 L 549.414062 139.191406 L 547.257812 137.375 L 548.039062 135.359375 L 547.316406 134.816406 L 548.335938 131.902344 L 550.808594 133.4375 L 550.628906 131.503906 L 554.199219 128.636719 L 557.386719 128.570312 L 562.386719 130.394531 L 565.109375 131.460938 L 567.003906 130.347656 L 570.253906 130.292969 L 573.277344 131.664062 L 573.65625 130.878906 L 576.585938 130.992188 L 576.738281 129.742188 L 572.875 127.9375 L 574.460938 126.660156 L 573.863281 125.945312 L 575.613281 125.265625 L 573.589844 123.480469 L 574.242188 122.59375 L 581.503906 121.691406 L 582.273438 121.054688 L 586.972656 120.097656 L 588.386719 119.03125 L 592.199219 119.585938 L 593.824219 122.265625 L 595.699219 121.632812 L 598.625 122.519531 L 598.992188 123.9375 L 600.882812 123.789062 L 604.996094 121.339844 L 604.582031 122.152344 L 607.957031 124.160156 L 615.109375 130.820312 L 615.675781 129.441406 L 619.105469 130.957031 L 621.800781 130.28125 L 623.128906 130.753906 L 624.730469 132.28125 L 626.378906 132.796875 L 627.707031 133.921875 L 630.242188 133.566406 L 631.996094 135.191406 L 631.101562 136.964844 L 629.460938 137.210938 L 630.371094 139.894531 L 629.644531 141.105469 L 625.144531 140.222656 L 625.300781 145.035156 L 624.414062 145.636719 L 620.546875 146.714844 L 623.96875 151.421875 L 622.710938 152.128906 L 623.351562 153.679688 L 621.902344 153.28125 L 620.527344 152.300781 L 617.246094 152.019531 L 613.652344 151.945312 L 612.957031 152.242188 L 609.5625 151.101562 L 608.503906 151.664062 L 608.617188 153.269531 L 604.8125 152.332031 L 603.496094 152.714844 Z M 603.332031 153.90625 L 603.496094 152.714844 L 604.8125 152.332031 L 608.617188 153.269531 L 608.503906 151.664062 L 609.5625 151.101562 L 612.957031 152.242188 L 613.652344 151.945312 L 617.246094 152.019531 L 620.527344 152.300781 L 621.902344 153.28125 L 623.351562 153.679688 L 623.234375 154.292969 L 620.257812 155.769531 L 619.792969 156.851562 L 617.097656 157.175781 L 616.753906 158.921875 L 614.347656 158.554688 L 612.984375 159.089844 L 611.242188 160.378906 L 611.707031 161.019531 L 611.242188 161.648438 L 607.207031 162.0625 L 604.285156 161.171875 L 601.964844 161.386719 L 601.789062 159.808594 L 604.28125 160.265625 L 604.867188 159.421875 L 606.59375 159.691406 L 608.878906 157.722656 L 605.925781 156.285156 L 604.558594 156.964844 L 602.691406 155.941406 L 604.046875 154.175781 Z M 632.722656 134.972656 L 634.730469 134.511719 L 637.738281 132.226562 L 640.347656 130.984375 L 642.5 131.796875 L 644.671875 131.835938 L 646.601562 133.070312 L 648.714844 133.167969 L 652.011719 133.832031 L 653.1875 131.988281 L 651.628906 130.433594 L 652.460938 127.707031 L 655.285156 128.792969 L 657.300781 129.101562 L 660.046875 129.777344 L 661.402344 131.753906 L 664.878906 132.867188 L 666.597656 132.378906 L 669.042969 132.03125 L 671.292969 132.378906 L 673.957031 133.652344 L 675.894531 135.011719 L 677.8125 134.984375 L 680.652344 135.417969 L 682.234375 134.757812 L 684.746094 134.316406 L 686.800781 132.449219 L 688.195312 132.734375 L 689.757812 133.621094 L 692.117188 133.402344 L 692.171875 135.402344 L 692.078125 138.066406 L 693.171875 139.160156 L 694.191406 138.820312 L 696.476562 139.238281 L 697.578125 138.25 L 699.707031 139.105469 L 702.582031 140.980469 L 702.839844 141.933594 L 701.019531 141.628906 L 698.128906 141.984375 L 697.019531 142.75 L 696.332031 144.53125 L 693.585938 145.574219 L 692.125 147.007812 L 689.683594 146.460938 L 688.371094 146.21875 L 688.035156 147.960938 L 689.179688 149 L 689.917969 149.894531 L 688.8125 150.808594 L 687.886719 152.261719 L 685.765625 153.21875 L 682.574219 153.320312 L 679.460938 154.265625 L 677.511719 155.726562 L 676.226562 154.882812 L 673.609375 154.882812 L 669.777344 153.230469 L 667.492188 152.824219 L 664.765625 153.203125 L 660.085938 152.59375 L 657.734375 152.65625 L 655.875 151.042969 L 653.964844 148.546875 L 652.527344 148.246094 L 649.3125 146.558594 L 646.300781 146.183594 L 643.597656 145.71875 L 642.394531 144.550781 L 642.011719 141.40625 L 639.710938 139.25 L 636.324219 138.246094 L 634.007812 136.828125 Z M 746.546875 131.128906 L 751.769531 135.824219 L 748.109375 134.945312 L 749.289062 138.800781 L 753.039062 141.546875 L 754.117188 143.425781 L 751.535156 141.804688 L 751.398438 143.886719 L 749.65625 141.628906 L 748.289062 139.019531 L 746.234375 136.136719 L 745.414062 134.128906 L 743.152344 130.589844 L 740.179688 128 L 737.84375 124.425781 L 738.855469 123.230469 L 737.171875 122.027344 L 737.800781 121.660156 L 739.585938 123.378906 L 742.105469 125.890625 L 743.871094 128.46875 Z M 495.871094 121.761719 L 492.164062 121.800781 L 489.648438 121.507812 L 489.988281 120.367188 L 492.671875 119.53125 L 494.824219 119.984375 L 495.761719 120.394531 L 495.632812 121.101562 Z M 128.480469 91.273438 L 129.03125 91.867188 L 130.625 90.140625 L 135.183594 90.496094 L 136.242188 92.71875 L 133.234375 93.761719 L 129.914062 94.007812 L 127.230469 96.359375 L 125.925781 96.863281 L 124.25 96.792969 L 123.769531 95.949219 L 122.085938 95.246094 L 122.867188 94.203125 L 121.4375 93.8125 L 118.96875 94.121094 L 118.945312 93.285156 L 120.394531 92.398438 L 117.511719 92.964844 L 117.015625 94.089844 L 114.761719 95.109375 L 126.230469 85.683594 L 128.429688 87.464844 L 130.378906 89.800781 Z M 768.21875 81.375 L 766.433594 81.492188 L 765.167969 80.765625 L 766.15625 79.820312 Z M 134.273438 81.234375 L 131.78125 81.375 L 133.84375 79.820312 L 134.195312 79.726562 L 135.675781 79.730469 L 137.363281 80.378906 L 136.804688 80.691406 Z M 698.078125 76.007812 L 695.476562 76.023438 L 691.664062 75.777344 L 691.234375 75.660156 L 691.902344 74.785156 L 693.824219 74.582031 L 697.214844 75.425781 Z M 705.441406 71.902344 L 704.535156 72.761719 L 701.578125 72.566406 L 697.390625 71.710938 L 696.945312 71.011719 L 700.492188 71.335938 Z M 694.625 70.871094 L 695.21875 72.476562 L 688.886719 72.414062 L 686.652344 72.929688 L 681.691406 71.519531 L 680.890625 70.042969 L 682.632812 69.644531 L 687.167969 69.738281 Z M 551.824219 81.628906 L 550.863281 81.832031 L 544.957031 81.535156 L 544.089844 80.523438 L 540.671875 79.914062 L 539.945312 78.691406 L 541.539062 78.207031 L 540.992188 76.984375 L 543.632812 75.089844 L 541.9375 74.820312 L 545.191406 72.894531 L 544.28125 71.90625 L 547.523438 70.769531 L 552.371094 69.398438 L 557.71875 69.003906 L 560.125 68.222656 L 563.195312 67.949219 L 564.855469 68.777344 L 564.125 69.4375 L 558.777344 70.496094 L 554.167969 71.519531 L 549.902344 73.589844 L 548.328125 75.742188 L 546.535156 77.890625 L 547.675781 79.761719 Z M 627.585938 67.875 L 629.019531 68.914062 L 630.058594 68.402344 L 634.953125 68.429688 L 639.726562 69.460938 L 641.851562 70.257812 L 642.5 71.375 L 641.226562 72.015625 L 637.859375 73.222656 L 637.148438 73.871094 L 639.539062 74.179688 L 642.570312 74.734375 L 643.742188 74.320312 L 645.882812 75.738281 L 646.128906 75.160156 L 648.5625 74.8125 L 654.414062 75.179688 L 655.796875 76.214844 L 663.34375 76.546875 L 661.8125 74.851562 L 665.839844 75.238281 L 668.578125 75.226562 L 672.527344 76.398438 L 674.738281 77.828125 L 674.621094 78.769531 L 678.539062 80.550781 L 682.203125 81.476562 L 681.578125 79.09375 L 685.402344 80.113281 L 687.785156 79.503906 L 691.894531 80.203125 L 692.535156 79.566406 L 695.738281 79.882812 L 692.28125 77.789062 L 693.539062 76.820312 L 710.855469 78.273438 L 713.851562 79.613281 L 720.40625 81.351562 L 727.046875 80.921875 L 730.996094 81.296875 L 733.570312 82.242188 L 735.285156 83.925781 L 738.238281 84.582031 L 740.089844 84.109375 L 743.191406 84.046875 L 747.101562 84.503906 L 750.1875 84.246094 L 755.769531 86.308594 L 757.113281 85.566406 L 753.878906 84.085938 L 753.421875 83.058594 L 759.90625 83.703125 L 763.445312 83.566406 L 769.976562 84.667969 L 773.769531 85.683594 L 785.238281 95.109375 L 785.238281 95.121094 L 784.070312 96.179688 L 781.445312 96.003906 L 784.601562 97.292969 L 787.992188 99.292969 L 789.605469 99.953125 L 790.957031 100.964844 L 791.1875 101.613281 L 787.054688 101.082031 L 783.730469 102.929688 L 782.335938 103.21875 L 781.21875 104.957031 L 779.980469 106.484375 L 780.410156 107.617188 L 775.910156 105.890625 L 772.808594 107.851562 L 771.019531 106.921875 L 770.195312 107.992188 L 767.269531 107.648438 L 768.210938 109.296875 L 768.136719 111.738281 L 769.144531 112.757812 L 771.90625 113.328125 L 774.972656 117.042969 L 773.207031 117.136719 L 774.214844 119.285156 L 775.996094 120.398438 L 773.585938 121.71875 L 775.3125 124.6875 L 772.789062 125.320312 L 774.257812 127.980469 L 773.160156 130.433594 L 771.035156 128.621094 L 767.207031 124.800781 L 761.445312 119.039062 L 759.414062 115.484375 L 759.769531 113.964844 L 758.835938 112.777344 L 761.390625 112.210938 L 761.992188 109.039062 L 762.902344 106.464844 L 764.4375 104.484375 L 762.484375 101.011719 L 760.386719 101.214844 L 761.269531 103.242188 L 759.042969 105.964844 L 754.53125 102.917969 L 750.398438 103.757812 L 749.433594 107.925781 L 752.425781 109.464844 L 748.652344 110.121094 L 745.855469 110.378906 L 744.40625 108.5625 L 741.050781 108.183594 L 739.707031 109.414062 L 733.378906 108.984375 L 727.585938 109.726562 L 725.140625 114.667969 L 721.949219 120.722656 L 725.355469 121.046875 L 727.496094 122.671875 L 729.871094 123.246094 L 730.242188 121.949219 L 732.578125 122.117188 L 737.554688 124.980469 L 739.1875 127.207031 L 739.382812 129.832031 L 741.300781 132.984375 L 743.078125 137.238281 L 742.269531 141.109375 L 742.652344 142.964844 L 741.554688 146.105469 L 740.378906 149.226562 L 739.839844 150.832031 L 737.792969 152.425781 L 736.453125 152.460938 L 734.429688 151.136719 L 732.535156 153.128906 L 732.644531 154.03125 L 732.109375 153.554688 L 731.414062 152.175781 L 732.476562 152.101562 L 731.152344 148.894531 L 729.371094 146.578125 L 730.691406 145.625 L 733.53125 146.105469 L 733.519531 143.480469 L 732.570312 140.539062 L 732.816406 139.558594 L 732.488281 137.152344 L 729.5 137.9375 L 728.296875 138.992188 L 725.105469 138.992188 L 722.800781 136.480469 L 719.214844 134.589844 L 715.097656 133.742188 L 712.785156 131.148438 L 711.085938 129.53125 L 709.621094 128.398438 L 706.714844 125.753906 L 704.324219 124.792969 L 700.792969 124.019531 L 698.148438 124.089844 L 695.914062 124.558594 L 695.015625 125.859375 L 696.507812 126.476562 L 697.394531 127.925781 L 696.746094 128.769531 L 696.488281 131.5625 L 697.15625 132.726562 L 695.152344 134.402344 L 692.117188 133.402344 L 689.757812 133.621094 L 688.195312 132.734375 L 686.800781 132.449219 L 684.746094 134.316406 L 682.234375 134.757812 L 680.652344 135.417969 L 677.8125 134.984375 L 675.894531 135.011719 L 673.957031 133.652344 L 671.292969 132.378906 L 669.042969 132.03125 L 666.597656 132.378906 L 664.878906 132.867188 L 661.402344 131.753906 L 660.046875 129.777344 L 657.300781 129.101562 L 655.285156 128.792969 L 652.460938 127.707031 L 651.628906 130.433594 L 653.1875 131.988281 L 652.011719 133.832031 L 648.714844 133.167969 L 646.601562 133.070312 L 644.671875 131.835938 L 642.5 131.796875 L 640.347656 130.984375 L 637.738281 132.226562 L 634.730469 134.511719 L 632.722656 134.972656 L 631.996094 135.191406 L 630.242188 133.566406 L 627.707031 133.921875 L 626.378906 132.796875 L 624.730469 132.28125 L 623.128906 130.753906 L 621.800781 130.28125 L 619.105469 130.957031 L 615.675781 129.441406 L 615.109375 130.820312 L 607.957031 124.160156 L 604.582031 122.152344 L 604.996094 121.339844 L 600.882812 123.789062 L 598.992188 123.9375 L 598.625 122.519531 L 595.699219 121.632812 L 593.824219 122.265625 L 592.199219 119.585938 L 588.386719 119.03125 L 586.972656 120.097656 L 582.273438 121.054688 L 581.503906 121.691406 L 574.242188 122.59375 L 573.589844 123.480469 L 575.613281 125.265625 L 573.863281 125.945312 L 574.460938 126.660156 L 572.875 127.9375 L 576.738281 129.742188 L 576.585938 130.992188 L 573.65625 130.878906 L 573.277344 131.664062 L 570.253906 130.292969 L 567.003906 130.347656 L 565.109375 131.460938 L 562.386719 130.394531 L 557.386719 128.570312 L 554.199219 128.636719 L 550.628906 131.503906 L 550.808594 133.4375 L 548.335938 131.902344 L 547.316406 134.816406 L 548.039062 135.359375 L 547.257812 137.375 L 549.414062 139.191406 L 550.957031 139.113281 L 552.675781 140.90625 L 552.746094 142.285156 L 553.910156 142.722656 L 553.269531 144.316406 L 551.300781 144.761719 L 549.71875 147.550781 L 552.144531 150.121094 L 552.269531 151.949219 L 555.203125 155.152344 L 554.105469 156.25 L 553.851562 156.945312 L 552.859375 156.757812 L 551.085938 155.101562 L 550.460938 155.011719 L 548.992188 154.378906 L 548.140625 153.261719 L 546.03125 152.695312 L 544.792969 153.121094 L 544.332031 152.617188 L 541.1875 151.3125 L 537.949219 150.875 L 536.0625 150.410156 L 535.847656 150.730469 L 532.761719 148.441406 L 530.167969 147.417969 L 528.085938 145.832031 L 529.570312 145.402344 L 530.980469 143.148438 L 529.625 142.082031 L 532.558594 140.988281 L 532.402344 140.402344 L 530.582031 140.832031 L 530.453125 139.644531 L 531.410156 138.894531 L 533.410156 138.699219 L 533.582031 137.808594 L 532.859375 136.339844 L 533.453125 134.945312 L 533.285156 134.164062 L 530.070312 133.300781 L 528.863281 133.328125 L 527.363281 132.089844 L 525.847656 132.507812 L 523.066406 131.578125 L 523.023438 131.058594 L 522.097656 129.914062 L 520.433594 129.789062 L 520.128906 128.972656 L 520.554688 128.4375 L 519 126.953125 L 516.917969 127.207031 L 516.277344 127.074219 L 515.855469 127.671875 L 515.074219 127.566406 L 514.308594 125.886719 L 513.695312 125.019531 L 514.046875 124.777344 L 515.703125 124.867188 L 516.398438 124.296875 L 515.699219 123.605469 L 514.257812 123.144531 L 514.304688 122.675781 L 513.40625 122.203125 L 511.867188 120.507812 L 512.183594 119.8125 L 511.789062 118.601562 L 509.734375 117.988281 L 508.734375 118.296875 L 508.351562 117.660156 L 506.152344 117.015625 L 505.28125 115.507812 L 504.925781 114.269531 L 503.882812 113.683594 L 504.601562 112.878906 L 503.652344 110.523438 L 504.808594 109.074219 L 504.445312 108.632812 L 506.421875 107.253906 L 504.195312 106.066406 L 507.75 102.90625 L 509.253906 101.484375 L 509.726562 100.234375 L 506.605469 98.5625 L 507.070312 96.980469 L 505.039062 95.183594 L 505.886719 93.128906 L 503.210938 90.421875 L 504.535156 88.640625 L 501.445312 87.078125 L 501.382812 85.445312 L 502.789062 85.234375 L 505.640625 84.304688 L 507.300781 83.5 L 510.566406 84.898438 L 515.617188 85.449219 L 523.148438 88.089844 L 524.859375 89.210938 L 525.417969 90.78125 L 523.714844 92.03125 L 520.871094 92.667969 L 512.21875 90.859375 L 510.9375 91.160156 L 514.335938 92.902344 L 514.710938 94.011719 L 515.390625 96.472656 L 517.96875 97.210938 L 519.582031 97.839844 L 519.546875 96.664062 L 518.175781 95.628906 L 519.140625 94.714844 L 524.023438 96.214844 L 525.445312 95.628906 L 523.734375 93.867188 L 527.402344 91.53125 L 529.136719 91.667969 L 531.101562 92.5 L 531.6875 90.867188 L 529.742188 89.457031 L 530.210938 88.050781 L 528.4375 86.597656 L 533.726562 87.347656 L 535.1875 88.660156 L 532.972656 88.953125 L 533.390625 90.265625 L 535.085938 91.078125 L 537.757812 90.5625 L 537.714844 89.054688 L 541.132812 87.9375 L 546.714844 85.929688 L 548.117188 86.042969 L 546.871094 87.460938 L 549.207031 87.703125 L 550.199219 86.90625 L 553.5625 86.839844 L 555.847656 85.875 L 558.488281 87.28125 L 559.886719 85.734375 L 557.429688 84.390625 L 558.03125 83.628906 L 563.617188 84.328125 L 566.429688 85.050781 L 574.207031 87.714844 L 574.828125 86.492188 L 572.410156 85.261719 L 572.117188 84.769531 L 569.851562 84.542969 L 569.914062 83.449219 L 568.097656 81.65625 L 567.6875 80.925781 L 569.902344 78.871094 L 569.976562 76.832031 L 571.03125 76.394531 L 575.941406 76.980469 L 576.992188 78.230469 L 576.324219 80.0625 L 577.804688 80.785156 L 579.222656 82.382812 L 580.457031 85.546875 L 583.175781 86.976562 L 583.191406 88.542969 L 581.246094 91.902344 L 583.523438 92.253906 L 583.839844 91.398438 L 585.558594 90.789062 L 585.457031 89.617188 L 586.464844 88.496094 L 584.71875 87.160156 L 584.757812 85.621094 L 582.691406 85.429688 L 581.589844 84.140625 L 581.777344 81.832031 L 578.480469 79.976562 L 580.773438 78.453125 L 579.460938 76.855469 L 580.300781 76.804688 L 581.925781 78.046875 L 582.46875 80.226562 L 584.585938 80.644531 L 582.859375 79.007812 L 585.269531 78.121094 L 588.816406 78.003906 L 592.828125 79.289062 L 590.128906 77.414062 L 588.476562 75.042969 L 591.179688 74.597656 L 595.371094 74.695312 L 598.894531 74.40625 L 596.710938 73.261719 L 597.667969 71.832031 L 599.570312 71.773438 L 602.058594 70.703125 L 606.285156 70.417969 L 606.378906 69.835938 L 610.621094 69.636719 L 612.386719 70.113281 L 615.195312 68.984375 L 618.292969 69.019531 L 617.945312 68.113281 L 618.71875 67.222656 L 621.8125 66.375 L 625.289062 67.042969 L 623.523438 67.554688 Z M 621.769531 65.128906 L 613.296875 65.914062 L 613.675781 63.273438 L 614.773438 63.050781 L 616.121094 63.179688 L 621.410156 64.308594 Z M 531.257812 60.730469 L 529.265625 60.980469 L 527.914062 61.125 L 527.859375 61.4375 L 526.15625 61.753906 L 524.191406 61.300781 L 524.789062 60.707031 L 521.222656 60.648438 L 524.140625 60.304688 L 526.535156 60.28125 L 527.140625 60.789062 L 527.800781 60.339844 L 529.117188 60.03125 L 531.703125 60.441406 Z M 612.242188 63.972656 L 608.941406 64.222656 L 603.867188 63.648438 L 600.460938 62.890625 L 597.851562 61.496094 L 595.292969 61.121094 L 598.050781 59.835938 L 600.988281 59.417969 L 605.125 60.351562 L 610.816406 62.199219 Z M 604.867188 159.421875 L 604.28125 160.265625 L 601.789062 159.808594 L 601.964844 161.386719 L 604.285156 161.171875 L 607.207031 162.0625 L 611.242188 161.648438 L 612.433594 164.183594 L 613.085938 163.90625 L 614.578125 164.53125 L 614.765625 165.597656 L 615.476562 167.160156 L 613.199219 167.15625 L 611.632812 166.953125 L 610.546875 168.183594 L 609.628906 168.457031 L 608.988281 169.035156 L 607.90625 168.132812 L 607.578125 165.828125 L 606.882812 165.699219 L 606.925781 164.859375 L 605.585938 164.234375 L 604.863281 165.191406 L 604.886719 166.296875 L 604.640625 166.699219 L 603.308594 166.640625 L 602.878906 167.898438 L 602.015625 167.367188 L 600.609375 168.25 L 599.863281 167.914062 L 600.484375 165.140625 L 599.542969 163.097656 L 597.785156 162.445312 L 598.074219 161.238281 L 599.929688 161.367188 L 600.605469 159.855469 L 600.871094 158.101562 L 603.617188 157.46875 L 603.484375 158.734375 L 603.984375 159.492188 Z M 586.023438 172.023438 L 585.390625 169.710938 L 583.722656 169.613281 L 580.734375 167.179688 L 578.914062 166.878906 L 576.214844 165.488281 L 574.601562 165.234375 L 573.730469 165.746094 L 572.242188 165.667969 L 570.957031 167.238281 L 569.109375 167.769531 L 568.359375 165.828125 L 568.164062 162.960938 L 566.285156 162.03125 L 566.5 160.15625 L 565.023438 160 L 565.074219 157.695312 L 567.253906 158.367188 L 568.996094 157.492188 L 567.089844 155.855469 L 566.15625 154.296875 L 564.554688 154.992188 L 564.71875 156.988281 L 563.703125 155.222656 L 564.480469 154.316406 L 566.820312 153.75 L 568.4375 154.511719 L 570.386719 156.648438 L 571.472656 156.515625 L 573.914062 156.480469 L 573.269531 155.105469 L 574.917969 154.167969 L 576.390625 152.585938 L 579.621094 154.023438 L 580.335938 156.199219 L 581.289062 156.757812 L 583.605469 156.632812 L 584.445312 157.125 L 586.140625 159.945312 L 589.054688 161.832031 L 590.765625 163.121094 L 593.351562 164.464844 L 596.535156 165.636719 L 596.835938 167.316406 L 596.15625 167.234375 L 594.957031 166.5 L 594.820312 167.476562 L 593.070312 168.007812 L 593.074219 170.203125 L 591.992188 171.039062 L 590.320312 171.457031 L 590.097656 172.703125 L 588.488281 173.070312 Z M 596.835938 167.316406 L 596.535156 165.636719 L 593.351562 164.464844 L 590.765625 163.121094 L 589.054688 161.832031 L 586.140625 159.945312 L 584.445312 157.125 L 583.605469 156.632812 L 581.289062 156.757812 L 580.335938 156.199219 L 579.621094 154.023438 L 576.390625 152.585938 L 574.917969 154.167969 L 573.269531 155.105469 L 573.914062 156.480469 L 571.472656 156.515625 L 569.234375 146.503906 L 574.339844 144.910156 L 574.792969 145.144531 L 578.566406 147.078125 L 580.5625 148.097656 L 583.199219 150.542969 L 585.621094 150.148438 L 589.25 149.933594 L 592.324219 151.917969 L 592.84375 154.644531 L 593.902344 154.664062 L 594.890625 156.898438 L 597.671875 156.988281 L 598.585938 158.28125 L 599.390625 158.261719 L 599.859375 156.308594 L 602.226562 154.410156 L 603.332031 153.90625 L 604.046875 154.175781 L 602.691406 155.941406 L 604.558594 156.964844 L 605.925781 156.285156 L 608.878906 157.722656 L 606.59375 159.691406 L 604.867188 159.421875 L 603.984375 159.492188 L 603.484375 158.734375 L 603.617188 157.46875 L 600.871094 158.101562 L 600.605469 159.855469 L 599.929688 161.367188 L 598.074219 161.238281 L 597.785156 162.445312 L 599.542969 163.097656 L 600.484375 165.140625 L 599.863281 167.914062 L 598.070312 167.335938 Z M 596.835938 167.316406 "/>
</svg>
