<?xml version="1.0" encoding="UTF-8"?>
<svg xmlns="http://www.w3.org/2000/svg" xmlns:xlink="http://www.w3.org/1999/xlink" width="900pt" height="540pt" viewBox="0 0 900 540">
<path fill-rule="evenodd" fill="rgb(0%, 0%, 0%)" fill-opacity="1" d="M 477.664062 205.589844 L 469.847656 210.839844 L 463.195312 216.246094 L 459.925781 217.472656 L 457.347656 217.742188 L 457.3125 215.992188 L 456.234375 215.542969 L 454.785156 214.757812 L 454.230469 213.46875 L 446.421875 207.460938 L 438.691406 201.449219 L 430.175781 194.773438 L 430.230469 194.242188 L 430.234375 194.054688 L 430.28125 190.789062 L 433.988281 188.753906 L 436.257812 188.332031 L 438.125 187.589844 L 439.007812 186.210938 L 441.664062 185.117188 L 441.777344 183.078125 L 443.085938 182.835938 L 444.113281 181.816406 L 447.058594 181.351562 L 447.472656 180.28125 L 446.882812 179.695312 L 446.125 176.789062 L 446 175.113281 L 445.167969 173.351562 L 447.316406 171.847656 L 449.71875 171.367188 L 451.117188 170.234375 L 453.25 169.398438 L 456.996094 168.910156 L 460.652344 168.683594 L 461.773438 169.09375 L 463.835938 168.011719 L 466.199219 167.988281 L 467.113281 168.628906 L 468.621094 168.460938 L 468.207031 169.871094 L 468.625 172.492188 L 468.160156 174.761719 L 466.816406 176.296875 L 467.058594 178.375 L 468.929688 180.015625 L 468.964844 180.683594 L 470.378906 181.792969 L 471.460938 186.742188 L 472.253906 189.179688 L 472.40625 190.460938 L 472.058594 192.710938 L 472.253906 193.96875 L 471.996094 195.476562 L 472.230469 197.210938 L 471.347656 198.363281 L 472.746094 200.371094 L 472.855469 201.554688 L 473.703125 203.089844 L 474.769531 202.585938 L 476.613281 203.863281 Z M 544.683594 157.105469 L 547.636719 156.679688 L 548.203125 157.398438 L 549.105469 157.871094 L 548.78125 158.554688 L 550.09375 159.492188 L 549.617188 160.363281 L 550.664062 161.109375 L 551.71875 161.558594 L 552.066406 163.457031 L 551.285156 163.535156 L 550.144531 161.953125 L 550.085938 161.53125 L 549.121094 161.535156 L 548.359375 160.800781 L 547.914062 160.875 L 546.929688 160.078125 L 545.203125 159.398438 L 545.207031 158.066406 Z M 548.359375 160.800781 L 549.121094 161.535156 L 550.085938 161.53125 L 550.144531 161.953125 L 551.285156 163.535156 L 549.722656 163.171875 L 548.421875 161.910156 L 547.914062 160.875 Z M 552.859375 156.757812 L 553.851562 156.945312 L 554.105469 156.25 L 555.203125 155.152344 L 556.601562 156.589844 L 558.050781 158.523438 L 559.089844 158.652344 L 559.890625 159.390625 L 558.132812 159.609375 L 558.121094 161.734375 L 557.902344 162.691406 L 557.207031 163.332031 L 557.488281 164.691406 L 556.960938 164.828125 L 555.359375 163.390625 L 555.894531 162.035156 L 555.113281 161.234375 L 554.328125 161.4375 L 552.066406 163.457031 L 551.71875 161.558594 L 550.664062 161.109375 L 549.617188 160.363281 L 550.09375 159.492188 L 548.78125 158.554688 L 549.105469 157.871094 L 548.203125 157.398438 L 547.636719 156.679688 L 548.09375 156.234375 L 549.839844 157.019531 L 551.039062 157.183594 L 551.28125 156.863281 L 549.964844 155.386719 L 550.460938 155.011719 L 551.085938 155.101562 Z M 525.664062 173.652344 L 525.757812 173.875 L 523.582031 174.992188 L 522.457031 174.632812 L 521.828125 173.53125 L 522.878906 173.429688 L 523.308594 173.570312 L 523.890625 173.335938 L 524.324219 173.367188 L 524.5 173.535156 L 524.574219 173.8125 L 524.671875 173.707031 L 525.011719 173.765625 L 525.417969 173.554688 Z M 529.238281 188.96875 L 528.695312 190.074219 L 528.375 192.160156 L 527.871094 193.59375 L 527.378906 194.078125 L 526.546875 193.1875 L 525.425781 191.957031 L 523.488281 188.003906 L 523.277344 188.253906 L 524.449219 191.164062 L 526.0625 193.9375 L 528.113281 198.230469 L 529.066406 199.730469 L 529.917969 201.285156 L 532.199219 204.335938 L 531.773438 204.816406 L 531.972656 206.609375 L 534.828125 209.078125 L 535.269531 209.644531 L 507.824219 209.644531 L 507.328125 199.496094 L 506.769531 189.691406 L 505.949219 187.46875 L 506.425781 185.765625 L 506 184.589844 L 506.730469 183.265625 L 509.726562 183.21875 L 511.949219 183.949219 L 514.25 184.761719 L 515.328125 185.191406 L 517 184.320312 L 517.867188 183.53125 L 519.835938 183.300781 L 521.46875 183.648438 L 522.195312 185.015625 L 522.644531 184.117188 L 524.507812 184.769531 L 526.285156 184.925781 L 527.332031 184.230469 Z M 540.09375 155.898438 L 540.238281 154.734375 L 539.410156 152.875 L 538.007812 151.875 L 536.765625 151.5625 L 535.847656 150.730469 L 536.0625 150.410156 L 537.949219 150.875 L 541.1875 151.3125 L 544.332031 152.617188 L 544.792969 153.121094 L 546.03125 152.695312 L 548.140625 153.261719 L 548.992188 154.378906 L 550.460938 155.011719 L 549.964844 155.386719 L 551.28125 156.863281 L 551.039062 157.183594 L 549.839844 157.019531 L 548.09375 156.234375 L 547.636719 156.679688 L 544.683594 157.105469 L 542.382812 155.765625 Z M 569.109375 167.769531 L 570.957031 167.238281 L 572.242188 165.667969 L 573.730469 165.746094 L 574.601562 165.234375 L 576.214844 165.488281 L 578.914062 166.878906 L 580.734375 167.179688 L 583.722656 169.613281 L 585.390625 169.710938 L 586.023438 172.023438 L 585.742188 175.453125 L 585.480469 177.457031 L 586.527344 177.863281 L 585.824219 179.371094 L 586.929688 181.574219 L 587.390625 183.324219 L 589.175781 183.789062 L 589.648438 185.5625 L 587.984375 188.0625 L 589.324219 189.515625 L 590.488281 191.179688 L 592.84375 192.390625 L 593.257812 194.820312 L 594.414062 195.265625 L 594.78125 196.535156 L 591.679688 197.960938 L 591.234375 201.164062 L 586.808594 200.332031 L 584.230469 199.699219 L 581.597656 199.339844 L 580.199219 195.960938 L 579.042969 195.46875 L 577.351562 195.964844 L 575.207031 197.296875 L 572.300781 196.382812 L 569.742188 194.261719 L 567.453125 193.476562 L 565.617188 190.863281 L 563.484375 187.183594 L 562.320312 187.632812 L 560.769531 186.71875 L 560.054688 187.792969 L 558.625 186.34375 L 558.421875 184.875 L 557.699219 184.875 L 557.820312 182.878906 L 556.390625 180.785156 L 553.445312 179.273438 L 551.550781 176.65625 L 551.785156 174.507812 L 552.773438 173.558594 L 552.382812 171.949219 L 550.808594 171.125 L 548.910156 167.847656 L 547.386719 165.648438 L 547.691406 164.796875 L 546.535156 161.65625 L 547.914062 160.875 L 548.421875 161.910156 L 549.722656 163.171875 L 551.285156 163.535156 L 552.066406 163.457031 L 554.328125 161.4375 L 555.113281 161.234375 L 555.894531 162.035156 L 555.359375 163.390625 L 556.960938 164.828125 L 557.488281 164.691406 L 558.511719 166.714844 L 560.695312 167.285156 L 562.453125 168.664062 L 565.675781 169.136719 L 569.007812 168.410156 Z M 550.808594 171.125 L 552.382812 171.949219 L 552.773438 173.558594 L 551.785156 174.507812 L 551.550781 176.65625 L 553.445312 179.273438 L 556.390625 180.785156 L 557.820312 182.878906 L 557.699219 184.875 L 558.421875 184.875 L 558.625 186.34375 L 560.054688 187.792969 L 558.695312 187.660156 L 557.144531 187.429688 L 555.789062 190.078125 L 551.539062 189.855469 L 544.550781 184.3125 L 540.980469 182.378906 L 538.1875 181.632812 L 536.917969 178.277344 L 541.542969 175.410156 L 541.972656 172.085938 L 541.507812 170.074219 L 542.632812 169.398438 L 543.535156 167.683594 L 544.425781 167.257812 L 547.042969 167.609375 L 547.917969 168.308594 L 548.910156 167.847656 Z M 530.21875 180.121094 L 529.914062 180.992188 L 529.0625 180.609375 L 528.769531 182.445312 L 529.363281 182.753906 L 528.824219 183.132812 L 528.792969 183.859375 L 529.820312 183.484375 L 529.972656 184.558594 L 529.238281 188.96875 L 527.332031 184.230469 L 527.90625 183.320312 L 527.738281 183.164062 L 528.214844 181.875 L 528.472656 179.796875 L 528.722656 179.097656 L 528.785156 179.070312 L 529.535156 179.074219 L 529.691406 178.59375 L 530.289062 178.558594 L 530.4375 179.683594 L 530.175781 180.105469 Z M 529.914062 180.992188 L 530.21875 180.121094 L 532.832031 181.214844 L 536.917969 178.277344 L 538.1875 181.632812 L 537.800781 182.050781 L 533.429688 183.433594 L 535.953125 186.191406 L 535.25 186.660156 L 534.964844 187.582031 L 533.269531 187.964844 L 532.816406 188.957031 L 531.910156 189.804688 L 529.347656 189.367188 L 529.238281 188.96875 L 529.972656 184.558594 L 529.820312 183.484375 L 530.074219 182.675781 Z M 558.695312 187.660156 L 559.3125 188.875 L 559.1875 189.503906 L 560.160156 191.585938 L 558.558594 191.65625 L 557.84375 190.34375 L 555.789062 190.078125 L 557.144531 187.429688 Z M 530.289062 178.558594 L 529.691406 178.59375 L 529.535156 179.074219 L 528.785156 179.070312 L 529.355469 176.828125 L 530.265625 174.886719 L 530.296875 174.792969 L 531.316406 174.929688 L 531.796875 176.011719 L 530.6875 177.046875 Z M 484.285156 207.269531 L 482.679688 208.289062 L 481.339844 206.777344 L 477.664062 205.589844 L 476.613281 203.863281 L 474.769531 202.585938 L 473.703125 203.089844 L 472.855469 201.554688 L 472.746094 200.371094 L 471.347656 198.363281 L 472.230469 197.210938 L 471.996094 195.476562 L 472.253906 193.96875 L 472.058594 192.710938 L 472.40625 190.460938 L 472.253906 189.179688 L 471.460938 186.742188 L 472.550781 186.105469 L 472.714844 184.941406 L 472.445312 183.796875 L 473.964844 182.734375 L 474.632812 181.851562 L 475.703125 181.058594 L 475.765625 178.945312 L 478.429688 179.894531 L 479.367188 179.65625 L 481.257812 180.117188 L 484.289062 181.347656 L 485.445312 183.796875 L 487.496094 184.332031 L 490.730469 185.484375 L 493.207031 186.855469 L 494.273438 186.140625 L 495.292969 184.875 L 494.65625 182.761719 L 495.289062 181.421875 L 496.835938 180.128906 L 498.359375 179.753906 L 501.433594 180.316406 L 502.277344 181.550781 L 503.113281 181.5625 L 503.859375 182.03125 L 506.121094 182.355469 L 506.730469 183.265625 L 506 184.589844 L 506.425781 185.765625 L 505.949219 187.46875 L 506.769531 189.691406 L 507.328125 199.496094 L 507.824219 209.644531 L 508.058594 215.140625 L 505.390625 215.148438 L 505.40625 216.304688 L 495.960938 211.035156 L 486.570312 205.761719 Z M 421.480469 229.945312 L 419.964844 228.058594 L 418.582031 226.039062 L 417.042969 225.308594 L 415.941406 224.503906 L 414.636719 224.53125 L 413.484375 225.132812 L 412.328125 224.894531 L 411.507812 225.773438 L 411.339844 224.292969 L 412.023438 222.9375 L 412.371094 220.351562 L 412.179688 217.632812 L 411.933594 216.265625 L 412.203125 214.894531 L 411.640625 213.585938 L 410.449219 212.398438 L 410.984375 211.480469 L 420.054688 211.496094 L 419.707031 207.519531 L 420.308594 206.105469 L 422.472656 205.859375 L 422.570312 198.804688 L 430.089844 198.949219 L 430.175781 194.773438 L 438.691406 201.449219 L 435.175781 201.5 L 436.148438 213.386719 L 437.171875 225.253906 L 437.574219 225.589844 L 437.039062 227.515625 L 427.648438 227.554688 L 427.292969 228.167969 L 426.386719 227.984375 L 425.0625 228.527344 L 423.4375 227.761719 L 422.695312 227.824219 L 422.277344 229.445312 Z M 438.460938 171.734375 L 439.785156 172.902344 L 441.902344 172.714844 L 444.203125 173.320312 L 445.167969 173.351562 L 446 175.113281 L 446.125 176.789062 L 446.882812 179.695312 L 447.472656 180.28125 L 447.058594 181.351562 L 444.113281 181.816406 L 443.085938 182.835938 L 441.777344 183.078125 L 441.664062 185.117188 L 439.007812 186.210938 L 438.125 187.589844 L 436.257812 188.332031 L 433.988281 188.753906 L 430.28125 190.789062 L 430.234375 194.054688 L 429.886719 194.054688 L 429.910156 195.53125 L 428.496094 195.621094 L 427.746094 196.25 L 426.707031 196.25 L 425.886719 195.890625 L 423.957031 196.1875 L 423.160156 198.335938 L 422.4375 198.539062 L 421.269531 202.011719 L 417.992188 204.984375 L 417.128906 208.789062 L 416.148438 210.027344 L 415.847656 211.019531 L 410.625 211.238281 L 410.585938 211.234375 L 410.730469 209.957031 L 411.644531 209.207031 L 412.441406 207.773438 L 412.320312 206.839844 L 413.175781 204.898438 L 414.511719 203.144531 L 415.300781 202.703125 L 415.957031 201.09375 L 416.054688 199.625 L 416.9375 197.921875 L 418.492188 196.917969 L 420.027344 194.101562 L 420.070312 194.0625 L 421.246094 193.003906 L 423.375 192.699219 L 425.21875 190.8125 L 426.375 190.078125 L 428.328125 187.773438 L 427.847656 184.34375 L 428.765625 181.972656 L 429.101562 180.519531 L 430.59375 178.660156 L 432.867188 177.402344 L 434.550781 176.261719 L 436.097656 173.410156 L 436.828125 171.722656 Z M 522.878906 173.429688 L 523.03125 173.414062 L 523.289062 172.75 L 524.894531 172.785156 L 526.832031 171.964844 L 525.449219 173.136719 L 525.664062 173.652344 L 525.417969 173.554688 L 525.011719 173.765625 L 524.671875 173.707031 L 524.574219 173.8125 L 524.5 173.535156 L 524.324219 173.367188 L 523.890625 173.335938 L 523.308594 173.570312 Z M 586.398438 212.082031 L 585.71875 213.96875 L 584.652344 213.824219 L 584.234375 214.480469 L 583.992188 215.875 L 584.445312 217.714844 L 584.253906 218.050781 L 583.183594 218.042969 L 581.820312 219.070312 L 581.703125 220.410156 L 581.21875 220.992188 L 579.765625 220.96875 L 578.910156 221.660156 L 579.007812 222.769531 L 577.9375 223.535156 L 576.628906 223.273438 L 575.136719 224.203125 L 574.066406 224.355469 L 573.164062 222.4375 L 570.992188 217.898438 L 577.730469 215.148438 L 578.753906 209.644531 L 577.496094 207.691406 L 577.441406 206.585938 L 577.996094 205.445312 L 577.878906 204.316406 L 578.859375 203.773438 L 578.410156 203.390625 L 578.394531 201.597656 L 579.570312 201.585938 L 580.816406 203.46875 L 582.214844 204.46875 L 583.945312 204.828125 L 585.367188 205.332031 L 586.585938 206.910156 L 587.308594 207.824219 L 588.171875 208.175781 L 588.238281 208.789062 L 587.570312 210.429688 L 587.28125 211.203125 Z M 579.238281 198.910156 L 579 199.410156 L 578.453125 198.46875 L 579.003906 197.53125 L 579.316406 197.769531 Z M 566.78125 202.054688 L 566.417969 200.050781 L 566.878906 198.601562 L 567.472656 198.308594 L 568.261719 199.171875 L 568.476562 200.785156 L 568.152344 202.40625 L 567.535156 202.601562 Z M 549.984375 225.191406 L 549.613281 224.015625 L 548.863281 223.191406 L 548.617188 222.09375 L 547.351562 221.109375 L 545.96875 218.804688 L 545.171875 216.5625 L 543.441406 214.667969 L 542.375 214.214844 L 540.664062 211.59375 L 540.261719 209.679688 L 540.246094 208.046875 L 538.695312 204.992188 L 537.535156 203.917969 L 536.25 203.347656 L 535.375 201.769531 L 535.453125 201.144531 L 534.703125 199.71875 L 533.988281 199.101562 L 532.929688 197.050781 L 531.359375 194.828125 L 530.042969 192.933594 L 528.910156 192.945312 L 529.140625 191.433594 L 529.160156 190.46875 L 529.347656 189.367188 L 531.910156 189.804688 L 532.816406 188.957031 L 533.269531 187.964844 L 534.964844 187.582031 L 535.25 186.660156 L 535.953125 186.191406 L 533.429688 183.433594 L 537.800781 182.050781 L 538.1875 181.632812 L 540.980469 182.378906 L 544.550781 184.3125 L 551.539062 189.855469 L 555.789062 190.078125 L 557.84375 190.34375 L 558.558594 191.65625 L 560.160156 191.585938 L 561.324219 193.964844 L 562.515625 194.59375 L 563.015625 195.5625 L 564.703125 196.722656 L 564.964844 197.859375 L 564.835938 198.777344 L 565.226562 199.703125 L 565.96875 200.476562 L 566.367188 201.378906 L 566.78125 202.054688 L 567.535156 202.601562 L 568.152344 202.40625 L 568.695312 203.457031 L 568.847656 204.097656 L 570.011719 206.886719 L 577.089844 208.277344 L 577.496094 207.691406 L 578.753906 209.644531 L 577.730469 215.148438 L 570.992188 217.898438 L 564.363281 218.953125 L 562.277344 220.191406 L 560.804688 223.078125 L 559.746094 223.535156 L 559.101562 222.621094 L 558.214844 222.757812 L 555.941406 222.480469 L 555.496094 222.207031 L 552.808594 222.269531 L 552.191406 222.519531 L 551.1875 221.804688 L 550.652344 223.15625 L 550.960938 224.3125 Z M 530.046875 244.078125 L 529.71875 244.023438 L 529.722656 242.660156 L 529.414062 241.71875 L 528.171875 240.636719 L 527.828125 238.660156 L 528.046875 236.632812 L 526.953125 236.445312 L 526.8125 237.058594 L 525.402344 237.199219 L 525.992188 238 L 526.242188 239.648438 L 524.992188 241.152344 L 523.871094 243.128906 L 522.664062 243.414062 L 520.644531 241.8125 L 519.769531 242.378906 L 519.542969 243.175781 L 518.34375 243.695312 L 518.273438 244.257812 L 515.925781 244.257812 L 515.589844 243.695312 L 513.890625 243.601562 L 513.050781 244.070312 L 512.398438 243.835938 L 511.152344 242.234375 L 510.730469 241.484375 L 509.042969 241.859375 L 508.417969 243.128906 L 507.859375 245.578125 L 507.058594 246.09375 L 506.335938 246.394531 L 506.144531 246.265625 L 505.3125 245.476562 L 505.148438 244.625 L 505.511719 243.484375 L 505.480469 242.367188 L 504.089844 240.652344 L 503.800781 239.476562 L 503.816406 238.8125 L 502.933594 238.003906 L 502.871094 236.410156 L 502.355469 235.351562 L 501.535156 235.511719 L 501.75 234.503906 L 502.332031 233.359375 L 502.039062 232.222656 L 502.785156 231.382812 L 502.28125 230.742188 L 502.855469 229.042969 L 503.867188 227.023438 L 505.890625 227.214844 L 505.40625 216.304688 L 505.390625 215.148438 L 508.058594 215.140625 L 507.824219 209.644531 L 535.269531 209.644531 L 536.191406 212.34375 L 535.714844 212.84375 L 536.226562 215.675781 L 537.273438 218.960938 L 538.199219 219.636719 L 539.53125 220.652344 L 538.4375 222.222656 L 536.742188 222.675781 L 536.050781 223.515625 L 535.910156 225.34375 L 535.085938 229.378906 L 535.382812 230.480469 L 535.105469 232.835938 L 534.253906 235.539062 L 532.882812 236.898438 L 531.945312 238.992188 L 531.742188 240.113281 L 530.652344 240.882812 L 530.035156 243.75 Z M 536.917969 178.277344 L 532.832031 181.214844 L 530.21875 180.121094 L 530.175781 180.105469 L 530.4375 179.683594 L 530.289062 178.558594 L 530.6875 177.046875 L 531.796875 176.011719 L 531.316406 174.929688 L 530.296875 174.792969 L 529.863281 172.683594 L 530.28125 171.554688 L 530.808594 170.953125 L 531.335938 170.347656 L 531.277344 168.816406 L 532.0625 169.351562 L 534.410156 168.585938 L 535.648438 169.101562 L 537.46875 169.09375 L 539.882812 168.0625 L 541.078125 168.109375 L 543.535156 167.683594 L 542.632812 169.398438 L 541.507812 170.074219 L 541.972656 172.085938 L 541.542969 175.410156 Z M 471.460938 186.742188 L 470.378906 181.792969 L 468.964844 180.683594 L 468.929688 180.015625 L 467.058594 178.375 L 466.816406 176.296875 L 468.160156 174.761719 L 468.625 172.492188 L 468.207031 169.871094 L 468.621094 168.460938 L 470.992188 167.351562 L 472.550781 167.683594 L 472.53125 169.074219 L 474.371094 168.0625 L 474.546875 168.589844 L 473.488281 169.9375 L 473.515625 171.207031 L 474.304688 171.890625 L 474.089844 174.273438 L 472.664062 175.65625 L 473.132812 177.15625 L 474.292969 177.203125 L 474.898438 178.511719 L 475.765625 178.945312 L 475.703125 181.058594 L 474.632812 181.851562 L 473.964844 182.734375 L 472.445312 183.796875 L 472.714844 184.941406 L 472.550781 186.105469 Z M 530.105469 156.441406 L 533.367188 157.5 L 535.839844 157.078125 L 537.742188 157.320312 L 540.09375 155.898438 L 542.382812 155.765625 L 544.683594 157.105469 L 545.207031 158.066406 L 545.203125 159.398438 L 546.929688 160.078125 L 547.914062 160.875 L 546.535156 161.65625 L 547.691406 164.796875 L 547.386719 165.648438 L 548.910156 167.847656 L 547.917969 168.308594 L 547.042969 167.609375 L 544.425781 167.257812 L 543.535156 167.683594 L 541.078125 168.109375 L 539.882812 168.0625 L 537.46875 169.09375 L 535.648438 169.101562 L 534.410156 168.585938 L 532.0625 169.351562 L 531.277344 168.816406 L 531.335938 170.347656 L 530.808594 170.953125 L 530.28125 171.554688 L 529.328125 170.304688 L 530.050781 169.273438 L 528.726562 169.507812 L 526.804688 168.875 L 525.453125 170.457031 L 522.117188 170.765625 L 520.175781 169.292969 L 517.78125 169.199219 L 517.378906 170.339844 L 515.875 170.664062 L 513.601562 169.203125 L 511.1875 169.25 L 509.640625 166.519531 L 507.898438 165 L 508.773438 162.867188 L 507.269531 161.558594 L 509.445312 158.941406 L 512.789062 158.832031 L 513.488281 156.757812 L 517.667969 157.117188 L 520.070312 155.351562 L 522.496094 154.582031 L 526.070312 154.523438 Z M 509.183594 158.203125 L 507.503906 159.675781 L 506.703125 158.402344 L 506.679688 157.839844 L 507.167969 157.53125 L 507.675781 155.824219 L 506.550781 155.105469 L 508.667969 154.246094 L 510.566406 154.613281 L 510.933594 155.660156 L 512.917969 156.539062 L 512.59375 157.207031 L 510.027344 157.359375 Z M 568.695312 203.457031 L 569.089844 203.324219 L 569.253906 204.082031 L 571.011719 203.644531 L 572.921875 203.71875 L 574.320312 203.800781 L 575.691406 201.9375 L 577.203125 200.167969 L 578.453125 198.46875 L 579 199.410156 L 579.570312 201.585938 L 578.394531 201.597656 L 578.410156 203.390625 L 578.859375 203.773438 L 577.878906 204.316406 L 577.996094 205.445312 L 577.441406 206.585938 L 577.496094 207.691406 L 577.089844 208.277344 L 570.011719 206.886719 L 568.847656 204.097656 Z M 529.914062 180.992188 L 530.074219 182.675781 L 529.820312 183.484375 L 528.792969 183.859375 L 528.824219 183.132812 L 529.363281 182.753906 L 528.769531 182.445312 L 529.0625 180.609375 Z M 429.910156 195.53125 L 429.886719 194.054688 L 430.234375 194.054688 L 430.230469 194.242188 L 430.175781 194.773438 L 430.089844 198.949219 L 422.570312 198.804688 L 422.472656 205.859375 L 420.308594 206.105469 L 419.707031 207.519531 L 420.054688 211.496094 L 410.984375 211.480469 L 410.449219 212.398438 L 410.585938 211.234375 L 410.625 211.238281 L 415.847656 211.019531 L 416.148438 210.027344 L 417.128906 208.789062 L 417.992188 204.984375 L 421.269531 202.011719 L 422.4375 198.539062 L 423.160156 198.335938 L 423.957031 196.1875 L 425.886719 195.890625 L 426.707031 196.25 L 427.746094 196.25 L 428.496094 195.621094 Z M 574.066406 224.355469 L 572.429688 225.09375 L 572.058594 226.316406 L 572.066406 227.25 L 569.8125 228.410156 L 566.148438 229.691406 L 564.160156 231.628906 L 563.132812 231.78125 L 562.421875 231.617188 L 561.109375 232.757812 L 559.640625 233.285156 L 557.679688 233.429688 L 557.09375 233.582031 L 556.617188 234.308594 L 556.007812 234.507812 L 555.679688 235.207031 L 554.511719 235.144531 L 553.777344 235.519531 L 552.148438 235.378906 L 551.464844 233.777344 L 551.460938 232.273438 L 551.039062 231.464844 L 550.476562 229.433594 L 549.746094 228.304688 L 550.207031 228.171875 L 549.902344 226.917969 L 550.15625 226.386719 L 549.984375 225.191406 L 550.960938 224.3125 L 550.652344 223.15625 L 551.1875 221.804688 L 552.191406 222.519531 L 552.808594 222.269531 L 555.496094 222.207031 L 555.941406 222.480469 L 558.214844 222.757812 L 559.101562 222.621094 L 559.746094 223.535156 L 560.804688 223.078125 L 562.277344 220.191406 L 564.363281 218.953125 L 570.992188 217.898438 L 573.164062 222.4375 Z M 574.066406 224.355469 "/>
</svg>
